<svg width="35" height="36" viewBox="0 0 35 36" fill="none" xmlns="http://www.w3.org/2000/svg">
<g clip-path="url(#clip0_538_711)">
<path d="M26.7969 0.113281H8.20312C3.67266 0.113281 0 3.78595 0 8.31641V26.9102C0 31.4406 3.67266 35.1133 8.20312 35.1133H26.7969C31.3273 35.1133 35 31.4406 35 26.9102V8.31641C35 3.78595 31.3273 0.113281 26.7969 0.113281Z" fill="#0277BD"/>
<path d="M7.349 14.1476L7.7404 18.5147H17.5131V14.1476H7.349Z" fill="#EBEBEB"/>
<path d="M17.513 5.30859H17.4979H6.5625L6.95948 9.6757H17.513V5.30859Z" fill="#EBEBEB"/>
<path d="M17.513 30.033V25.4894L17.4939 25.4944L12.6303 24.1813L12.3193 20.6982H9.956H7.9355L8.54732 27.5552L17.4929 30.0386L17.513 30.033Z" fill="#EBEBEB"/>
<path d="M22.8755 18.5147L22.3686 24.1784L17.498 25.4931V30.0364L26.4507 27.5552L26.5163 26.8173L27.5425 15.3204L27.649 14.1476L28.4375 5.30859H17.498V9.6757H23.6515L23.2542 14.1476H17.498V18.5147H22.8755Z" fill="white"/>
</g>
<defs>
<clipPath id="clip0_538_711">
<rect width="35" height="35" fill="white" transform="translate(0 0.113281)"/>
</clipPath>
</defs>
</svg>
