<svg width="35" height="36" viewBox="0 0 35 36" fill="none" xmlns="http://www.w3.org/2000/svg">
<g clip-path="url(#clip0_539_754)">
<path d="M26.7969 0.113281H8.20312C3.67266 0.113281 0 3.78595 0 8.31641V26.9102C0 31.4406 3.67266 35.1133 8.20312 35.1133H26.7969C31.3273 35.1133 35 31.4406 35 26.9102V8.31641C35 3.78595 31.3273 0.113281 26.7969 0.113281Z" fill="#242938"/>
<path d="M31.1719 25.1242C30.7739 25.275 30.3345 25.2746 29.9366 25.1234C29.5389 24.972 29.2102 24.6803 29.0129 24.3032C27.7739 22.4483 26.4056 20.6771 25.0905 18.8679L24.5202 18.1078C22.9543 20.2059 21.3883 22.2203 19.9592 24.3109C19.7729 24.6712 19.4622 24.9517 19.0846 25.0999C18.707 25.2482 18.2883 25.2541 17.9067 25.1167L23.7829 17.2336L18.3172 10.1106C18.7106 9.96858 19.141 9.96663 19.5357 10.1051C19.9304 10.2436 20.2653 10.5141 20.4837 10.8708C21.7532 12.7257 23.1596 14.4969 24.5582 16.3746C25.9647 14.5121 27.3558 12.7333 28.6557 10.8936C28.8429 10.5391 29.1539 10.2657 29.5296 10.1256C29.9052 9.98541 30.3193 9.98821 30.6929 10.1335L28.572 12.9461C27.6218 14.2004 26.6868 15.4623 25.6986 16.6862C25.6189 16.7576 25.5552 16.8448 25.5116 16.9424C25.468 17.04 25.4454 17.1457 25.4454 17.2526C25.4454 17.3594 25.468 17.4651 25.5116 17.5627C25.5552 17.6603 25.6189 17.7475 25.6986 17.8189C27.5155 20.2287 29.317 22.646 31.1719 25.1242Z" fill="white"/>
<path d="M3.82812 17.1348C3.98776 16.3746 4.08659 15.546 4.30704 14.7706C5.62215 10.0955 10.9814 8.14945 14.6683 11.0458C16.8272 12.741 17.367 15.1432 17.2606 17.8494H5.09763C4.89999 22.6842 8.38921 25.6033 12.8515 24.1133C13.5753 23.8544 14.2233 23.4193 14.7369 22.8473C15.2506 22.2753 15.6136 21.5843 15.7933 20.8368C16.029 20.0767 16.4091 19.9475 17.1313 20.1679C17.0123 21.0933 16.6852 21.9798 16.1742 22.7606C15.6635 23.5414 14.9822 24.1962 14.1818 24.6758C12.8594 25.399 11.3422 25.6854 9.84713 25.4943C8.35207 25.3032 6.95574 24.6442 5.85781 23.6115C4.77163 22.3902 4.11487 20.8472 3.98776 19.2177C3.98776 18.9593 3.88894 18.7007 3.83573 18.4575C3.83065 18.0065 3.82812 17.5656 3.82812 17.1348ZM5.11283 16.8079H16.1127C16.0442 13.3035 13.8321 10.8177 10.8826 10.7949C7.59862 10.7493 5.24967 13.1819 5.10523 16.7927L5.11283 16.8079Z" fill="white"/>
</g>
<defs>
<clipPath id="clip0_539_754">
<rect width="35" height="35" fill="white" transform="translate(0 0.113281)"/>
</clipPath>
</defs>
</svg>
