<svg width="35" height="36" viewBox="0 0 35 36" fill="none" xmlns="http://www.w3.org/2000/svg">
<g clip-path="url(#clip0_538_708)">
<path d="M26.7969 0.113281H8.20312C3.67266 0.113281 0 3.78595 0 8.31641V26.9102C0 31.4406 3.67266 35.1133 8.20312 35.1133H26.7969C31.3273 35.1133 35 31.4406 35 26.9102V8.31641C35 3.78595 31.3273 0.113281 26.7969 0.113281Z" fill="#242938"/>
<mask id="mask0_538_708" style="mask-type:luminance" maskUnits="userSpaceOnUse" x="8" y="3" width="19" height="29">
<path d="M26.5727 3.94141H8.33984V31.2852H26.5727V3.94141Z" fill="white"/>
</mask>
<g mask="url(#mask0_538_708)">
<path d="M12.899 31.2852C15.4146 31.2852 17.4563 29.2435 17.4563 26.7279V22.1705H12.899C10.3833 22.1705 8.34166 24.2123 8.34166 26.7279C8.34166 29.2435 10.3833 31.2852 12.899 31.2852Z" fill="#0ACF83"/>
<path d="M8.34166 17.6133C8.34166 15.0977 10.3833 13.056 12.899 13.056H17.4563V22.1705H12.899C10.3833 22.1705 8.34166 20.1289 8.34166 17.6133Z" fill="#A259FF"/>
<path d="M8.34166 8.49869C8.34166 5.98307 10.3833 3.94141 12.899 3.94141H17.4563V13.056H12.899C10.3833 13.056 8.34166 11.0143 8.34166 8.49869Z" fill="#F24E1E"/>
<path d="M17.4563 3.94141H22.0135C24.5291 3.94141 26.5709 5.98307 26.5709 8.49869C26.5709 11.0143 24.5291 13.056 22.0135 13.056H17.4563V3.94141Z" fill="#FF7262"/>
<path d="M26.5709 17.6133C26.5709 20.1289 24.5291 22.1705 22.0135 22.1705C19.4979 22.1705 17.4563 20.1289 17.4563 17.6133C17.4563 15.0977 19.4979 13.056 22.0135 13.056C24.5291 13.056 26.5709 15.0977 26.5709 17.6133Z" fill="#1ABCFE"/>
</g>
</g>
<defs>
<clipPath id="clip0_538_708">
<rect width="35" height="35" fill="white" transform="translate(0 0.113281)"/>
</clipPath>
</defs>
</svg>
