<svg width="35" height="36" viewBox="0 0 35 36" fill="none" xmlns="http://www.w3.org/2000/svg">
<g clip-path="url(#clip0_538_710)">
<path d="M26.7969 0.113281H8.20312C3.67266 0.113281 0 3.78595 0 8.31641V26.9102C0 31.4406 3.67266 35.1133 8.20312 35.1133H26.7969C31.3273 35.1133 35 31.4406 35 26.9102V8.31641C35 3.78595 31.3273 0.113281 26.7969 0.113281Z" fill="#E14E1D"/>
<path d="M6.5625 5.30859L7.73962 18.5147H22.8758L22.3679 24.1789L17.4944 25.4966L12.6301 24.1808L12.3049 20.5438H7.92133L8.54815 27.5549L17.4933 30.0394L26.4497 27.5549L27.6505 14.1481H11.7338L11.3341 9.67605H28.0329H28.0463L28.4375 5.30859H6.5625Z" fill="white"/>
<path d="M17.5 5.30859H6.5625L7.73962 18.5147H17.5V14.1481H11.7338L11.3341 9.67605H17.5V5.30859Z" fill="#EBEBEB"/>
<path d="M17.5 25.4947L17.4944 25.4966L12.6301 24.1808L12.3049 20.5439H7.92132L8.54815 27.5549L17.4933 30.0394L17.5 30.0375V25.4947Z" fill="#EBEBEB"/>
</g>
<defs>
<clipPath id="clip0_538_710">
<rect width="35" height="35" fill="white" transform="translate(0 0.113281)"/>
</clipPath>
</defs>
</svg>
