<svg width="35" height="36" viewBox="0 0 35 36" fill="none" xmlns="http://www.w3.org/2000/svg">
<g clip-path="url(#clip0_538_713)">
<path d="M26.7969 0.113281H8.20312C3.67266 0.113281 0 3.78595 0 8.31641V26.9102C0 31.4406 3.67266 35.1133 8.20312 35.1133H26.7969C31.3273 35.1133 35 31.4406 35 26.9102V8.31641C35 3.78595 31.3273 0.113281 26.7969 0.113281Z" fill="#F0DB4F"/>
<path d="M9.20277 29.3618L11.8812 27.7409C12.3979 28.657 12.868 29.4322 13.9955 29.4322C15.0762 29.4322 15.7577 29.0095 15.7577 27.365V16.1817H19.0468V27.4115C19.0468 30.8181 17.0499 32.3688 14.1364 32.3688C11.5053 32.3688 9.97799 31.0061 9.20271 29.3615" fill="#323330"/>
<path d="M20.8333 29.0093L23.5114 27.4588C24.2164 28.6101 25.1327 29.4558 26.7537 29.4558C28.1166 29.4558 28.9856 28.7744 28.9856 27.8346C28.9856 26.707 28.0928 26.3075 26.5892 25.6499L25.7671 25.2973C23.3941 24.2872 21.8199 23.0184 21.8199 20.3401C21.8199 17.8732 23.6995 15.9936 26.6364 15.9936C28.7273 15.9936 30.231 16.722 31.3116 18.625L28.7507 20.2696C28.1868 19.2594 27.5762 18.86 26.6364 18.86C25.6731 18.86 25.0622 19.4709 25.0622 20.2696C25.0622 21.2563 25.6731 21.6558 27.0826 22.2668L27.9048 22.6191C30.7006 23.8174 32.2748 25.0389 32.2748 27.7876C32.2748 30.7481 29.9489 32.369 26.8242 32.369C23.7701 32.369 21.7965 30.9124 20.8333 29.0093Z" fill="#323330"/>
</g>
<defs>
<clipPath id="clip0_538_713">
<rect width="35" height="35" fill="white" transform="translate(0 0.113281)"/>
</clipPath>
</defs>
</svg>
