<svg width="35" height="36" viewBox="0 0 35 36" fill="none" xmlns="http://www.w3.org/2000/svg">
<g clip-path="url(#clip0_539_752)">
<path d="M26.7969 0.113281H8.20312C3.67266 0.113281 0 3.78595 0 8.31641V26.9102C0 31.4406 3.67266 35.1133 8.20312 35.1133H26.7969C31.3273 35.1133 35 31.4406 35 26.9102V8.31641C35 3.78595 31.3273 0.113281 26.7969 0.113281Z" fill="#023430"/>
<path d="M23.4026 14.823C21.962 8.46812 18.9596 6.77637 18.1937 5.58047C17.8779 5.05365 17.598 4.50604 17.3563 3.94141C17.3158 4.50595 17.2415 4.86162 16.7616 5.28973C15.7981 6.14879 11.7061 9.48336 11.3617 16.7038C11.0409 23.4361 16.311 27.5873 17.0071 28.0165C17.5425 28.2799 18.1945 28.0221 18.5127 27.7802C21.0531 26.0368 24.5241 21.3886 23.4053 14.823" fill="#10AA50"/>
<path d="M17.5745 24.4316C17.4419 26.0979 17.3469 27.0661 17.01 28.0184C17.01 28.0184 17.2311 29.6047 17.3864 31.2852H17.9359C18.067 30.1019 18.267 28.9272 18.5352 27.7671C17.8239 27.4171 17.6018 25.8938 17.5745 24.4316Z" fill="#B8C4C2"/>
<path d="M18.5343 27.7681C17.8154 27.436 17.6075 25.8805 17.5755 24.4316C17.7532 22.0413 17.805 19.6434 17.7308 17.2477C17.693 15.9907 17.7486 5.60496 17.4211 4.08444C17.6452 4.59943 17.9032 5.09891 18.1937 5.57956C18.9596 6.77639 21.9629 8.46814 23.4026 14.823C24.5241 21.3774 21.0719 26.0133 18.5343 27.7681Z" fill="#12924F"/>
</g>
<defs>
<clipPath id="clip0_539_752">
<rect width="35" height="35" fill="white" transform="translate(0 0.113281)"/>
</clipPath>
</defs>
</svg>
