<svg width="34" height="35" viewBox="0 0 34 35" fill="none" xmlns="http://www.w3.org/2000/svg">
<g clip-path="url(#clip0_538_732)">
<path d="M15.8867 0.122429C15.8136 0.129075 15.5808 0.152345 15.3714 0.168952C10.5423 0.604275 6.01897 3.20957 3.15406 7.21388C1.55875 9.44034 0.538424 11.9659 0.152881 14.6409C0.0166259 15.5748 0 15.8506 0 17.1166C0 18.3828 0.0166259 18.6586 0.152881 19.5923C1.07683 25.9759 5.62013 31.3395 11.782 33.3266C12.8855 33.6822 14.0486 33.9248 15.3714 34.071C15.8867 34.1274 18.1133 34.1274 18.6286 34.071C20.9119 33.8184 22.8461 33.2535 24.7539 32.2798C25.0463 32.1304 25.1029 32.0904 25.0629 32.0573C25.0364 32.0372 23.79 30.3657 22.2945 28.3453L19.5758 24.6734L16.169 19.6322C14.2946 16.8608 12.7525 14.5943 12.7391 14.5943C12.7259 14.5911 12.7126 16.8309 12.706 19.5658C12.6959 24.3543 12.6927 24.5471 12.6329 24.6599C12.5465 24.8228 12.48 24.8892 12.3403 24.9625C12.234 25.0155 12.141 25.0256 11.6391 25.0256H11.0641L10.9112 24.9292C10.8115 24.8661 10.7384 24.783 10.6886 24.6866L10.6188 24.537L10.6254 17.8744L10.6354 11.2082L10.7384 11.0786C10.7916 11.0088 10.9046 10.9191 10.9844 10.8759C11.1206 10.8094 11.1738 10.8028 11.7488 10.8028C12.4268 10.8028 12.5397 10.8294 12.716 11.0221C12.7658 11.0753 14.6103 13.8534 16.8173 17.1997C19.024 20.546 22.0419 25.1153 23.5241 27.3583L26.2162 31.4358L26.3526 31.3461C27.5589 30.5618 28.8352 29.4453 29.8455 28.2821C31.9959 25.8131 33.3819 22.8024 33.8472 19.5923C33.9833 18.6586 34 18.3828 34 17.1166C34 15.8506 33.9833 15.5748 33.8472 14.6409C32.9232 8.25733 28.3798 2.89388 22.218 0.906678C21.1312 0.554438 19.9747 0.31185 18.6784 0.165637C18.3593 0.132407 16.1624 0.0958453 15.8867 0.122429ZM22.8461 10.404C23.0056 10.4838 23.1353 10.6366 23.1819 10.7961C23.2084 10.8825 23.215 12.7302 23.2084 16.8939L23.1984 22.8689L22.1449 21.2538L21.088 19.6389V15.2957C21.088 12.4877 21.1013 10.9091 21.1211 10.8327C21.1744 10.6466 21.2906 10.5004 21.4503 10.414C21.5864 10.3442 21.6364 10.3376 22.1581 10.3376C22.6501 10.3376 22.7365 10.3442 22.8461 10.404Z" fill="black"/>
</g>
<defs>
<clipPath id="clip0_538_732">
<rect width="34" height="34" fill="white" transform="translate(0 0.113281)"/>
</clipPath>
</defs>
</svg>
