<svg width="35" height="36" viewBox="0 0 35 36" fill="none" xmlns="http://www.w3.org/2000/svg">
<g clip-path="url(#clip0_539_756)">
<path d="M26.7969 0.113281H8.20312C3.67266 0.113281 0 3.78595 0 8.31641V26.9102C0 31.4406 3.67266 35.1133 8.20312 35.1133H26.7969C31.3273 35.1133 35 31.4406 35 26.9102V8.31641C35 3.78595 31.3273 0.113281 26.7969 0.113281Z" fill="#242938"/>
<path d="M16.3896 4.36748C17.0621 3.98253 17.9379 3.98082 18.6097 4.36748C21.9897 6.27731 25.3708 8.18423 28.7502 10.0952C29.3859 10.4533 29.811 11.1607 29.8046 11.8931V23.3836C29.8093 24.1464 29.3422 24.8707 28.6716 25.2206C25.3027 27.12 21.9354 29.0216 18.5671 30.9211C17.8809 31.3135 16.9874 31.2832 16.3224 30.8586C15.3125 30.2732 14.3008 29.6905 13.2907 29.1056C13.0843 28.9825 12.8516 28.8846 12.7059 28.6845C12.8347 28.5109 13.0651 28.4893 13.2523 28.4134C13.6738 28.2793 14.0611 28.0641 14.4483 27.8553C14.5463 27.7883 14.6658 27.814 14.7597 27.8739C15.6234 28.3691 16.4795 28.8788 17.3461 29.3692C17.5309 29.476 17.7181 29.3342 17.8761 29.2461C21.182 27.3776 24.4919 25.5163 27.7974 23.6472C27.9199 23.5883 27.9876 23.4583 27.9776 23.3242C27.9799 19.5336 27.9781 15.7426 27.9788 11.952C27.9928 11.7998 27.9047 11.6599 27.767 11.5975C24.4099 9.70686 21.0543 7.81335 17.6977 5.92221C17.5786 5.84033 17.4215 5.84013 17.3023 5.9216C13.9456 7.81335 10.5908 9.70864 7.23412 11.5992C7.09696 11.6616 7.00492 11.7992 7.02125 11.952C7.02182 15.7426 7.02125 19.5336 7.02125 23.3247C7.00933 23.4588 7.08217 23.5861 7.20379 23.6438C8.09952 24.1517 8.99642 24.6561 9.89272 25.1623C10.3977 25.434 11.0177 25.5956 11.574 25.3874C12.0649 25.2113 12.409 24.7102 12.3997 24.189C12.4043 20.4207 12.3974 16.6517 12.4032 12.8839C12.3909 12.7166 12.5496 12.5784 12.7122 12.5941C13.1427 12.5912 13.5736 12.5883 14.004 12.5953C14.1836 12.5912 14.3072 12.7713 14.2851 12.9399C14.2833 16.7321 14.2897 20.5244 14.2822 24.3166C14.2833 25.3274 13.8681 26.4271 12.9332 26.9216C11.7816 27.5181 10.3581 27.3917 9.2203 26.8196C8.23532 26.328 7.29535 25.7478 6.32786 25.2211C5.65552 24.8732 5.19067 24.146 5.1954 23.3838V11.8931C5.18834 11.1455 5.63042 10.4253 6.28584 10.0725C9.65416 8.17159 13.0219 6.26919 16.3896 4.36748Z" fill="#81CD39"/>
<path d="M19.3282 12.3271C20.7972 12.2325 22.3699 12.2711 23.6919 12.9947C24.7155 13.5494 25.2829 14.7134 25.3009 15.8504C25.2723 16.0037 25.112 16.0883 24.9655 16.0778C24.5394 16.0773 24.113 16.0837 23.6868 16.0749C23.5059 16.0819 23.4009 15.9152 23.3782 15.7554C23.2557 15.2113 22.9589 14.6725 22.4469 14.41C21.6608 14.0165 20.7494 14.0363 19.8922 14.0445C19.2664 14.0776 18.5935 14.1319 18.0633 14.4998C17.6563 14.7786 17.5327 15.3413 17.6779 15.7945C17.8149 16.1199 18.1904 16.2249 18.4979 16.3217C20.2683 16.7848 22.1443 16.7386 23.8809 17.3479C24.5999 17.5963 25.3032 18.0794 25.5493 18.8321C25.8713 19.8411 25.7302 21.047 25.0123 21.8569C24.4301 22.5234 23.5823 22.8863 22.7367 23.0833C21.6118 23.3342 20.4444 23.3406 19.302 23.2292C18.2278 23.1067 17.1098 22.8245 16.2806 22.0926C15.5714 21.4768 15.2251 20.5173 15.2595 19.5915C15.2677 19.4351 15.4234 19.326 15.5732 19.3388C16.0024 19.3354 16.4317 19.3342 16.8608 19.3395C17.0324 19.3272 17.1594 19.4754 17.1683 19.637C17.2473 20.1553 17.4422 20.6994 17.8943 21.0067C18.7666 21.5695 19.8613 21.531 20.8601 21.5467C21.6877 21.51 22.6167 21.499 23.292 20.952C23.6482 20.64 23.7538 20.118 23.6575 19.669C23.5532 19.2899 23.1566 19.1132 22.816 18.9977C21.0684 18.445 19.1713 18.6455 17.4405 18.0203C16.7378 17.772 16.0583 17.3025 15.7884 16.5807C15.4118 15.559 15.5843 14.2951 16.3774 13.5126C17.1507 12.7341 18.2669 12.4343 19.3282 12.3271Z" fill="#81CD39"/>
</g>
<defs>
<clipPath id="clip0_539_756">
<rect width="35" height="35" fill="white" transform="translate(0 0.113281)"/>
</clipPath>
</defs>
</svg>
