<svg width="35" height="36" viewBox="0 0 35 36" fill="none" xmlns="http://www.w3.org/2000/svg">
<g clip-path="url(#clip0_538_706)">
<path d="M26.7969 0.113281H8.20312C3.67266 0.113281 0 3.78595 0 8.31641V26.9102C0 31.4406 3.67266 35.1133 8.20312 35.1133H26.7969C31.3273 35.1133 35 31.4406 35 26.9102V8.31641C35 3.78595 31.3273 0.113281 26.7969 0.113281Z" fill="#242938"/>
<path fill-rule="evenodd" clip-rule="evenodd" d="M11.3477 15.1523C12.1678 11.8712 14.2189 10.2305 17.5 10.2305C22.4219 10.2305 23.0371 13.9219 25.498 14.5371C27.1388 14.9474 28.5742 14.3322 29.8047 12.6914C28.9845 15.9725 26.9335 17.6133 23.6523 17.6133C18.7305 17.6133 18.1152 13.9219 15.6543 13.3066C14.0135 12.8964 12.5781 13.5116 11.3477 15.1523ZM5.19531 22.5352C6.0155 19.254 8.06653 17.6133 11.3477 17.6133C16.2695 17.6133 16.8848 21.3047 19.3457 21.9199C20.9865 22.3302 22.4219 21.715 23.6523 20.0742C22.8322 23.3553 20.7811 24.9961 17.5 24.9961C12.5781 24.9961 11.9629 21.3047 9.50195 20.6895C7.86121 20.2792 6.42578 20.8944 5.19531 22.5352Z" fill="url(#paint0_linear_538_706)"/>
</g>
<defs>
<linearGradient id="paint0_linear_538_706" x1="11.8262" y1="10.2305" x2="22.3535" y2="25.4746" gradientUnits="userSpaceOnUse">
<stop stop-color="#32B1C1"/>
<stop offset="1" stop-color="#14C6B7"/>
</linearGradient>
<clipPath id="clip0_538_706">
<rect width="35" height="35" fill="white" transform="translate(0 0.113281)"/>
</clipPath>
</defs>
</svg>
