<svg width="35" height="36" viewBox="0 0 35 36" fill="none" xmlns="http://www.w3.org/2000/svg">
<g clip-path="url(#clip0_538_730)">
<path d="M26.7969 0.113281H8.20312C3.67266 0.113281 0 3.78595 0 8.31641V26.9102C0 31.4406 3.67266 35.1133 8.20312 35.1133H26.7969C31.3273 35.1133 35 31.4406 35 26.9102V8.31641C35 3.78595 31.3273 0.113281 26.7969 0.113281Z" fill="#007ACC"/>
<path d="M7.73981 17.7293L7.7287 19.1627H10.0065H12.2842V25.635V32.1071H13.8954H15.5065V25.635V19.1627H17.7842H20.062V17.7571C20.062 16.9793 20.0454 16.3293 20.0231 16.3127C20.0065 16.2905 17.2342 16.2793 13.8731 16.2849L7.75648 16.3016L7.73981 17.7293Z" fill="white"/>
<path d="M28.2416 16.2609C29.1304 16.4832 29.8082 16.8776 30.4304 17.522C30.7527 17.8665 31.2304 18.4943 31.2694 18.6443C31.2804 18.6887 29.7582 19.711 28.836 20.2831C28.8027 20.3054 28.6692 20.1609 28.5193 19.9387C28.0693 19.2832 27.5971 18.9998 26.8748 18.9499C25.8137 18.8775 25.1304 19.4332 25.136 20.3609C25.136 20.6331 25.1748 20.7942 25.286 21.0165C25.5192 21.4998 25.9526 21.7887 27.3138 22.3775C29.8193 23.4554 30.8915 24.1665 31.5582 25.1775C32.3027 26.3053 32.4693 28.1054 31.9638 29.4442C31.4083 30.8998 30.0304 31.8886 28.0915 32.2165C27.4915 32.322 26.0693 32.3054 25.4249 32.1887C24.0193 31.9387 22.686 31.2443 21.8638 30.3332C21.5415 29.9776 20.9137 29.0498 20.9527 28.9831C20.9692 28.9609 21.1137 28.8721 21.2748 28.7776C21.4304 28.6887 22.0194 28.3498 22.5749 28.0276L23.5804 27.4442L23.7915 27.7554C24.086 28.2053 24.7304 28.822 25.1193 29.0275C26.2359 29.6165 27.7694 29.5331 28.5249 28.8554C28.8471 28.5609 28.9804 28.2553 28.9804 27.8054C28.9804 27.3998 28.9304 27.222 28.7193 26.9165C28.4471 26.5276 27.8916 26.1998 26.3137 25.5165C24.5082 24.7387 23.7304 24.2554 23.0193 23.4886C22.6082 23.0443 22.2193 22.3331 22.0582 21.7386C21.9249 21.2443 21.8915 20.0053 21.9971 19.5053C22.3692 17.7609 23.686 16.5443 25.586 16.1831C26.2027 16.0665 27.6359 16.1109 28.2416 16.2609Z" fill="white"/>
</g>
<defs>
<clipPath id="clip0_538_730">
<rect width="35" height="35" fill="white" transform="translate(0 0.113281)"/>
</clipPath>
</defs>
</svg>
