<svg width="71" height="80" viewBox="0 0 71 80" fill="none" xmlns="http://www.w3.org/2000/svg">
<path d="M11.9531 5.0875C11.2203 5.24609 10.3398 5.77109 9.88593 6.32343C9.57421 6.70624 9.30625 7.18201 9.14765 7.65232L9 8.08982V39.9997V71.9096L9.14765 72.3471C9.50312 73.3916 10.1594 74.1463 11.1328 74.6166C11.9968 75.0322 9.72187 74.9994 35.906 74.9994C62.0902 74.9994 59.8152 75.0322 60.6792 74.6166C61.6527 74.1463 62.3089 73.3916 62.6644 72.3471L62.812 71.9096L62.8284 48.1098L62.8394 24.3045L55.391 24.2936L47.9372 24.2772L47.5161 24.1569C45.2794 23.5225 43.8356 21.9858 43.5896 19.9842C43.5567 19.6889 43.5349 16.9218 43.5349 12.2624V5L27.9381 5.00547C14.3921 5.01094 12.2867 5.02187 11.9531 5.0875Z" fill="#FEF3BA"/>
<path d="M46.2233 12.4916L46.2397 19.9564L46.3983 20.279C46.6061 20.7056 47.0491 21.1376 47.4921 21.3509C48.203 21.69 47.9897 21.679 55.7334 21.679C59.6107 21.679 62.7826 21.6626 62.7826 21.6353C62.7826 21.6134 59.0529 17.8674 54.4975 13.3119L46.2124 5.02684L46.2233 12.4916Z" fill="#FEF3BA"/>
<path d="M23 39.4822H48" stroke="#57446B" stroke-width="3" stroke-linecap="round"/>
<path d="M23 49.4822H48" stroke="#57446B" stroke-width="3" stroke-linecap="round"/>
<path d="M23 59.4822H48" stroke="#57446B" stroke-width="3" stroke-linecap="round"/>
</svg>
