<svg width="542" height="563" viewBox="0 0 542 563" fill="none" xmlns="http://www.w3.org/2000/svg">
<mask id="mask0_490_189" style="mask-type:alpha" maskUnits="userSpaceOnUse" x="353" y="403" width="92" height="26">
<circle cx="436.5" cy="424" r="5" transform="rotate(-180 436.5 424)" fill="#D9D9D9"/>
<circle cx="420.5" cy="424" r="5" transform="rotate(-180 420.5 424)" fill="#D9D9D9"/>
<circle cx="404.5" cy="424" r="5" transform="rotate(-180 404.5 424)" fill="#D9D9D9"/>
<circle cx="390" cy="424" r="5" transform="rotate(-180 390 424)" fill="#D9D9D9"/>
<circle cx="375.5" cy="424" r="5" transform="rotate(-180 375.5 424)" fill="#D9D9D9"/>
<circle cx="436.5" cy="408" r="5" transform="rotate(-180 436.5 408)" fill="#D9D9D9"/>
<circle cx="420.5" cy="408" r="5" transform="rotate(-180 420.5 408)" fill="#D9D9D9"/>
<circle cx="404.5" cy="408" r="5" transform="rotate(-180 404.5 408)" fill="#D9D9D9"/>
<circle cx="390" cy="408" r="5" transform="rotate(-180 390 408)" fill="#D9D9D9"/>
<circle cx="375.5" cy="408" r="5" transform="rotate(-180 375.5 408)" fill="#D9D9D9"/>
</mask>
<g mask="url(#mask0_490_189)">
<rect x="353" y="403" width="92" height="26" fill="url(#paint0_linear_490_189)"/>
</g>
<path d="M293.635 523.872C205.479 602.542 65.2022 553.139 45.7986 436.589L2.37574 175.765C-16.3686 63.1753 92.5081 -28.2654 200.166 9.6497L440.871 94.421C548.529 132.336 576.078 271.823 490.917 347.82L293.635 523.872Z" fill="#F54A4D"/>
<defs>
<linearGradient id="paint0_linear_490_189" x1="445" y1="429" x2="352.484" y2="404.988" gradientUnits="userSpaceOnUse">
<stop stop-color="#41AD3F"/>
<stop offset="0.405" stop-color="#8736B9"/>
<stop offset="0.955" stop-color="#DD1C1C"/>
</linearGradient>
</defs>
</svg>
