<svg width="74" height="72" viewBox="0 0 74 72" fill="none" xmlns="http://www.w3.org/2000/svg">
<g clip-path="url(#clip0_603_1509)">
<path d="M36.9115 0C16.5285 0 0 16.5254 0 36.9115C0 53.2199 10.5763 67.0557 25.2423 71.9365C27.0869 72.2783 27.7642 71.1359 27.7642 70.161C27.7642 69.2807 27.7299 66.3732 27.714 63.2889C17.4453 65.5217 15.2785 58.9338 15.2785 58.9338C13.5994 54.6672 11.1802 53.5329 11.1802 53.5329C7.83118 51.2419 11.4326 51.2891 11.4326 51.2891C15.1391 51.5493 17.0908 55.0928 17.0908 55.0928C20.383 60.7358 25.7258 59.1043 27.8321 58.1612C28.1636 55.7753 29.1199 54.1471 30.1756 53.2255C21.9771 52.292 13.3586 49.1269 13.3586 34.9836C13.3586 30.9537 14.8005 27.6608 17.1617 25.076C16.7785 24.1463 15.515 20.3921 17.5193 15.3079C17.5193 15.3079 20.6189 14.3158 27.6726 19.0914C30.617 18.2736 33.7744 17.8634 36.9115 17.8494C40.0482 17.8634 43.2085 18.2736 46.1581 19.0914C53.2033 14.3158 56.2987 15.3079 56.2987 15.3079C58.3078 20.3921 57.0439 24.1463 56.6604 25.076C59.0272 27.6608 60.4593 30.9537 60.4593 34.9836C60.4593 49.1608 51.8243 52.2824 43.605 53.1959C44.929 54.3417 46.1086 56.5877 46.1086 60.0315C46.1086 64.9702 46.0658 68.9452 46.0658 70.161C46.0658 71.1432 46.7302 72.2941 48.6013 71.9317C63.2594 67.0454 73.8223 53.2144 73.8223 36.9115C73.8223 16.5254 57.296 0 36.9115 0ZM13.8245 52.581C13.7432 52.7645 13.4547 52.8194 13.1919 52.6936C12.9242 52.5732 12.7738 52.323 12.8606 52.1392C12.9401 51.9502 13.2292 51.8978 13.4963 52.0244C13.7646 52.1447 13.9175 52.3972 13.8245 52.581ZM15.6402 54.201C15.4641 54.3645 15.12 54.2885 14.8865 54.0305C14.6451 53.7732 14.5998 53.4292 14.7783 53.2635C14.9599 53.1003 15.2936 53.1768 15.5356 53.434C15.7771 53.6946 15.8241 54.036 15.6402 54.201ZM16.8858 56.274C16.6596 56.4312 16.2898 56.2839 16.0612 55.9554C15.835 55.6273 15.835 55.2338 16.0661 55.0758C16.2953 54.9182 16.6596 55.06 16.8913 55.3859C17.1168 55.7196 17.1168 56.1134 16.8858 56.274ZM18.9923 58.6747C18.79 58.8976 18.3591 58.8378 18.0437 58.5333C17.721 58.2358 17.6311 57.8135 17.834 57.5902C18.0388 57.3665 18.4722 57.4296 18.79 57.7316C19.1103 58.0283 19.2081 58.4539 18.9923 58.6747ZM21.7149 59.4849C21.6256 59.7742 21.2106 59.9056 20.7925 59.7827C20.375 59.6561 20.1018 59.3177 20.1861 59.0253C20.273 58.7345 20.6898 58.5975 21.111 58.7289C21.5278 58.8548 21.8016 59.191 21.7149 59.4849ZM24.8132 59.8289C24.8236 60.133 24.4691 60.3855 24.0302 60.391C23.5889 60.401 23.2319 60.1544 23.227 59.8551C23.227 59.5476 23.5736 59.2977 24.0149 59.2903C24.4538 59.2818 24.8132 59.5262 24.8132 59.8289ZM27.8568 59.7122C27.9096 60.009 27.6047 60.3143 27.1688 60.3955C26.7403 60.4737 26.3435 60.2903 26.2892 59.9957C26.236 59.6912 26.5465 59.3863 26.9743 59.3073C27.4109 59.2316 27.8015 59.4103 27.8568 59.7122Z" fill="#FEF3BA"/>
</g>
<defs>
<clipPath id="clip0_603_1509">
<rect width="73.8223" height="72" rx="12" fill="white"/>
</clipPath>
</defs>
</svg>
