<svg width="96" height="58" viewBox="0 0 96 58" fill="none" xmlns="http://www.w3.org/2000/svg">
<mask id="mask0_219_1635" style="mask-type:alpha" maskUnits="userSpaceOnUse" x="0" y="0" width="96" height="58">
<circle cx="2" cy="5" r="2" fill="#D9D9D9"/>
<circle cx="12" cy="5" r="2" fill="#D9D9D9"/>
<circle cx="22.5" cy="5" r="2.5" fill="#D9D9D9"/>
<circle cx="34" cy="5" r="3" fill="#D9D9D9"/>
<circle cx="46.5" cy="5" r="3.5" fill="#D9D9D9"/>
<circle cx="60" cy="5" r="4" fill="#D9D9D9"/>
<circle cx="75" cy="5" r="5" fill="#D9D9D9"/>
<circle cx="91" cy="5" r="5" fill="#D9D9D9"/>
<circle cx="2" cy="21" r="2" fill="#D9D9D9"/>
<circle cx="12" cy="21" r="2" fill="#D9D9D9"/>
<circle cx="22.5" cy="21" r="2.5" fill="#D9D9D9"/>
<circle cx="34" cy="21" r="3" fill="#D9D9D9"/>
<circle cx="46.5" cy="21" r="3.5" fill="#D9D9D9"/>
<circle cx="60" cy="21" r="4" fill="#D9D9D9"/>
<circle cx="75" cy="21" r="5" fill="#D9D9D9"/>
<circle cx="91" cy="21" r="5" fill="#D9D9D9"/>
<circle cx="2" cy="37" r="2" fill="#D9D9D9"/>
<circle cx="12" cy="37" r="2" fill="#D9D9D9"/>
<circle cx="22.5" cy="37" r="2.5" fill="#D9D9D9"/>
<circle cx="34" cy="37" r="3" fill="#D9D9D9"/>
<circle cx="46.5" cy="37" r="3.5" fill="#D9D9D9"/>
<circle cx="60" cy="37" r="4" fill="#D9D9D9"/>
<circle cx="75" cy="37" r="5" fill="#D9D9D9"/>
<circle cx="91" cy="37" r="5" fill="#D9D9D9"/>
<circle cx="2" cy="53" r="2" fill="#D9D9D9"/>
<circle cx="12" cy="53" r="2" fill="#D9D9D9"/>
<circle cx="22.5" cy="53" r="2.5" fill="#D9D9D9"/>
<circle cx="34" cy="53" r="3" fill="#D9D9D9"/>
<circle cx="46.5" cy="53" r="3.5" fill="#D9D9D9"/>
<circle cx="60" cy="53" r="4" fill="#D9D9D9"/>
<circle cx="75" cy="53" r="5" fill="#D9D9D9"/>
<circle cx="91" cy="53" r="5" fill="#D9D9D9"/>
</mask>
<g mask="url(#mask0_219_1635)">
<rect width="96" height="58" fill="url(#paint0_linear_219_1635)"/>
</g>
<defs>
<linearGradient id="paint0_linear_219_1635" x1="96" y1="58" x2="3.27826e-07" y2="-5.42608e-07" gradientUnits="userSpaceOnUse">
<stop offset="0.27" stop-color="#41AD3F"/>
<stop offset="0.77" stop-color="#8736B9"/>
<stop offset="1" stop-color="#DD1C1C" stop-opacity="0.99"/>
</linearGradient>
</defs>
</svg>
