<svg width="70" height="70" viewBox="0 0 70 70" fill="none" xmlns="http://www.w3.org/2000/svg">
<g clip-path="url(#clip0_603_1508)">
<rect width="70" height="70" rx="12" fill="#FEF3BA"/>
<path d="M56.25 -5H13.75C3.39466 -5 -5 3.39466 -5 13.75V56.25C-5 66.6053 3.39466 75 13.75 75H56.25C66.6053 75 75 66.6053 75 56.25V13.75C75 3.39466 66.6053 -5 56.25 -5Z" fill="white"/>
<path d="M56.25 -5H13.75C3.39466 -5 -5 3.39466 -5 13.75V56.25C-5 66.6053 3.39466 75 13.75 75H56.25C66.6053 75 75 66.6053 75 56.25V13.75C75 3.39466 66.6053 -5 56.25 -5Z" fill="#FEF3BA"/>
<path d="M52.7234 63.0265H61.8703C62.5606 63.0265 63.1203 62.4672 63.1203 61.7769L63.1249 42.4512C63.1249 32.3503 60.9484 24.5861 49.1443 24.5861C44.6571 24.4194 40.4256 26.7325 38.1421 30.595C38.124 30.6256 38.0915 30.6444 38.0559 30.6444C38.0009 30.6444 37.9562 30.5997 37.9562 30.5447V26.7687C37.9562 26.0784 37.3968 25.5188 36.7062 25.5188H28.0259C27.3356 25.5188 26.7759 26.0784 26.7759 26.7687V61.775C26.7759 62.4656 27.3356 63.025 28.0259 63.025H37.1721C37.8624 63.025 38.4221 62.4656 38.4221 61.775V44.4709C38.4221 39.5781 39.3503 34.8397 45.4162 34.8397C51.3959 34.8397 51.4734 40.4384 51.4734 44.7878V61.7765C51.4734 62.4669 52.0331 63.0265 52.7234 63.0265Z" fill="#694E85"/>
<path d="M6.875 13.6336C6.875 17.3413 9.92734 20.3918 13.635 20.3918C17.342 20.3915 20.3922 17.3392 20.3922 13.6322C20.3915 9.92522 17.3409 6.875 13.6336 6.875C9.92594 6.875 6.875 9.92594 6.875 13.6336Z" fill="#624A7B"/>
<path d="M9.0498 63.0265H18.2083C18.8986 63.0265 19.4583 62.4669 19.4583 61.7765V26.7687C19.4583 26.0785 18.8986 25.5188 18.2083 25.5188H9.0498C8.35946 25.5188 7.7998 26.0785 7.7998 26.7687V61.7765C7.7998 62.4669 8.35946 63.0265 9.0498 63.0265Z" fill="#6A4F87"/>
</g>
<defs>
<clipPath id="clip0_603_1508">
<rect width="70" height="70" rx="12" fill="white"/>
</clipPath>
</defs>
</svg>
