<svg width="93" height="285" viewBox="0 0 93 285" fill="none" xmlns="http://www.w3.org/2000/svg">
<g opacity="0.5">
<mask id="mask0_387_1761" style="mask-type:alpha" maskUnits="userSpaceOnUse" x="1" y="0" width="92" height="125">
<circle cx="7" cy="118.5" r="5" transform="rotate(-90 7 118.5)" fill="#D9D9D9"/>
<circle cx="7" cy="102.5" r="5" transform="rotate(-90 7 102.5)" fill="#D9D9D9"/>
<circle cx="7" cy="86.5" r="5" transform="rotate(-90 7 86.5)" fill="#D9D9D9"/>
<circle cx="7" cy="70.5" r="5" transform="rotate(-90 7 70.5)" fill="#D9D9D9"/>
<circle cx="7" cy="54.5" r="5" transform="rotate(-90 7 54.5)" fill="#D9D9D9"/>
<circle cx="7" cy="38.5" r="5" transform="rotate(-90 7 38.5)" fill="#D9D9D9"/>
<circle cx="7" cy="22.5" r="5" transform="rotate(-90 7 22.5)" fill="#D9D9D9"/>
<circle cx="7" cy="6.5" r="5" transform="rotate(-90 7 6.5)" fill="#D9D9D9"/>
<circle cx="23" cy="118.5" r="5" transform="rotate(-90 23 118.5)" fill="#D9D9D9"/>
<circle cx="23" cy="102.5" r="5" transform="rotate(-90 23 102.5)" fill="#D9D9D9"/>
<circle cx="23" cy="86.5" r="5" transform="rotate(-90 23 86.5)" fill="#D9D9D9"/>
<circle cx="23" cy="70.5" r="5" transform="rotate(-90 23 70.5)" fill="#D9D9D9"/>
<circle cx="23" cy="54.5" r="5" transform="rotate(-90 23 54.5)" fill="#D9D9D9"/>
<circle cx="23" cy="38.5" r="5" transform="rotate(-90 23 38.5)" fill="#D9D9D9"/>
<circle cx="23" cy="22.5" r="5" transform="rotate(-90 23 22.5)" fill="#D9D9D9"/>
<circle cx="23" cy="6.5" r="5" transform="rotate(-90 23 6.5)" fill="#D9D9D9"/>
<circle cx="39" cy="118.5" r="5" transform="rotate(-90 39 118.5)" fill="#D9D9D9"/>
<circle cx="39" cy="102.5" r="5" transform="rotate(-90 39 102.5)" fill="#D9D9D9"/>
<circle cx="39" cy="86.5" r="5" transform="rotate(-90 39 86.5)" fill="#D9D9D9"/>
<circle cx="39" cy="70.5" r="5" transform="rotate(-90 39 70.5)" fill="#D9D9D9"/>
<circle cx="39" cy="54.5" r="5" transform="rotate(-90 39 54.5)" fill="#D9D9D9"/>
<circle cx="39" cy="38.5" r="5" transform="rotate(-90 39 38.5)" fill="#D9D9D9"/>
<circle cx="39" cy="22.5" r="5" transform="rotate(-90 39 22.5)" fill="#D9D9D9"/>
<circle cx="39" cy="6.5" r="5" transform="rotate(-90 39 6.5)" fill="#D9D9D9"/>
<circle cx="55" cy="118.5" r="5" transform="rotate(-90 55 118.5)" fill="#D9D9D9"/>
<circle cx="55" cy="102.5" r="5" transform="rotate(-90 55 102.5)" fill="#D9D9D9"/>
<circle cx="55" cy="86.5" r="5" transform="rotate(-90 55 86.5)" fill="#D9D9D9"/>
<circle cx="55" cy="70.5" r="5" transform="rotate(-90 55 70.5)" fill="#D9D9D9"/>
<circle cx="55" cy="54.5" r="5" transform="rotate(-90 55 54.5)" fill="#D9D9D9"/>
<circle cx="55" cy="38.5" r="5" transform="rotate(-90 55 38.5)" fill="#D9D9D9"/>
<circle cx="55" cy="22.5" r="5" transform="rotate(-90 55 22.5)" fill="#D9D9D9"/>
<circle cx="55" cy="6.5" r="5" transform="rotate(-90 55 6.5)" fill="#D9D9D9"/>
<circle cx="71" cy="118.5" r="5" transform="rotate(-90 71 118.5)" fill="#D9D9D9"/>
<circle cx="71" cy="102.5" r="5" transform="rotate(-90 71 102.5)" fill="#D9D9D9"/>
<circle cx="71" cy="86.5" r="5" transform="rotate(-90 71 86.5)" fill="#D9D9D9"/>
<circle cx="71" cy="70.5" r="5" transform="rotate(-90 71 70.5)" fill="#D9D9D9"/>
<circle cx="71" cy="54.5" r="5" transform="rotate(-90 71 54.5)" fill="#D9D9D9"/>
<circle cx="71" cy="38.5" r="5" transform="rotate(-90 71 38.5)" fill="#D9D9D9"/>
<circle cx="71" cy="22.5" r="5" transform="rotate(-90 71 22.5)" fill="#D9D9D9"/>
<circle cx="71" cy="6.5" r="5" transform="rotate(-90 71 6.5)" fill="#D9D9D9"/>
<circle cx="87" cy="118.5" r="5" transform="rotate(-90 87 118.5)" fill="#D9D9D9"/>
<circle cx="87" cy="102.5" r="5" transform="rotate(-90 87 102.5)" fill="#D9D9D9"/>
<circle cx="87" cy="86.5" r="5" transform="rotate(-90 87 86.5)" fill="#D9D9D9"/>
<circle cx="87" cy="70.5" r="5" transform="rotate(-90 87 70.5)" fill="#D9D9D9"/>
<circle cx="87" cy="54.5" r="5" transform="rotate(-90 87 54.5)" fill="#D9D9D9"/>
<circle cx="87" cy="38.5" r="5" transform="rotate(-90 87 38.5)" fill="#D9D9D9"/>
<circle cx="87" cy="22.5" r="5" transform="rotate(-90 87 22.5)" fill="#D9D9D9"/>
<circle cx="87" cy="6.5" r="5" transform="rotate(-90 87 6.5)" fill="#D9D9D9"/>
</mask>
<g mask="url(#mask0_387_1761)">
<rect x="93" width="124" height="92" transform="rotate(90 93 0)" fill="url(#paint0_linear_387_1761)"/>
</g>
</g>
<g opacity="0.5">
<mask id="mask1_387_1761" style="mask-type:alpha" maskUnits="userSpaceOnUse" x="0" y="161" width="92" height="125">
<circle cx="6" cy="279.5" r="5" transform="rotate(-90 6 279.5)" fill="#D9D9D9"/>
<circle cx="6" cy="263.5" r="5" transform="rotate(-90 6 263.5)" fill="#D9D9D9"/>
<circle cx="6" cy="247.5" r="5" transform="rotate(-90 6 247.5)" fill="#D9D9D9"/>
<circle cx="6" cy="231.5" r="5" transform="rotate(-90 6 231.5)" fill="#D9D9D9"/>
<circle cx="6" cy="215.5" r="5" transform="rotate(-90 6 215.5)" fill="#D9D9D9"/>
<circle cx="6" cy="199.5" r="5" transform="rotate(-90 6 199.5)" fill="#D9D9D9"/>
<circle cx="6" cy="183.5" r="5" transform="rotate(-90 6 183.5)" fill="#D9D9D9"/>
<circle cx="6" cy="167.5" r="5" transform="rotate(-90 6 167.5)" fill="#D9D9D9"/>
<circle cx="22" cy="279.5" r="5" transform="rotate(-90 22 279.5)" fill="#D9D9D9"/>
<circle cx="22" cy="263.5" r="5" transform="rotate(-90 22 263.5)" fill="#D9D9D9"/>
<circle cx="22" cy="247.5" r="5" transform="rotate(-90 22 247.5)" fill="#D9D9D9"/>
<circle cx="22" cy="231.5" r="5" transform="rotate(-90 22 231.5)" fill="#D9D9D9"/>
<circle cx="22" cy="215.5" r="5" transform="rotate(-90 22 215.5)" fill="#D9D9D9"/>
<circle cx="22" cy="199.5" r="5" transform="rotate(-90 22 199.5)" fill="#D9D9D9"/>
<circle cx="22" cy="183.5" r="5" transform="rotate(-90 22 183.5)" fill="#D9D9D9"/>
<circle cx="22" cy="167.5" r="5" transform="rotate(-90 22 167.5)" fill="#D9D9D9"/>
<circle cx="38" cy="279.5" r="5" transform="rotate(-90 38 279.5)" fill="#D9D9D9"/>
<circle cx="38" cy="263.5" r="5" transform="rotate(-90 38 263.5)" fill="#D9D9D9"/>
<circle cx="38" cy="247.5" r="5" transform="rotate(-90 38 247.5)" fill="#D9D9D9"/>
<circle cx="38" cy="231.5" r="5" transform="rotate(-90 38 231.5)" fill="#D9D9D9"/>
<circle cx="38" cy="215.5" r="5" transform="rotate(-90 38 215.5)" fill="#D9D9D9"/>
<circle cx="38" cy="199.5" r="5" transform="rotate(-90 38 199.5)" fill="#D9D9D9"/>
<circle cx="38" cy="183.5" r="5" transform="rotate(-90 38 183.5)" fill="#D9D9D9"/>
<circle cx="38" cy="167.5" r="5" transform="rotate(-90 38 167.5)" fill="#D9D9D9"/>
<circle cx="54" cy="279.5" r="5" transform="rotate(-90 54 279.5)" fill="#D9D9D9"/>
<circle cx="54" cy="263.5" r="5" transform="rotate(-90 54 263.5)" fill="#D9D9D9"/>
<circle cx="54" cy="247.5" r="5" transform="rotate(-90 54 247.5)" fill="#D9D9D9"/>
<circle cx="54" cy="231.5" r="5" transform="rotate(-90 54 231.5)" fill="#D9D9D9"/>
<circle cx="54" cy="215.5" r="5" transform="rotate(-90 54 215.5)" fill="#D9D9D9"/>
<circle cx="54" cy="199.5" r="5" transform="rotate(-90 54 199.5)" fill="#D9D9D9"/>
<circle cx="54" cy="183.5" r="5" transform="rotate(-90 54 183.5)" fill="#D9D9D9"/>
<circle cx="54" cy="167.5" r="5" transform="rotate(-90 54 167.5)" fill="#D9D9D9"/>
<circle cx="70" cy="279.5" r="5" transform="rotate(-90 70 279.5)" fill="#D9D9D9"/>
<circle cx="70" cy="263.5" r="5" transform="rotate(-90 70 263.5)" fill="#D9D9D9"/>
<circle cx="70" cy="247.5" r="5" transform="rotate(-90 70 247.5)" fill="#D9D9D9"/>
<circle cx="70" cy="231.5" r="5" transform="rotate(-90 70 231.5)" fill="#D9D9D9"/>
<circle cx="70" cy="215.5" r="5" transform="rotate(-90 70 215.5)" fill="#D9D9D9"/>
<circle cx="70" cy="199.5" r="5" transform="rotate(-90 70 199.5)" fill="#D9D9D9"/>
<circle cx="70" cy="183.5" r="5" transform="rotate(-90 70 183.5)" fill="#D9D9D9"/>
<circle cx="70" cy="167.5" r="5" transform="rotate(-90 70 167.5)" fill="#D9D9D9"/>
<circle cx="86" cy="279.5" r="5" transform="rotate(-90 86 279.5)" fill="#D9D9D9"/>
<circle cx="86" cy="263.5" r="5" transform="rotate(-90 86 263.5)" fill="#D9D9D9"/>
<circle cx="86" cy="247.5" r="5" transform="rotate(-90 86 247.5)" fill="#D9D9D9"/>
<circle cx="86" cy="231.5" r="5" transform="rotate(-90 86 231.5)" fill="#D9D9D9"/>
<circle cx="86" cy="215.5" r="5" transform="rotate(-90 86 215.5)" fill="#D9D9D9"/>
<circle cx="86" cy="199.5" r="5" transform="rotate(-90 86 199.5)" fill="#D9D9D9"/>
<circle cx="86" cy="183.5" r="5" transform="rotate(-90 86 183.5)" fill="#D9D9D9"/>
<circle cx="86" cy="167.5" r="5" transform="rotate(-90 86 167.5)" fill="#D9D9D9"/>
</mask>
<g mask="url(#mask1_387_1761)">
<rect x="92" y="161" width="124" height="92" transform="rotate(90 92 161)" fill="url(#paint1_linear_387_1761)"/>
</g>
</g>
<defs>
<linearGradient id="paint0_linear_387_1761" x1="217" y1="92" x2="85.1928" y2="78.969" gradientUnits="userSpaceOnUse">
<stop stop-color="#41AD3F"/>
<stop offset="0.405" stop-color="#8736B9"/>
<stop offset="0.955" stop-color="#DD1C1C"/>
</linearGradient>
<linearGradient id="paint1_linear_387_1761" x1="216" y1="253" x2="84.1928" y2="239.969" gradientUnits="userSpaceOnUse">
<stop stop-color="#41AD3F"/>
<stop offset="0.405" stop-color="#8736B9"/>
<stop offset="0.955" stop-color="#DD1C1C"/>
</linearGradient>
</defs>
</svg>
