<svg width="40" height="41" viewBox="0 0 40 41" fill="none" xmlns="http://www.w3.org/2000/svg">
<g clip-path="url(#clip0_617_1067)">
<path d="M30.625 1H9.375C4.19733 1 0 5.19733 0 10.375V31.625C0 36.8027 4.19733 41 9.375 41H30.625C35.8027 41 40 36.8027 40 31.625V10.375C40 5.19733 35.8027 1 30.625 1Z" fill="#242938" fill-opacity="0.7"/>
<path d="M6.50569 32.7233H11.4773V20.6494L4.375 15.3228V30.5927C4.375 31.7716 5.33025 32.7233 6.50569 32.7233Z" fill="#C5D9FA" fill-opacity="0.7"/>
<path d="M28.5225 32.7233H33.4942C34.6731 32.7233 35.6248 31.7681 35.6248 30.5927V15.3228L28.5225 20.6494" fill="#D5F5DE" fill-opacity="0.7"/>
<path d="M28.5225 11.4165V20.6494L35.6248 15.3228V12.4819C35.6248 9.84691 32.617 8.34477 30.5112 9.92504" fill="#FDEFC6" fill-opacity="0.7"/>
<path d="M11.4771 20.6494V11.4165L19.9998 17.8086L28.5224 11.4165V20.6494L19.9998 27.0416" fill="#FFCCC7" fill-opacity="0.7"/>
<path d="M4.375 12.4819V15.3228L11.4773 20.6494V11.4165L9.48864 9.92504C7.37927 8.34477 4.375 9.84691 4.375 12.4819Z" fill="#F9C4C3" fill-opacity="0.7"/>
</g>
<defs>
<clipPath id="clip0_617_1067">
<rect width="40" height="40" fill="white" transform="translate(0 1)"/>
</clipPath>
</defs>
</svg>
