<svg width="1440" height="1029" viewBox="0 0 1440 1029" fill="none" xmlns="http://www.w3.org/2000/svg">
<g clip-path="url(#clip0_775_946)">
<rect width="1440" height="1029" fill="url(#paint0_linear_775_946)"/>
<path d="M412 1027.64L412 -0.000366211M0.5 206L1440 206M824.5 1027.82L824.5 -0.000366211M1030 1027.88L1030 -0.000366211M1236 1027.94L1236 -0.000366211M618.5 1027.71L618.5 -0.000366211M0.5 411.5L1440 411.5M0.5 618L923.5 618H1440M0.5 823L517 823L1440 823M206.5 1027.57L206.5 -0.000366211M0.5 -12.0004L0.5 1027.57L1440 1027.57L1440 -0.000366211L0.5 -0.000366211" stroke="white" stroke-opacity="0.4" stroke-width="1.5"/>
<g clip-path="url(#clip1_775_946)">
<path d="M-706 518L720 1029L-706 1029V518Z" fill="#222124"/>
<path d="M2146 518L720 1029L2146 1029V518Z" fill="#222124"/>
</g>
</g>
<defs>
<linearGradient id="paint0_linear_775_946" x1="720" y1="0" x2="720" y2="1029" gradientUnits="userSpaceOnUse">
<stop offset="0.184012" stop-color="#079CFF"/>
<stop offset="0.543665" stop-color="#077AED"/>
<stop offset="1" stop-color="#06283B"/>
</linearGradient>
<clipPath id="clip0_775_946">
<rect width="1440" height="1029" fill="white"/>
</clipPath>
<clipPath id="clip1_775_946">
<rect width="1448" height="259" fill="white" transform="translate(-4 770)"/>
</clipPath>
</defs>
</svg>
