<svg width="1440" height="1029" viewBox="0 0 1440 1029" fill="none" xmlns="http://www.w3.org/2000/svg">
<g clip-path="url(#clip0_775_946)">
<path d="M389.268 304.346L372.246 355H360.311L382.623 295.281H390.252L389.268 304.346ZM403.5 355L386.396 304.346L385.371 295.281H393.041L415.477 355H403.5ZM402.721 332.811V341.711H370.688V332.811H402.721ZM430.365 320.096V355H419.537V310.621H429.709L430.365 320.096ZM428.643 331.211H425.443C425.471 327.984 425.908 325.059 426.756 322.434C427.604 319.809 428.793 317.553 430.324 315.666C431.883 313.779 433.729 312.33 435.861 311.318C437.994 310.307 440.373 309.801 442.998 309.801C445.131 309.801 447.059 310.102 448.781 310.703C450.504 311.305 451.98 312.262 453.211 313.574C454.469 314.887 455.426 316.609 456.082 318.742C456.766 320.848 457.107 323.445 457.107 326.535V355H446.197V326.453C446.197 324.43 445.896 322.83 445.295 321.654C444.721 320.479 443.873 319.645 442.752 319.152C441.658 318.66 440.305 318.414 438.691 318.414C437.023 318.414 435.561 318.756 434.303 319.439C433.072 320.096 432.033 321.012 431.186 322.188C430.365 323.363 429.736 324.717 429.299 326.248C428.861 327.779 428.643 329.434 428.643 331.211ZM493.283 345.566V292H504.193V355H494.35L493.283 345.566ZM464.777 333.344V332.482C464.777 329.092 465.16 326.016 465.926 323.254C466.719 320.465 467.867 318.072 469.371 316.076C470.875 314.08 472.693 312.535 474.826 311.441C476.986 310.348 479.434 309.801 482.168 309.801C484.82 309.801 487.131 310.334 489.1 311.4C491.096 312.467 492.791 313.984 494.186 315.953C495.607 317.922 496.742 320.26 497.59 322.967C498.438 325.646 499.053 328.6 499.436 331.826V334.164C499.053 337.309 498.438 340.193 497.59 342.818C496.742 345.443 495.607 347.74 494.186 349.709C492.791 351.65 491.096 353.154 489.1 354.221C487.104 355.287 484.766 355.82 482.086 355.82C479.379 355.82 476.945 355.26 474.785 354.139C472.652 353.018 470.834 351.445 469.33 349.422C467.854 347.398 466.719 345.02 465.926 342.285C465.16 339.551 464.777 336.57 464.777 333.344ZM475.646 332.482V333.344C475.646 335.258 475.811 337.049 476.139 338.717C476.467 340.385 477 341.861 477.738 343.146C478.477 344.404 479.42 345.389 480.568 346.1C481.744 346.811 483.166 347.166 484.834 347.166C486.967 347.166 488.717 346.701 490.084 345.771C491.479 344.814 492.559 343.516 493.324 341.875C494.09 340.207 494.582 338.334 494.801 336.256V329.816C494.691 328.176 494.404 326.658 493.939 325.264C493.502 323.869 492.873 322.666 492.053 321.654C491.26 320.643 490.275 319.85 489.1 319.275C487.924 318.701 486.529 318.414 484.916 318.414C483.248 318.414 481.826 318.783 480.65 319.521C479.475 320.232 478.518 321.23 477.779 322.516C477.041 323.801 476.494 325.291 476.139 326.986C475.811 328.682 475.646 330.514 475.646 332.482ZM533.93 355.82C530.566 355.82 527.545 355.273 524.865 354.18C522.186 353.086 519.902 351.568 518.016 349.627C516.156 347.658 514.721 345.375 513.709 342.777C512.725 340.152 512.232 337.336 512.232 334.328V332.688C512.232 329.27 512.725 326.166 513.709 323.377C514.693 320.561 516.088 318.141 517.893 316.117C519.697 314.094 521.857 312.535 524.373 311.441C526.889 310.348 529.664 309.801 532.699 309.801C535.844 309.801 538.619 310.334 541.025 311.4C543.432 312.439 545.441 313.916 547.055 315.83C548.668 317.744 549.885 320.041 550.705 322.721C551.525 325.373 551.936 328.312 551.936 331.539V336.092H517.154V328.627H541.271V327.807C541.217 326.084 540.889 324.512 540.287 323.09C539.686 321.641 538.756 320.492 537.498 319.645C536.24 318.77 534.613 318.332 532.617 318.332C531.004 318.332 529.596 318.688 528.393 319.398C527.217 320.082 526.232 321.066 525.439 322.352C524.674 323.609 524.1 325.113 523.717 326.863C523.334 328.613 523.143 330.555 523.143 332.688V334.328C523.143 336.188 523.389 337.91 523.881 339.496C524.4 341.082 525.152 342.463 526.137 343.639C527.148 344.787 528.352 345.689 529.746 346.346C531.168 346.975 532.781 347.289 534.586 347.289C536.855 347.289 538.906 346.852 540.738 345.977C542.598 345.074 544.211 343.748 545.578 341.998L551.033 347.658C550.104 349.025 548.846 350.338 547.26 351.596C545.701 352.854 543.814 353.879 541.6 354.672C539.385 355.438 536.828 355.82 533.93 355.82ZM570.023 319.686V355H559.195V310.621H569.449L570.023 319.686ZM583.518 310.334L583.354 320.424C582.752 320.314 582.068 320.232 581.303 320.178C580.564 320.123 579.867 320.096 579.211 320.096C577.543 320.096 576.08 320.328 574.822 320.793C573.564 321.23 572.512 321.873 571.664 322.721C570.844 323.568 570.215 324.607 569.777 325.838C569.34 327.041 569.094 328.408 569.039 329.939L566.701 329.652C566.701 326.836 566.988 324.225 567.562 321.818C568.137 319.412 568.971 317.307 570.064 315.502C571.158 313.697 572.525 312.303 574.166 311.318C575.834 310.307 577.748 309.801 579.908 309.801C580.51 309.801 581.152 309.855 581.836 309.965C582.547 310.047 583.107 310.17 583.518 310.334ZM613.869 342.859C613.869 341.93 613.623 341.096 613.131 340.357C612.639 339.619 611.709 338.949 610.342 338.348C609.002 337.719 607.033 337.131 604.436 336.584C602.139 336.092 600.02 335.477 598.078 334.738C596.137 334 594.469 333.111 593.074 332.072C591.68 331.006 590.586 329.762 589.793 328.34C589.027 326.891 588.645 325.223 588.645 323.336C588.645 321.504 589.041 319.781 589.834 318.168C590.627 316.527 591.775 315.092 593.279 313.861C594.783 312.604 596.615 311.619 598.775 310.908C600.936 310.17 603.369 309.801 606.076 309.801C609.85 309.801 613.09 310.416 615.797 311.646C618.531 312.877 620.623 314.572 622.072 316.732C623.521 318.865 624.246 321.271 624.246 323.951H613.418C613.418 322.775 613.145 321.709 612.598 320.752C612.078 319.795 611.271 319.029 610.178 318.455C609.084 317.854 607.703 317.553 606.035 317.553C604.531 317.553 603.26 317.799 602.221 318.291C601.209 318.783 600.443 319.426 599.924 320.219C599.404 321.012 599.145 321.887 599.145 322.844C599.145 323.555 599.281 324.197 599.555 324.771C599.855 325.318 600.334 325.824 600.99 326.289C601.646 326.754 602.535 327.178 603.656 327.561C604.805 327.943 606.213 328.312 607.881 328.668C611.189 329.324 614.074 330.199 616.535 331.293C619.023 332.359 620.965 333.781 622.359 335.559C623.754 337.336 624.451 339.605 624.451 342.367C624.451 344.336 624.027 346.141 623.18 347.781C622.332 349.395 621.102 350.803 619.488 352.006C617.875 353.209 615.947 354.152 613.705 354.836C611.463 355.492 608.934 355.82 606.117 355.82C602.043 355.82 598.598 355.096 595.781 353.646C592.965 352.17 590.832 350.311 589.383 348.068C587.934 345.799 587.209 343.447 587.209 341.014H597.586C597.668 342.736 598.133 344.117 598.98 345.156C599.828 346.195 600.895 346.947 602.18 347.412C603.492 347.85 604.873 348.068 606.322 348.068C607.963 348.068 609.344 347.85 610.465 347.412C611.586 346.947 612.434 346.332 613.008 345.566C613.582 344.773 613.869 343.871 613.869 342.859ZM630.768 333.262V332.4C630.768 329.146 631.232 326.152 632.162 323.418C633.092 320.656 634.445 318.264 636.223 316.24C638 314.217 640.174 312.645 642.744 311.523C645.314 310.375 648.24 309.801 651.521 309.801C654.857 309.801 657.811 310.375 660.381 311.523C662.979 312.645 665.166 314.217 666.943 316.24C668.721 318.264 670.074 320.656 671.004 323.418C671.934 326.152 672.398 329.146 672.398 332.4V333.262C672.398 336.488 671.934 339.482 671.004 342.244C670.074 344.979 668.721 347.371 666.943 349.422C665.166 351.445 662.992 353.018 660.422 354.139C657.852 355.26 654.912 355.82 651.604 355.82C648.322 355.82 645.383 355.26 642.785 354.139C640.188 353.018 638 351.445 636.223 349.422C634.445 347.371 633.092 344.979 632.162 342.244C631.232 339.482 630.768 336.488 630.768 333.262ZM641.596 332.4V333.262C641.596 335.203 641.787 337.021 642.17 338.717C642.553 340.412 643.141 341.902 643.934 343.188C644.727 344.473 645.752 345.484 647.01 346.223C648.295 346.934 649.826 347.289 651.604 347.289C653.354 347.289 654.857 346.934 656.115 346.223C657.373 345.484 658.398 344.473 659.191 343.188C660.012 341.902 660.613 340.412 660.996 338.717C661.379 337.021 661.57 335.203 661.57 333.262V332.4C661.57 330.486 661.379 328.695 660.996 327.027C660.613 325.332 660.012 323.842 659.191 322.557C658.398 321.244 657.359 320.219 656.074 319.48C654.816 318.715 653.299 318.332 651.521 318.332C649.771 318.332 648.268 318.715 647.01 319.48C645.752 320.219 644.727 321.244 643.934 322.557C643.141 323.842 642.553 325.332 642.17 327.027C641.787 328.695 641.596 330.486 641.596 332.4ZM690.896 320.096V355H680.068V310.621H690.24L690.896 320.096ZM689.174 331.211H685.975C686.002 327.984 686.439 325.059 687.287 322.434C688.135 319.809 689.324 317.553 690.855 315.666C692.414 313.779 694.26 312.33 696.393 311.318C698.525 310.307 700.904 309.801 703.529 309.801C705.662 309.801 707.59 310.102 709.312 310.703C711.035 311.305 712.512 312.262 713.742 313.574C715 314.887 715.957 316.609 716.613 318.742C717.297 320.848 717.639 323.445 717.639 326.535V355H706.729V326.453C706.729 324.43 706.428 322.83 705.826 321.654C705.252 320.479 704.404 319.645 703.283 319.152C702.189 318.66 700.836 318.414 699.223 318.414C697.555 318.414 696.092 318.756 694.834 319.439C693.604 320.096 692.564 321.012 691.717 322.188C690.896 323.363 690.268 324.717 689.83 326.248C689.393 327.779 689.174 329.434 689.174 331.211ZM783.879 335.354H795.158C794.857 339.346 793.75 342.887 791.836 345.977C789.922 349.039 787.256 351.445 783.838 353.195C780.42 354.945 776.277 355.82 771.41 355.82C767.664 355.82 764.287 355.164 761.279 353.852C758.299 352.512 755.742 350.611 753.609 348.15C751.504 345.662 749.891 342.682 748.77 339.209C747.648 335.709 747.088 331.785 747.088 327.438V322.885C747.088 318.537 747.662 314.613 748.811 311.113C749.959 307.613 751.6 304.633 753.732 302.172C755.893 299.684 758.477 297.77 761.484 296.43C764.52 295.09 767.91 294.42 771.656 294.42C776.523 294.42 780.639 295.322 784.002 297.127C787.365 298.904 789.977 301.352 791.836 304.469C793.695 307.586 794.816 311.168 795.199 315.215H783.92C783.701 312.699 783.154 310.566 782.279 308.816C781.432 307.066 780.146 305.74 778.424 304.838C776.729 303.908 774.473 303.443 771.656 303.443C769.469 303.443 767.541 303.854 765.873 304.674C764.232 305.494 762.865 306.725 761.771 308.365C760.678 309.979 759.857 312.002 759.311 314.436C758.764 316.842 758.49 319.631 758.49 322.803V327.438C758.49 330.473 758.736 333.193 759.229 335.6C759.721 338.006 760.486 340.043 761.525 341.711C762.564 343.379 763.904 344.65 765.545 345.525C767.186 346.4 769.141 346.838 771.41 346.838C774.172 346.838 776.414 346.4 778.137 345.525C779.887 344.65 781.213 343.365 782.115 341.67C783.045 339.975 783.633 337.869 783.879 335.354ZM827.52 345.566V325.1C827.52 323.596 827.26 322.297 826.74 321.203C826.221 320.109 825.428 319.262 824.361 318.66C823.295 318.059 821.941 317.758 820.301 317.758C818.852 317.758 817.58 318.004 816.486 318.496C815.42 318.988 814.6 319.686 814.025 320.588C813.451 321.463 813.164 322.475 813.164 323.623H802.295C802.295 321.791 802.732 320.055 803.607 318.414C804.482 316.746 805.727 315.27 807.34 313.984C808.98 312.672 810.936 311.646 813.205 310.908C815.502 310.17 818.072 309.801 820.916 309.801C824.279 309.801 827.273 310.375 829.898 311.523C832.551 312.645 834.629 314.34 836.133 316.609C837.664 318.879 838.43 321.736 838.43 325.182V344.541C838.43 346.756 838.566 348.656 838.84 350.242C839.141 351.801 839.578 353.154 840.152 354.303V355H829.119C828.6 353.879 828.203 352.457 827.93 350.734C827.656 348.984 827.52 347.262 827.52 345.566ZM829.037 327.971L829.119 334.41H822.27C820.574 334.41 819.084 334.588 817.799 334.943C816.514 335.271 815.461 335.764 814.641 336.42C813.82 337.049 813.205 337.814 812.795 338.717C812.385 339.592 812.18 340.59 812.18 341.711C812.18 342.805 812.426 343.789 812.918 344.664C813.438 345.539 814.176 346.236 815.133 346.756C816.117 347.248 817.266 347.494 818.578 347.494C820.492 347.494 822.16 347.111 823.582 346.346C825.004 345.553 826.111 344.596 826.904 343.475C827.697 342.354 828.121 341.287 828.176 340.275L831.293 344.951C830.91 346.072 830.336 347.262 829.57 348.52C828.805 349.777 827.82 350.953 826.617 352.047C825.414 353.141 823.965 354.043 822.27 354.754C820.574 355.465 818.605 355.82 816.363 355.82C813.492 355.82 810.922 355.246 808.652 354.098C806.383 352.949 804.592 351.377 803.279 349.381C801.967 347.385 801.311 345.115 801.311 342.572C801.311 340.221 801.748 338.143 802.623 336.338C803.498 334.533 804.797 333.016 806.52 331.785C808.242 330.527 810.375 329.584 812.918 328.955C815.488 328.299 818.428 327.971 821.736 327.971H829.037ZM859.02 319.686V355H848.191V310.621H858.445L859.02 319.686ZM872.514 310.334L872.35 320.424C871.748 320.314 871.064 320.232 870.299 320.178C869.561 320.123 868.863 320.096 868.207 320.096C866.539 320.096 865.076 320.328 863.818 320.793C862.561 321.23 861.508 321.873 860.66 322.721C859.84 323.568 859.211 324.607 858.773 325.838C858.336 327.041 858.09 328.408 858.035 329.939L855.697 329.652C855.697 326.836 855.984 324.225 856.559 321.818C857.133 319.412 857.967 317.307 859.061 315.502C860.154 313.697 861.521 312.303 863.162 311.318C864.83 310.307 866.744 309.801 868.904 309.801C869.506 309.801 870.148 309.855 870.832 309.965C871.543 310.047 872.104 310.17 872.514 310.334ZM893.924 346.797L904.26 310.621H915.58L900.363 355H893.473L893.924 346.797ZM886.377 310.621L896.836 346.879L897.205 355H890.273L875.016 310.621H886.377ZM945.07 345.566V325.1C945.07 323.596 944.811 322.297 944.291 321.203C943.771 320.109 942.979 319.262 941.912 318.66C940.846 318.059 939.492 317.758 937.852 317.758C936.402 317.758 935.131 318.004 934.037 318.496C932.971 318.988 932.15 319.686 931.576 320.588C931.002 321.463 930.715 322.475 930.715 323.623H919.846C919.846 321.791 920.283 320.055 921.158 318.414C922.033 316.746 923.277 315.27 924.891 313.984C926.531 312.672 928.486 311.646 930.756 310.908C933.053 310.17 935.623 309.801 938.467 309.801C941.83 309.801 944.824 310.375 947.449 311.523C950.102 312.645 952.18 314.34 953.684 316.609C955.215 318.879 955.98 321.736 955.98 325.182V344.541C955.98 346.756 956.117 348.656 956.391 350.242C956.691 351.801 957.129 353.154 957.703 354.303V355H946.67C946.15 353.879 945.754 352.457 945.48 350.734C945.207 348.984 945.07 347.262 945.07 345.566ZM946.588 327.971L946.67 334.41H939.82C938.125 334.41 936.635 334.588 935.35 334.943C934.064 335.271 933.012 335.764 932.191 336.42C931.371 337.049 930.756 337.814 930.346 338.717C929.936 339.592 929.73 340.59 929.73 341.711C929.73 342.805 929.977 343.789 930.469 344.664C930.988 345.539 931.727 346.236 932.684 346.756C933.668 347.248 934.816 347.494 936.129 347.494C938.043 347.494 939.711 347.111 941.133 346.346C942.555 345.553 943.662 344.596 944.455 343.475C945.248 342.354 945.672 341.287 945.727 340.275L948.844 344.951C948.461 346.072 947.887 347.262 947.121 348.52C946.355 349.777 945.371 350.953 944.168 352.047C942.965 353.141 941.516 354.043 939.82 354.754C938.125 355.465 936.156 355.82 933.914 355.82C931.043 355.82 928.473 355.246 926.203 354.098C923.934 352.949 922.143 351.377 920.83 349.381C919.518 347.385 918.861 345.115 918.861 342.572C918.861 340.221 919.299 338.143 920.174 336.338C921.049 334.533 922.348 333.016 924.07 331.785C925.793 330.527 927.926 329.584 930.469 328.955C933.039 328.299 935.979 327.971 939.287 327.971H946.588ZM977.227 292V355H966.357V292H977.227ZM998.186 292V355H987.316V292H998.186ZM996.463 331.211H993.264C993.264 328.121 993.674 325.277 994.494 322.68C995.314 320.082 996.477 317.826 997.98 315.912C999.484 313.971 1001.28 312.467 1003.35 311.4C1005.46 310.334 1007.78 309.801 1010.33 309.801C1012.51 309.801 1014.5 310.115 1016.27 310.744C1018.08 311.346 1019.62 312.316 1020.91 313.656C1022.19 314.996 1023.18 316.746 1023.86 318.906C1024.57 321.039 1024.93 323.637 1024.93 326.699V355H1014.02V326.617C1014.02 324.566 1013.72 322.953 1013.12 321.777C1012.51 320.574 1011.65 319.713 1010.53 319.193C1009.44 318.674 1008.08 318.414 1006.47 318.414C1004.72 318.414 1003.22 318.756 1001.96 319.439C1000.7 320.096 999.662 321.012 998.842 322.188C998.049 323.363 997.447 324.717 997.037 326.248C996.654 327.779 996.463 329.434 996.463 331.211ZM1032.56 333.262V332.4C1032.56 329.146 1033.02 326.152 1033.95 323.418C1034.88 320.656 1036.23 318.264 1038.01 316.24C1039.79 314.217 1041.96 312.645 1044.53 311.523C1047.1 310.375 1050.03 309.801 1053.31 309.801C1056.65 309.801 1059.6 310.375 1062.17 311.523C1064.77 312.645 1066.96 314.217 1068.73 316.24C1070.51 318.264 1071.86 320.656 1072.79 323.418C1073.72 326.152 1074.19 329.146 1074.19 332.4V333.262C1074.19 336.488 1073.72 339.482 1072.79 342.244C1071.86 344.979 1070.51 347.371 1068.73 349.422C1066.96 351.445 1064.78 353.018 1062.21 354.139C1059.64 355.26 1056.7 355.82 1053.39 355.82C1050.11 355.82 1047.17 355.26 1044.57 354.139C1041.98 353.018 1039.79 351.445 1038.01 349.422C1036.23 347.371 1034.88 344.979 1033.95 342.244C1033.02 339.482 1032.56 336.488 1032.56 333.262ZM1043.38 332.4V333.262C1043.38 335.203 1043.58 337.021 1043.96 338.717C1044.34 340.412 1044.93 341.902 1045.72 343.188C1046.52 344.473 1047.54 345.484 1048.8 346.223C1050.08 346.934 1051.62 347.289 1053.39 347.289C1055.14 347.289 1056.65 346.934 1057.9 346.223C1059.16 345.484 1060.19 344.473 1060.98 343.188C1061.8 341.902 1062.4 340.412 1062.79 338.717C1063.17 337.021 1063.36 335.203 1063.36 333.262V332.4C1063.36 330.486 1063.17 328.695 1062.79 327.027C1062.4 325.332 1061.8 323.842 1060.98 322.557C1060.19 321.244 1059.15 320.219 1057.86 319.48C1056.61 318.715 1055.09 318.332 1053.31 318.332C1051.56 318.332 1050.06 318.715 1048.8 319.48C1047.54 320.219 1046.52 321.244 1045.72 322.557C1044.93 323.842 1044.34 325.332 1043.96 327.027C1043.58 328.695 1043.38 330.486 1043.38 332.4Z" fill="white"/>
<path d="M497.895 394.266L502.975 376.406H505.436L504.012 383.35L498.545 402H496.102L497.895 394.266ZM492.639 376.406L496.682 393.914L497.895 402H495.469L489.264 376.406H492.639ZM512.01 393.896L515.965 376.406H519.357L513.17 402H510.744L512.01 393.896ZM505.805 376.406L510.744 394.266L512.537 402H510.094L504.82 383.35L503.379 376.406H505.805ZM529.957 402.352C528.633 402.352 527.432 402.129 526.354 401.684C525.287 401.227 524.367 400.588 523.594 399.768C522.832 398.947 522.246 397.975 521.836 396.85C521.426 395.725 521.221 394.494 521.221 393.158V392.42C521.221 390.873 521.449 389.496 521.906 388.289C522.363 387.07 522.984 386.039 523.77 385.195C524.555 384.352 525.445 383.713 526.441 383.279C527.438 382.846 528.469 382.629 529.535 382.629C530.895 382.629 532.066 382.863 533.051 383.332C534.047 383.801 534.861 384.457 535.494 385.301C536.127 386.133 536.596 387.117 536.9 388.254C537.205 389.379 537.357 390.609 537.357 391.945V393.404H523.154V390.75H534.105V390.504C534.059 389.66 533.883 388.84 533.578 388.043C533.285 387.246 532.816 386.59 532.172 386.074C531.527 385.559 530.648 385.301 529.535 385.301C528.797 385.301 528.117 385.459 527.496 385.775C526.875 386.08 526.342 386.537 525.896 387.146C525.451 387.756 525.105 388.5 524.859 389.379C524.613 390.258 524.49 391.271 524.49 392.42V393.158C524.49 394.061 524.613 394.91 524.859 395.707C525.117 396.492 525.486 397.184 525.967 397.781C526.459 398.379 527.051 398.848 527.742 399.188C528.445 399.527 529.242 399.697 530.133 399.697C531.281 399.697 532.254 399.463 533.051 398.994C533.848 398.525 534.545 397.898 535.143 397.113L537.111 398.678C536.701 399.299 536.18 399.891 535.547 400.453C534.914 401.016 534.135 401.473 533.209 401.824C532.295 402.176 531.211 402.352 529.957 402.352ZM541.137 375H544.406V398.309L544.125 402H541.137V375ZM557.256 392.332V392.701C557.256 394.084 557.092 395.367 556.764 396.551C556.436 397.723 555.955 398.742 555.322 399.609C554.689 400.477 553.916 401.15 553.002 401.631C552.088 402.111 551.039 402.352 549.855 402.352C548.648 402.352 547.588 402.146 546.674 401.736C545.771 401.314 545.01 400.711 544.389 399.926C543.768 399.141 543.27 398.191 542.895 397.078C542.531 395.965 542.279 394.711 542.139 393.316V391.699C542.279 390.293 542.531 389.033 542.895 387.92C543.27 386.807 543.768 385.857 544.389 385.072C545.01 384.275 545.771 383.672 546.674 383.262C547.576 382.84 548.625 382.629 549.82 382.629C551.016 382.629 552.076 382.863 553.002 383.332C553.928 383.789 554.701 384.445 555.322 385.301C555.955 386.156 556.436 387.182 556.764 388.377C557.092 389.561 557.256 390.879 557.256 392.332ZM553.986 392.701V392.332C553.986 391.383 553.898 390.492 553.723 389.66C553.547 388.816 553.266 388.078 552.879 387.445C552.492 386.801 551.982 386.297 551.35 385.934C550.717 385.559 549.938 385.371 549.012 385.371C548.191 385.371 547.477 385.512 546.867 385.793C546.27 386.074 545.76 386.455 545.338 386.936C544.916 387.404 544.57 387.943 544.301 388.553C544.043 389.15 543.85 389.771 543.721 390.416V394.652C543.908 395.473 544.213 396.264 544.635 397.025C545.068 397.775 545.643 398.391 546.357 398.871C547.084 399.352 547.98 399.592 549.047 399.592C549.926 399.592 550.676 399.416 551.297 399.064C551.93 398.701 552.439 398.203 552.826 397.57C553.225 396.938 553.518 396.205 553.705 395.373C553.893 394.541 553.986 393.65 553.986 392.701ZM581.514 398.748V388.957C581.514 388.207 581.361 387.557 581.057 387.006C580.764 386.443 580.318 386.01 579.721 385.705C579.123 385.4 578.385 385.248 577.506 385.248C576.686 385.248 575.965 385.389 575.344 385.67C574.734 385.951 574.254 386.32 573.902 386.777C573.562 387.234 573.393 387.727 573.393 388.254H570.141C570.141 387.574 570.316 386.9 570.668 386.232C571.02 385.564 571.523 384.961 572.18 384.422C572.848 383.871 573.645 383.438 574.57 383.121C575.508 382.793 576.551 382.629 577.699 382.629C579.082 382.629 580.301 382.863 581.355 383.332C582.422 383.801 583.254 384.51 583.852 385.459C584.461 386.396 584.766 387.574 584.766 388.992V397.852C584.766 398.484 584.818 399.158 584.924 399.873C585.041 400.588 585.211 401.203 585.434 401.719V402H582.041C581.877 401.625 581.748 401.127 581.654 400.506C581.561 399.873 581.514 399.287 581.514 398.748ZM582.076 390.469L582.111 392.754H578.824C577.898 392.754 577.072 392.83 576.346 392.982C575.619 393.123 575.01 393.34 574.518 393.633C574.025 393.926 573.65 394.295 573.393 394.74C573.135 395.174 573.006 395.684 573.006 396.27C573.006 396.867 573.141 397.412 573.41 397.904C573.68 398.396 574.084 398.789 574.623 399.082C575.174 399.363 575.848 399.504 576.645 399.504C577.641 399.504 578.52 399.293 579.281 398.871C580.043 398.449 580.646 397.934 581.092 397.324C581.549 396.715 581.795 396.123 581.83 395.549L583.219 397.113C583.137 397.605 582.914 398.15 582.551 398.748C582.188 399.346 581.701 399.92 581.092 400.471C580.494 401.01 579.779 401.461 578.947 401.824C578.127 402.176 577.201 402.352 576.17 402.352C574.881 402.352 573.75 402.1 572.777 401.596C571.816 401.092 571.066 400.418 570.527 399.574C570 398.719 569.736 397.764 569.736 396.709C569.736 395.689 569.936 394.793 570.334 394.02C570.732 393.234 571.307 392.584 572.057 392.068C572.807 391.541 573.709 391.143 574.764 390.873C575.818 390.604 576.996 390.469 578.297 390.469H582.076ZM593.133 387.041V402H589.881V382.98H592.957L593.133 387.041ZM592.359 391.77L591.006 391.717C591.018 390.416 591.211 389.215 591.586 388.113C591.961 387 592.488 386.033 593.168 385.213C593.848 384.393 594.656 383.76 595.594 383.314C596.543 382.857 597.592 382.629 598.74 382.629C599.678 382.629 600.521 382.758 601.271 383.016C602.021 383.262 602.66 383.66 603.188 384.211C603.727 384.762 604.137 385.477 604.418 386.355C604.699 387.223 604.84 388.283 604.84 389.537V402H601.57V389.502C601.57 388.506 601.424 387.709 601.131 387.111C600.838 386.502 600.41 386.062 599.848 385.793C599.285 385.512 598.594 385.371 597.773 385.371C596.965 385.371 596.227 385.541 595.559 385.881C594.902 386.221 594.334 386.689 593.854 387.287C593.385 387.885 593.016 388.57 592.746 389.344C592.488 390.105 592.359 390.914 592.359 391.77ZM621.768 398.309V375H625.037V402H622.049L621.768 398.309ZM608.971 392.701V392.332C608.971 390.879 609.146 389.561 609.498 388.377C609.861 387.182 610.371 386.156 611.027 385.301C611.695 384.445 612.486 383.789 613.4 383.332C614.326 382.863 615.357 382.629 616.494 382.629C617.689 382.629 618.732 382.84 619.623 383.262C620.525 383.672 621.287 384.275 621.908 385.072C622.541 385.857 623.039 386.807 623.402 387.92C623.766 389.033 624.018 390.293 624.158 391.699V393.316C624.029 394.711 623.777 395.965 623.402 397.078C623.039 398.191 622.541 399.141 621.908 399.926C621.287 400.711 620.525 401.314 619.623 401.736C618.721 402.146 617.666 402.352 616.459 402.352C615.346 402.352 614.326 402.111 613.4 401.631C612.486 401.15 611.695 400.477 611.027 399.609C610.371 398.742 609.861 397.723 609.498 396.551C609.146 395.367 608.971 394.084 608.971 392.701ZM612.24 392.332V392.701C612.24 393.65 612.334 394.541 612.521 395.373C612.721 396.205 613.025 396.938 613.436 397.57C613.846 398.203 614.367 398.701 615 399.064C615.633 399.416 616.389 399.592 617.268 399.592C618.346 399.592 619.23 399.363 619.922 398.906C620.625 398.449 621.188 397.846 621.609 397.096C622.031 396.346 622.359 395.531 622.594 394.652V390.416C622.453 389.771 622.248 389.15 621.979 388.553C621.721 387.943 621.381 387.404 620.959 386.936C620.549 386.455 620.039 386.074 619.43 385.793C618.832 385.512 618.123 385.371 617.303 385.371C616.412 385.371 615.645 385.559 615 385.934C614.367 386.297 613.846 386.801 613.436 387.445C613.025 388.078 612.721 388.816 612.521 389.66C612.334 390.492 612.24 391.383 612.24 392.332ZM653.162 395.531C653.162 394.934 653.068 394.406 652.881 393.949C652.705 393.48 652.389 393.059 651.932 392.684C651.486 392.309 650.865 391.951 650.068 391.611C649.283 391.271 648.287 390.926 647.08 390.574C645.814 390.199 644.672 389.783 643.652 389.326C642.633 388.857 641.76 388.324 641.033 387.727C640.307 387.129 639.75 386.443 639.363 385.67C638.977 384.896 638.783 384.012 638.783 383.016C638.783 382.02 638.988 381.1 639.398 380.256C639.809 379.412 640.395 378.68 641.156 378.059C641.93 377.426 642.85 376.934 643.916 376.582C644.982 376.23 646.172 376.055 647.484 376.055C649.406 376.055 651.035 376.424 652.371 377.162C653.719 377.889 654.744 378.844 655.447 380.027C656.15 381.199 656.502 382.453 656.502 383.789H653.127C653.127 382.828 652.922 381.979 652.512 381.24C652.102 380.49 651.48 379.904 650.648 379.482C649.816 379.049 648.762 378.832 647.484 378.832C646.277 378.832 645.281 379.014 644.496 379.377C643.711 379.74 643.125 380.232 642.738 380.854C642.363 381.475 642.176 382.184 642.176 382.98C642.176 383.52 642.287 384.012 642.51 384.457C642.744 384.891 643.102 385.295 643.582 385.67C644.074 386.045 644.695 386.391 645.445 386.707C646.207 387.023 647.115 387.328 648.17 387.621C649.623 388.031 650.877 388.488 651.932 388.992C652.986 389.496 653.854 390.064 654.533 390.697C655.225 391.318 655.734 392.027 656.062 392.824C656.402 393.609 656.572 394.5 656.572 395.496C656.572 396.539 656.361 397.482 655.939 398.326C655.518 399.17 654.914 399.891 654.129 400.488C653.344 401.086 652.4 401.549 651.299 401.877C650.209 402.193 648.99 402.352 647.643 402.352C646.459 402.352 645.293 402.188 644.145 401.859C643.008 401.531 641.971 401.039 641.033 400.383C640.107 399.727 639.363 398.918 638.801 397.957C638.25 396.984 637.975 395.859 637.975 394.582H641.35C641.35 395.461 641.52 396.217 641.859 396.85C642.199 397.471 642.662 397.986 643.248 398.396C643.846 398.807 644.52 399.111 645.27 399.311C646.031 399.498 646.822 399.592 647.643 399.592C648.826 399.592 649.828 399.428 650.648 399.1C651.469 398.771 652.09 398.303 652.512 397.693C652.945 397.084 653.162 396.363 653.162 395.531ZM659.543 392.701V392.297C659.543 390.926 659.742 389.654 660.141 388.482C660.539 387.299 661.113 386.273 661.863 385.406C662.613 384.527 663.521 383.848 664.588 383.367C665.654 382.875 666.85 382.629 668.174 382.629C669.51 382.629 670.711 382.875 671.777 383.367C672.855 383.848 673.77 384.527 674.52 385.406C675.281 386.273 675.861 387.299 676.26 388.482C676.658 389.654 676.857 390.926 676.857 392.297V392.701C676.857 394.072 676.658 395.344 676.26 396.516C675.861 397.688 675.281 398.713 674.52 399.592C673.77 400.459 672.861 401.139 671.795 401.631C670.74 402.111 669.545 402.352 668.209 402.352C666.873 402.352 665.672 402.111 664.605 401.631C663.539 401.139 662.625 400.459 661.863 399.592C661.113 398.713 660.539 397.688 660.141 396.516C659.742 395.344 659.543 394.072 659.543 392.701ZM662.795 392.297V392.701C662.795 393.65 662.906 394.547 663.129 395.391C663.352 396.223 663.686 396.961 664.131 397.605C664.588 398.25 665.156 398.76 665.836 399.135C666.516 399.498 667.307 399.68 668.209 399.68C669.1 399.68 669.879 399.498 670.547 399.135C671.227 398.76 671.789 398.25 672.234 397.605C672.68 396.961 673.014 396.223 673.236 395.391C673.471 394.547 673.588 393.65 673.588 392.701V392.297C673.588 391.359 673.471 390.475 673.236 389.643C673.014 388.799 672.674 388.055 672.217 387.41C671.771 386.754 671.209 386.238 670.529 385.863C669.861 385.488 669.076 385.301 668.174 385.301C667.283 385.301 666.498 385.488 665.818 385.863C665.15 386.238 664.588 386.754 664.131 387.41C663.686 388.055 663.352 388.799 663.129 389.643C662.906 390.475 662.795 391.359 662.795 392.297ZM685.787 402H682.535V380.977C682.535 379.605 682.781 378.451 683.273 377.514C683.777 376.564 684.498 375.85 685.436 375.369C686.373 374.877 687.486 374.631 688.775 374.631C689.15 374.631 689.525 374.654 689.9 374.701C690.287 374.748 690.662 374.818 691.025 374.912L690.85 377.566C690.604 377.508 690.322 377.467 690.006 377.443C689.701 377.42 689.396 377.408 689.092 377.408C688.4 377.408 687.803 377.549 687.299 377.83C686.807 378.1 686.432 378.498 686.174 379.025C685.916 379.553 685.787 380.203 685.787 380.977V402ZM689.83 382.98V385.477H679.529V382.98H689.83ZM701.414 382.98V385.477H691.131V382.98H701.414ZM694.611 378.357H697.863V397.289C697.863 397.934 697.963 398.42 698.162 398.748C698.361 399.076 698.619 399.293 698.936 399.398C699.252 399.504 699.592 399.557 699.955 399.557C700.225 399.557 700.506 399.533 700.799 399.486C701.104 399.428 701.332 399.381 701.484 399.346L701.502 402C701.244 402.082 700.904 402.158 700.482 402.229C700.072 402.311 699.574 402.352 698.988 402.352C698.191 402.352 697.459 402.193 696.791 401.877C696.123 401.561 695.59 401.033 695.191 400.295C694.805 399.545 694.611 398.537 694.611 397.271V378.357ZM710.045 398.625L714.932 382.98H717.076L716.654 386.092L711.68 402H709.588L710.045 398.625ZM706.758 382.98L710.924 398.801L711.223 402H709.025L703.506 382.98H706.758ZM721.752 398.678L725.725 382.98H728.959L723.439 402H721.26L721.752 398.678ZM717.551 382.98L722.332 398.361L722.877 402H720.803L715.688 386.057L715.266 382.98H717.551ZM743.514 398.748V388.957C743.514 388.207 743.361 387.557 743.057 387.006C742.764 386.443 742.318 386.01 741.721 385.705C741.123 385.4 740.385 385.248 739.506 385.248C738.686 385.248 737.965 385.389 737.344 385.67C736.734 385.951 736.254 386.32 735.902 386.777C735.562 387.234 735.393 387.727 735.393 388.254H732.141C732.141 387.574 732.316 386.9 732.668 386.232C733.02 385.564 733.523 384.961 734.18 384.422C734.848 383.871 735.645 383.438 736.57 383.121C737.508 382.793 738.551 382.629 739.699 382.629C741.082 382.629 742.301 382.863 743.355 383.332C744.422 383.801 745.254 384.51 745.852 385.459C746.461 386.396 746.766 387.574 746.766 388.992V397.852C746.766 398.484 746.818 399.158 746.924 399.873C747.041 400.588 747.211 401.203 747.434 401.719V402H744.041C743.877 401.625 743.748 401.127 743.654 400.506C743.561 399.873 743.514 399.287 743.514 398.748ZM744.076 390.469L744.111 392.754H740.824C739.898 392.754 739.072 392.83 738.346 392.982C737.619 393.123 737.01 393.34 736.518 393.633C736.025 393.926 735.65 394.295 735.393 394.74C735.135 395.174 735.006 395.684 735.006 396.27C735.006 396.867 735.141 397.412 735.41 397.904C735.68 398.396 736.084 398.789 736.623 399.082C737.174 399.363 737.848 399.504 738.645 399.504C739.641 399.504 740.52 399.293 741.281 398.871C742.043 398.449 742.646 397.934 743.092 397.324C743.549 396.715 743.795 396.123 743.83 395.549L745.219 397.113C745.137 397.605 744.914 398.15 744.551 398.748C744.188 399.346 743.701 399.92 743.092 400.471C742.494 401.01 741.779 401.461 740.947 401.824C740.127 402.176 739.201 402.352 738.17 402.352C736.881 402.352 735.75 402.1 734.777 401.596C733.816 401.092 733.066 400.418 732.527 399.574C732 398.719 731.736 397.764 731.736 396.709C731.736 395.689 731.936 394.793 732.334 394.02C732.732 393.234 733.307 392.584 734.057 392.068C734.807 391.541 735.709 391.143 736.764 390.873C737.818 390.604 738.996 390.469 740.297 390.469H744.076ZM755.133 385.969V402H751.881V382.98H755.045L755.133 385.969ZM761.074 382.875L761.057 385.898C760.787 385.84 760.529 385.805 760.283 385.793C760.049 385.77 759.779 385.758 759.475 385.758C758.725 385.758 758.062 385.875 757.488 386.109C756.914 386.344 756.428 386.672 756.029 387.094C755.631 387.516 755.314 388.02 755.08 388.605C754.857 389.18 754.711 389.812 754.641 390.504L753.727 391.031C753.727 389.883 753.838 388.805 754.061 387.797C754.295 386.789 754.652 385.898 755.133 385.125C755.613 384.34 756.223 383.73 756.961 383.297C757.711 382.852 758.602 382.629 759.633 382.629C759.867 382.629 760.137 382.658 760.441 382.717C760.746 382.764 760.957 382.816 761.074 382.875ZM771.621 402.352C770.297 402.352 769.096 402.129 768.018 401.684C766.951 401.227 766.031 400.588 765.258 399.768C764.496 398.947 763.91 397.975 763.5 396.85C763.09 395.725 762.885 394.494 762.885 393.158V392.42C762.885 390.873 763.113 389.496 763.57 388.289C764.027 387.07 764.648 386.039 765.434 385.195C766.219 384.352 767.109 383.713 768.105 383.279C769.102 382.846 770.133 382.629 771.199 382.629C772.559 382.629 773.73 382.863 774.715 383.332C775.711 383.801 776.525 384.457 777.158 385.301C777.791 386.133 778.26 387.117 778.564 388.254C778.869 389.379 779.021 390.609 779.021 391.945V393.404H764.818V390.75H775.77V390.504C775.723 389.66 775.547 388.84 775.242 388.043C774.949 387.246 774.48 386.59 773.836 386.074C773.191 385.559 772.312 385.301 771.199 385.301C770.461 385.301 769.781 385.459 769.16 385.775C768.539 386.08 768.006 386.537 767.561 387.146C767.115 387.756 766.77 388.5 766.523 389.379C766.277 390.258 766.154 391.271 766.154 392.42V393.158C766.154 394.061 766.277 394.91 766.523 395.707C766.781 396.492 767.15 397.184 767.631 397.781C768.123 398.379 768.715 398.848 769.406 399.188C770.109 399.527 770.906 399.697 771.797 399.697C772.945 399.697 773.918 399.463 774.715 398.994C775.512 398.525 776.209 397.898 776.807 397.113L778.775 398.678C778.365 399.299 777.844 399.891 777.211 400.453C776.578 401.016 775.799 401.473 774.873 401.824C773.959 402.176 772.875 402.352 771.621 402.352ZM799.166 402H793.822L793.857 399.24H799.166C800.994 399.24 802.518 398.859 803.736 398.098C804.955 397.324 805.869 396.246 806.479 394.863C807.1 393.469 807.41 391.84 807.41 389.977V388.412C807.41 386.947 807.234 385.646 806.883 384.51C806.531 383.361 806.016 382.395 805.336 381.609C804.656 380.812 803.824 380.209 802.84 379.799C801.867 379.389 800.748 379.184 799.482 379.184H793.717V376.406H799.482C801.158 376.406 802.688 376.688 804.07 377.25C805.453 377.801 806.643 378.604 807.639 379.658C808.646 380.701 809.42 381.967 809.959 383.455C810.498 384.932 810.768 386.596 810.768 388.447V389.977C810.768 391.828 810.498 393.498 809.959 394.986C809.42 396.463 808.641 397.723 807.621 398.766C806.613 399.809 805.395 400.611 803.965 401.174C802.547 401.725 800.947 402 799.166 402ZM795.633 376.406V402H792.24V376.406H795.633ZM823.266 402.352C821.941 402.352 820.74 402.129 819.662 401.684C818.596 401.227 817.676 400.588 816.902 399.768C816.141 398.947 815.555 397.975 815.145 396.85C814.734 395.725 814.529 394.494 814.529 393.158V392.42C814.529 390.873 814.758 389.496 815.215 388.289C815.672 387.07 816.293 386.039 817.078 385.195C817.863 384.352 818.754 383.713 819.75 383.279C820.746 382.846 821.777 382.629 822.844 382.629C824.203 382.629 825.375 382.863 826.359 383.332C827.355 383.801 828.17 384.457 828.803 385.301C829.436 386.133 829.904 387.117 830.209 388.254C830.514 389.379 830.666 390.609 830.666 391.945V393.404H816.463V390.75H827.414V390.504C827.367 389.66 827.191 388.84 826.887 388.043C826.594 387.246 826.125 386.59 825.48 386.074C824.836 385.559 823.957 385.301 822.844 385.301C822.105 385.301 821.426 385.459 820.805 385.775C820.184 386.08 819.65 386.537 819.205 387.146C818.76 387.756 818.414 388.5 818.168 389.379C817.922 390.258 817.799 391.271 817.799 392.42V393.158C817.799 394.061 817.922 394.91 818.168 395.707C818.426 396.492 818.795 397.184 819.275 397.781C819.768 398.379 820.359 398.848 821.051 399.188C821.754 399.527 822.551 399.697 823.441 399.697C824.59 399.697 825.562 399.463 826.359 398.994C827.156 398.525 827.854 397.898 828.451 397.113L830.42 398.678C830.01 399.299 829.488 399.891 828.855 400.453C828.223 401.016 827.443 401.473 826.518 401.824C825.604 402.176 824.52 402.352 823.266 402.352ZM840 399.064L845.203 382.98H848.525L841.688 402H839.508L840 399.064ZM835.658 382.98L841.02 399.152L841.389 402H839.209L832.318 382.98H835.658ZM859.301 402.352C857.977 402.352 856.775 402.129 855.697 401.684C854.631 401.227 853.711 400.588 852.938 399.768C852.176 398.947 851.59 397.975 851.18 396.85C850.77 395.725 850.564 394.494 850.564 393.158V392.42C850.564 390.873 850.793 389.496 851.25 388.289C851.707 387.07 852.328 386.039 853.113 385.195C853.898 384.352 854.789 383.713 855.785 383.279C856.781 382.846 857.812 382.629 858.879 382.629C860.238 382.629 861.41 382.863 862.395 383.332C863.391 383.801 864.205 384.457 864.838 385.301C865.471 386.133 865.939 387.117 866.244 388.254C866.549 389.379 866.701 390.609 866.701 391.945V393.404H852.498V390.75H863.449V390.504C863.402 389.66 863.227 388.84 862.922 388.043C862.629 387.246 862.16 386.59 861.516 386.074C860.871 385.559 859.992 385.301 858.879 385.301C858.141 385.301 857.461 385.459 856.84 385.775C856.219 386.08 855.686 386.537 855.24 387.146C854.795 387.756 854.449 388.5 854.203 389.379C853.957 390.258 853.834 391.271 853.834 392.42V393.158C853.834 394.061 853.957 394.91 854.203 395.707C854.461 396.492 854.83 397.184 855.311 397.781C855.803 398.379 856.395 398.848 857.086 399.188C857.789 399.527 858.586 399.697 859.477 399.697C860.625 399.697 861.598 399.463 862.395 398.994C863.191 398.525 863.889 397.898 864.486 397.113L866.455 398.678C866.045 399.299 865.523 399.891 864.891 400.453C864.258 401.016 863.479 401.473 862.553 401.824C861.639 402.176 860.555 402.352 859.301 402.352ZM874.031 375V402H870.762V375H874.031ZM878.391 392.701V392.297C878.391 390.926 878.59 389.654 878.988 388.482C879.387 387.299 879.961 386.273 880.711 385.406C881.461 384.527 882.369 383.848 883.436 383.367C884.502 382.875 885.697 382.629 887.021 382.629C888.357 382.629 889.559 382.875 890.625 383.367C891.703 383.848 892.617 384.527 893.367 385.406C894.129 386.273 894.709 387.299 895.107 388.482C895.506 389.654 895.705 390.926 895.705 392.297V392.701C895.705 394.072 895.506 395.344 895.107 396.516C894.709 397.688 894.129 398.713 893.367 399.592C892.617 400.459 891.709 401.139 890.643 401.631C889.588 402.111 888.393 402.352 887.057 402.352C885.721 402.352 884.52 402.111 883.453 401.631C882.387 401.139 881.473 400.459 880.711 399.592C879.961 398.713 879.387 397.688 878.988 396.516C878.59 395.344 878.391 394.072 878.391 392.701ZM881.643 392.297V392.701C881.643 393.65 881.754 394.547 881.977 395.391C882.199 396.223 882.533 396.961 882.979 397.605C883.436 398.25 884.004 398.76 884.684 399.135C885.363 399.498 886.154 399.68 887.057 399.68C887.947 399.68 888.727 399.498 889.395 399.135C890.074 398.76 890.637 398.25 891.082 397.605C891.527 396.961 891.861 396.223 892.084 395.391C892.318 394.547 892.436 393.65 892.436 392.701V392.297C892.436 391.359 892.318 390.475 892.084 389.643C891.861 388.799 891.521 388.055 891.064 387.41C890.619 386.754 890.057 386.238 889.377 385.863C888.709 385.488 887.924 385.301 887.021 385.301C886.131 385.301 885.346 385.488 884.666 385.863C883.998 386.238 883.436 386.754 882.979 387.41C882.533 388.055 882.199 388.799 881.977 389.643C881.754 390.475 881.643 391.359 881.643 392.297ZM903.035 386.637V409.312H899.766V382.98H902.754L903.035 386.637ZM915.85 392.332V392.701C915.85 394.084 915.686 395.367 915.357 396.551C915.029 397.723 914.549 398.742 913.916 399.609C913.295 400.477 912.527 401.15 911.613 401.631C910.699 402.111 909.65 402.352 908.467 402.352C907.26 402.352 906.193 402.152 905.268 401.754C904.342 401.355 903.557 400.775 902.912 400.014C902.268 399.252 901.752 398.338 901.365 397.271C900.99 396.205 900.732 395.004 900.592 393.668V391.699C900.732 390.293 900.996 389.033 901.383 387.92C901.77 386.807 902.279 385.857 902.912 385.072C903.557 384.275 904.336 383.672 905.25 383.262C906.164 382.84 907.219 382.629 908.414 382.629C909.609 382.629 910.67 382.863 911.596 383.332C912.521 383.789 913.301 384.445 913.934 385.301C914.566 386.156 915.041 387.182 915.357 388.377C915.686 389.561 915.85 390.879 915.85 392.332ZM912.58 392.701V392.332C912.58 391.383 912.48 390.492 912.281 389.66C912.082 388.816 911.771 388.078 911.35 387.445C910.939 386.801 910.412 386.297 909.768 385.934C909.123 385.559 908.355 385.371 907.465 385.371C906.645 385.371 905.93 385.512 905.32 385.793C904.723 386.074 904.213 386.455 903.791 386.936C903.369 387.404 903.023 387.943 902.754 388.553C902.496 389.15 902.303 389.771 902.174 390.416V394.969C902.408 395.789 902.736 396.562 903.158 397.289C903.58 398.004 904.143 398.584 904.846 399.029C905.549 399.463 906.434 399.68 907.5 399.68C908.379 399.68 909.135 399.498 909.768 399.135C910.412 398.76 910.939 398.25 911.35 397.605C911.771 396.961 912.082 396.223 912.281 395.391C912.48 394.547 912.58 393.65 912.58 392.701ZM927.891 402.352C926.566 402.352 925.365 402.129 924.287 401.684C923.221 401.227 922.301 400.588 921.527 399.768C920.766 398.947 920.18 397.975 919.77 396.85C919.359 395.725 919.154 394.494 919.154 393.158V392.42C919.154 390.873 919.383 389.496 919.84 388.289C920.297 387.07 920.918 386.039 921.703 385.195C922.488 384.352 923.379 383.713 924.375 383.279C925.371 382.846 926.402 382.629 927.469 382.629C928.828 382.629 930 382.863 930.984 383.332C931.98 383.801 932.795 384.457 933.428 385.301C934.061 386.133 934.529 387.117 934.834 388.254C935.139 389.379 935.291 390.609 935.291 391.945V393.404H921.088V390.75H932.039V390.504C931.992 389.66 931.816 388.84 931.512 388.043C931.219 387.246 930.75 386.59 930.105 386.074C929.461 385.559 928.582 385.301 927.469 385.301C926.73 385.301 926.051 385.459 925.43 385.775C924.809 386.08 924.275 386.537 923.83 387.146C923.385 387.756 923.039 388.5 922.793 389.379C922.547 390.258 922.424 391.271 922.424 392.42V393.158C922.424 394.061 922.547 394.91 922.793 395.707C923.051 396.492 923.42 397.184 923.9 397.781C924.393 398.379 924.984 398.848 925.676 399.188C926.379 399.527 927.176 399.697 928.066 399.697C929.215 399.697 930.188 399.463 930.984 398.994C931.781 398.525 932.479 397.898 933.076 397.113L935.045 398.678C934.635 399.299 934.113 399.891 933.48 400.453C932.848 401.016 932.068 401.473 931.143 401.824C930.229 402.176 929.145 402.352 927.891 402.352ZM942.34 385.969V402H939.088V382.98H942.252L942.34 385.969ZM948.281 382.875L948.264 385.898C947.994 385.84 947.736 385.805 947.49 385.793C947.256 385.77 946.986 385.758 946.682 385.758C945.932 385.758 945.27 385.875 944.695 386.109C944.121 386.344 943.635 386.672 943.236 387.094C942.838 387.516 942.521 388.02 942.287 388.605C942.064 389.18 941.918 389.812 941.848 390.504L940.934 391.031C940.934 389.883 941.045 388.805 941.268 387.797C941.502 386.789 941.859 385.898 942.34 385.125C942.82 384.34 943.43 383.73 944.168 383.297C944.918 382.852 945.809 382.629 946.84 382.629C947.074 382.629 947.344 382.658 947.648 382.717C947.953 382.764 948.164 382.816 948.281 382.875Z" fill="white"/>
<path d="M547.624 730.584V757H543.083V730.584H547.624ZM542.741 723.577C542.741 722.845 542.961 722.226 543.4 721.722C543.856 721.217 544.523 720.965 545.402 720.965C546.265 720.965 546.924 721.217 547.38 721.722C547.852 722.226 548.088 722.845 548.088 723.577C548.088 724.277 547.852 724.879 547.38 725.384C546.924 725.872 546.265 726.116 545.402 726.116C544.523 726.116 543.856 725.872 543.4 725.384C542.961 724.879 542.741 724.277 542.741 723.577ZM559.392 736.224V757H554.875V730.584H559.147L559.392 736.224ZM558.317 742.791L556.438 742.718C556.454 740.911 556.722 739.243 557.243 737.713C557.764 736.167 558.496 734.824 559.44 733.685C560.384 732.545 561.507 731.666 562.81 731.048C564.128 730.413 565.585 730.096 567.18 730.096C568.482 730.096 569.654 730.275 570.695 730.633C571.737 730.975 572.624 731.528 573.356 732.293C574.105 733.058 574.675 734.051 575.065 735.271C575.456 736.476 575.651 737.949 575.651 739.69V757H571.11V739.642C571.11 738.258 570.907 737.151 570.5 736.321C570.093 735.475 569.499 734.865 568.718 734.49C567.937 734.1 566.976 733.904 565.837 733.904C564.714 733.904 563.688 734.14 562.761 734.612C561.849 735.084 561.06 735.735 560.393 736.565C559.742 737.396 559.229 738.348 558.854 739.422C558.496 740.48 558.317 741.603 558.317 742.791ZM593.571 730.584V734.051H579.289V730.584H593.571ZM584.123 724.163H588.64V750.457C588.64 751.352 588.778 752.028 589.055 752.483C589.331 752.939 589.689 753.24 590.129 753.387C590.568 753.533 591.04 753.606 591.545 753.606C591.919 753.606 592.31 753.574 592.717 753.509C593.14 753.427 593.457 753.362 593.669 753.313L593.693 757C593.335 757.114 592.863 757.22 592.277 757.317C591.708 757.431 591.016 757.488 590.202 757.488C589.095 757.488 588.078 757.269 587.15 756.829C586.223 756.39 585.482 755.657 584.929 754.632C584.392 753.59 584.123 752.19 584.123 750.433V724.163ZM597.185 744.085V743.523C597.185 741.619 597.461 739.853 598.015 738.226C598.568 736.582 599.366 735.158 600.407 733.953C601.449 732.732 602.71 731.788 604.191 731.121C605.673 730.438 607.333 730.096 609.172 730.096C611.027 730.096 612.696 730.438 614.177 731.121C615.674 731.788 616.944 732.732 617.985 733.953C619.043 735.158 619.849 736.582 620.402 738.226C620.956 739.853 621.232 741.619 621.232 743.523V744.085C621.232 745.989 620.956 747.755 620.402 749.383C619.849 751.01 619.043 752.435 617.985 753.655C616.944 754.86 615.682 755.804 614.201 756.487C612.736 757.155 611.076 757.488 609.221 757.488C607.365 757.488 605.697 757.155 604.216 756.487C602.735 755.804 601.465 754.86 600.407 753.655C599.366 752.435 598.568 751.01 598.015 749.383C597.461 747.755 597.185 745.989 597.185 744.085ZM601.701 743.523V744.085C601.701 745.403 601.856 746.648 602.165 747.82C602.474 748.976 602.938 750.001 603.557 750.896C604.191 751.792 604.981 752.5 605.925 753.021C606.869 753.525 607.967 753.777 609.221 753.777C610.458 753.777 611.54 753.525 612.468 753.021C613.412 752.5 614.193 751.792 614.812 750.896C615.43 750.001 615.894 748.976 616.203 747.82C616.529 746.648 616.691 745.403 616.691 744.085V743.523C616.691 742.221 616.529 740.993 616.203 739.837C615.894 738.665 615.422 737.632 614.787 736.736C614.169 735.825 613.387 735.109 612.443 734.588C611.516 734.067 610.425 733.807 609.172 733.807C607.935 733.807 606.844 734.067 605.9 734.588C604.973 735.109 604.191 735.825 603.557 736.736C602.938 737.632 602.474 738.665 602.165 739.837C601.856 740.993 601.701 742.221 601.701 743.523ZM643.864 735.662V767.156H639.323V730.584H643.474L643.864 735.662ZM661.662 743.572V744.085C661.662 746.006 661.434 747.788 660.979 749.432C660.523 751.059 659.855 752.475 658.977 753.68C658.114 754.884 657.048 755.82 655.778 756.487C654.509 757.155 653.052 757.488 651.408 757.488C649.732 757.488 648.251 757.212 646.965 756.658C645.679 756.105 644.589 755.299 643.693 754.241C642.798 753.183 642.082 751.914 641.545 750.433C641.024 748.951 640.666 747.283 640.471 745.428V742.693C640.666 740.74 641.032 738.991 641.569 737.444C642.106 735.898 642.814 734.58 643.693 733.489C644.589 732.382 645.671 731.544 646.94 730.975C648.21 730.389 649.675 730.096 651.335 730.096C652.995 730.096 654.468 730.421 655.754 731.072C657.04 731.707 658.122 732.618 659.001 733.807C659.88 734.995 660.539 736.419 660.979 738.079C661.434 739.723 661.662 741.554 661.662 743.572ZM657.121 744.085V743.572C657.121 742.254 656.983 741.017 656.706 739.861C656.429 738.689 655.998 737.664 655.412 736.785C654.842 735.89 654.11 735.19 653.215 734.686C652.32 734.165 651.254 733.904 650.017 733.904C648.877 733.904 647.884 734.1 647.038 734.49C646.208 734.881 645.5 735.41 644.914 736.077C644.328 736.728 643.848 737.477 643.474 738.323C643.116 739.153 642.847 740.016 642.668 740.911V747.234C642.993 748.374 643.449 749.448 644.035 750.457C644.621 751.45 645.402 752.256 646.379 752.874C647.355 753.476 648.584 753.777 650.065 753.777C651.286 753.777 652.336 753.525 653.215 753.021C654.11 752.5 654.842 751.792 655.412 750.896C655.998 750.001 656.429 748.976 656.706 747.82C656.983 746.648 657.121 745.403 657.121 744.085ZM666.228 744.085V743.523C666.228 741.619 666.504 739.853 667.058 738.226C667.611 736.582 668.409 735.158 669.45 733.953C670.492 732.732 671.753 731.788 673.234 731.121C674.715 730.438 676.376 730.096 678.215 730.096C680.07 730.096 681.739 730.438 683.22 731.121C684.717 731.788 685.987 732.732 687.028 733.953C688.086 735.158 688.892 736.582 689.445 738.226C689.999 739.853 690.275 741.619 690.275 743.523V744.085C690.275 745.989 689.999 747.755 689.445 749.383C688.892 751.01 688.086 752.435 687.028 753.655C685.987 754.86 684.725 755.804 683.244 756.487C681.779 757.155 680.119 757.488 678.264 757.488C676.408 757.488 674.74 757.155 673.259 756.487C671.778 755.804 670.508 754.86 669.45 753.655C668.409 752.435 667.611 751.01 667.058 749.383C666.504 747.755 666.228 745.989 666.228 744.085ZM670.744 743.523V744.085C670.744 745.403 670.899 746.648 671.208 747.82C671.517 748.976 671.981 750.001 672.6 750.896C673.234 751.792 674.024 752.5 674.968 753.021C675.912 753.525 677.01 753.777 678.264 753.777C679.501 753.777 680.583 753.525 681.511 753.021C682.455 752.5 683.236 751.792 683.854 750.896C684.473 750.001 684.937 748.976 685.246 747.82C685.572 746.648 685.734 745.403 685.734 744.085V743.523C685.734 742.221 685.572 740.993 685.246 739.837C684.937 738.665 684.465 737.632 683.83 736.736C683.212 735.825 682.43 735.109 681.486 734.588C680.559 734.067 679.468 733.807 678.215 733.807C676.978 733.807 675.887 734.067 674.943 734.588C674.016 735.109 673.234 735.825 672.6 736.736C671.981 737.632 671.517 738.665 671.208 739.837C670.899 740.993 670.744 742.221 670.744 743.523ZM711.32 749.993C711.32 749.342 711.174 748.74 710.881 748.187C710.604 747.617 710.026 747.104 709.147 746.648C708.285 746.176 706.983 745.77 705.241 745.428C703.776 745.118 702.45 744.752 701.262 744.329C700.09 743.906 699.089 743.393 698.259 742.791C697.445 742.189 696.818 741.481 696.379 740.667C695.939 739.853 695.72 738.901 695.72 737.811C695.72 736.769 695.948 735.784 696.403 734.856C696.875 733.929 697.535 733.107 698.381 732.391C699.243 731.674 700.277 731.113 701.481 730.706C702.686 730.299 704.029 730.096 705.51 730.096C707.626 730.096 709.432 730.47 710.93 731.219C712.427 731.967 713.575 732.968 714.372 734.222C715.17 735.459 715.568 736.834 715.568 738.348H711.052C711.052 737.615 710.832 736.907 710.393 736.224C709.969 735.524 709.343 734.946 708.513 734.49C707.699 734.035 706.698 733.807 705.51 733.807C704.257 733.807 703.239 734.002 702.458 734.393C701.693 734.767 701.132 735.247 700.773 735.833C700.432 736.419 700.261 737.037 700.261 737.688C700.261 738.177 700.342 738.616 700.505 739.007C700.684 739.381 700.993 739.731 701.433 740.057C701.872 740.366 702.491 740.659 703.288 740.936C704.086 741.212 705.103 741.489 706.34 741.766C708.505 742.254 710.287 742.84 711.687 743.523C713.086 744.207 714.128 745.045 714.812 746.038C715.495 747.031 715.837 748.235 715.837 749.651C715.837 750.807 715.593 751.865 715.104 752.825C714.632 753.785 713.941 754.616 713.029 755.315C712.134 755.999 711.06 756.536 709.807 756.927C708.57 757.301 707.178 757.488 705.632 757.488C703.304 757.488 701.335 757.073 699.724 756.243C698.112 755.413 696.892 754.339 696.062 753.021C695.231 751.702 694.816 750.311 694.816 748.846H699.357C699.423 750.083 699.781 751.067 700.432 751.8C701.083 752.516 701.88 753.029 702.824 753.338C703.768 753.631 704.704 753.777 705.632 753.777C706.869 753.777 707.902 753.615 708.732 753.289C709.579 752.964 710.222 752.516 710.661 751.946C711.101 751.377 711.32 750.726 711.32 749.993ZM737.15 749.993C737.15 749.342 737.004 748.74 736.711 748.187C736.434 747.617 735.856 747.104 734.978 746.648C734.115 746.176 732.813 745.77 731.071 745.428C729.606 745.118 728.28 744.752 727.092 744.329C725.92 743.906 724.919 743.393 724.089 742.791C723.275 742.189 722.648 741.481 722.209 740.667C721.77 739.853 721.55 738.901 721.55 737.811C721.55 736.769 721.778 735.784 722.233 734.856C722.705 733.929 723.365 733.107 724.211 732.391C725.074 731.674 726.107 731.113 727.312 730.706C728.516 730.299 729.859 730.096 731.34 730.096C733.456 730.096 735.262 730.47 736.76 731.219C738.257 731.967 739.405 732.968 740.202 734.222C741 735.459 741.398 736.834 741.398 738.348H736.882C736.882 737.615 736.662 736.907 736.223 736.224C735.799 735.524 735.173 734.946 734.343 734.49C733.529 734.035 732.528 733.807 731.34 733.807C730.087 733.807 729.069 734.002 728.288 734.393C727.523 734.767 726.962 735.247 726.604 735.833C726.262 736.419 726.091 737.037 726.091 737.688C726.091 738.177 726.172 738.616 726.335 739.007C726.514 739.381 726.823 739.731 727.263 740.057C727.702 740.366 728.321 740.659 729.118 740.936C729.916 741.212 730.933 741.489 732.17 741.766C734.335 742.254 736.117 742.84 737.517 743.523C738.916 744.207 739.958 745.045 740.642 746.038C741.325 747.031 741.667 748.235 741.667 749.651C741.667 750.807 741.423 751.865 740.935 752.825C740.463 753.785 739.771 754.616 738.859 755.315C737.964 755.999 736.89 756.536 735.637 756.927C734.4 757.301 733.008 757.488 731.462 757.488C729.134 757.488 727.165 757.073 725.554 756.243C723.942 755.413 722.722 754.339 721.892 753.021C721.062 751.702 720.646 750.311 720.646 748.846H725.188C725.253 750.083 725.611 751.067 726.262 751.8C726.913 752.516 727.71 753.029 728.654 753.338C729.598 753.631 730.534 753.777 731.462 753.777C732.699 753.777 733.732 753.615 734.562 753.289C735.409 752.964 736.052 752.516 736.491 751.946C736.931 751.377 737.15 750.726 737.15 749.993ZM752.507 730.584V757H747.966V730.584H752.507ZM747.624 723.577C747.624 722.845 747.844 722.226 748.283 721.722C748.739 721.217 749.406 720.965 750.285 720.965C751.148 720.965 751.807 721.217 752.263 721.722C752.735 722.226 752.971 722.845 752.971 723.577C752.971 724.277 752.735 724.879 752.263 725.384C751.807 725.872 751.148 726.116 750.285 726.116C749.406 726.116 748.739 725.872 748.283 725.384C747.844 724.879 747.624 724.277 747.624 723.577ZM759.733 719.5H764.274V751.873L763.884 757H759.733V719.5ZM782.121 743.572V744.085C782.121 746.006 781.893 747.788 781.438 749.432C780.982 751.059 780.314 752.475 779.436 753.68C778.557 754.884 777.482 755.82 776.213 756.487C774.943 757.155 773.487 757.488 771.843 757.488C770.166 757.488 768.693 757.203 767.424 756.634C766.171 756.048 765.113 755.21 764.25 754.119C763.387 753.029 762.696 751.71 762.175 750.164C761.67 748.618 761.32 746.876 761.125 744.939V742.693C761.32 740.74 761.67 738.991 762.175 737.444C762.696 735.898 763.387 734.58 764.25 733.489C765.113 732.382 766.171 731.544 767.424 730.975C768.677 730.389 770.134 730.096 771.794 730.096C773.454 730.096 774.927 730.421 776.213 731.072C777.499 731.707 778.573 732.618 779.436 733.807C780.314 734.995 780.982 736.419 781.438 738.079C781.893 739.723 782.121 741.554 782.121 743.572ZM777.58 744.085V743.572C777.58 742.254 777.458 741.017 777.214 739.861C776.97 738.689 776.579 737.664 776.042 736.785C775.505 735.89 774.797 735.19 773.918 734.686C773.039 734.165 771.957 733.904 770.671 733.904C769.532 733.904 768.539 734.1 767.692 734.49C766.862 734.881 766.154 735.41 765.568 736.077C764.982 736.728 764.502 737.477 764.128 738.323C763.77 739.153 763.501 740.016 763.322 740.911V746.795C763.583 747.934 764.006 749.033 764.592 750.091C765.194 751.132 765.992 751.987 766.984 752.654C767.993 753.322 769.239 753.655 770.72 753.655C771.94 753.655 772.982 753.411 773.845 752.923C774.724 752.418 775.432 751.727 775.969 750.848C776.522 749.969 776.929 748.951 777.189 747.796C777.45 746.64 777.58 745.403 777.58 744.085ZM792.741 730.584V757H788.2V730.584H792.741ZM787.858 723.577C787.858 722.845 788.078 722.226 788.518 721.722C788.973 721.217 789.641 720.965 790.52 720.965C791.382 720.965 792.041 721.217 792.497 721.722C792.969 722.226 793.205 722.845 793.205 723.577C793.205 724.277 792.969 724.879 792.497 725.384C792.041 725.872 791.382 726.116 790.52 726.116C789.641 726.116 788.973 725.872 788.518 725.384C788.078 724.879 787.858 724.277 787.858 723.577ZM804.899 719.5V757H800.358V719.5H804.899ZM817.058 730.584V757H812.517V730.584H817.058ZM812.175 723.577C812.175 722.845 812.395 722.226 812.834 721.722C813.29 721.217 813.957 720.965 814.836 720.965C815.699 720.965 816.358 721.217 816.813 721.722C817.285 722.226 817.521 722.845 817.521 723.577C817.521 724.277 817.285 724.879 816.813 725.384C816.358 725.872 815.699 726.116 814.836 726.116C813.957 726.116 813.29 725.872 812.834 725.384C812.395 724.879 812.175 724.277 812.175 723.577ZM835.368 730.584V734.051H821.086V730.584H835.368ZM825.92 724.163H830.437V750.457C830.437 751.352 830.575 752.028 830.852 752.483C831.128 752.939 831.486 753.24 831.926 753.387C832.365 753.533 832.837 753.606 833.342 753.606C833.716 753.606 834.107 753.574 834.514 753.509C834.937 753.427 835.254 753.362 835.466 753.313L835.49 757C835.132 757.114 834.66 757.22 834.074 757.317C833.505 757.431 832.813 757.488 831.999 757.488C830.892 757.488 829.875 757.269 828.947 756.829C828.02 756.39 827.279 755.657 826.726 754.632C826.188 753.59 825.92 752.19 825.92 750.433V724.163ZM845.573 730.584V757H841.032V730.584H845.573ZM840.69 723.577C840.69 722.845 840.91 722.226 841.35 721.722C841.805 721.217 842.473 720.965 843.352 720.965C844.214 720.965 844.873 721.217 845.329 721.722C845.801 722.226 846.037 722.845 846.037 723.577C846.037 724.277 845.801 724.879 845.329 725.384C844.873 725.872 844.214 726.116 843.352 726.116C842.473 726.116 841.805 725.872 841.35 725.384C840.91 724.879 840.69 724.277 840.69 723.577ZM863.786 757.488C861.947 757.488 860.279 757.179 858.781 756.561C857.3 755.926 856.022 755.039 854.948 753.899C853.89 752.76 853.076 751.409 852.507 749.847C851.937 748.284 851.652 746.575 851.652 744.72V743.694C851.652 741.546 851.97 739.633 852.604 737.957C853.239 736.264 854.102 734.832 855.192 733.66C856.283 732.488 857.52 731.601 858.903 730.999C860.287 730.397 861.719 730.096 863.2 730.096C865.088 730.096 866.716 730.421 868.083 731.072C869.466 731.723 870.598 732.635 871.477 733.807C872.355 734.962 873.007 736.329 873.43 737.908C873.853 739.471 874.064 741.18 874.064 743.035V745.062H854.338V741.375H869.548V741.033C869.483 739.861 869.239 738.722 868.815 737.615C868.409 736.508 867.757 735.597 866.862 734.881C865.967 734.165 864.746 733.807 863.2 733.807C862.175 733.807 861.231 734.026 860.368 734.466C859.506 734.889 858.765 735.524 858.146 736.37C857.528 737.216 857.048 738.25 856.706 739.471C856.364 740.691 856.193 742.099 856.193 743.694V744.72C856.193 745.973 856.364 747.153 856.706 748.26C857.064 749.35 857.577 750.311 858.244 751.141C858.928 751.971 859.75 752.622 860.71 753.094C861.687 753.566 862.793 753.802 864.03 753.802C865.625 753.802 866.976 753.476 868.083 752.825C869.19 752.174 870.158 751.303 870.988 750.213L873.723 752.386C873.153 753.248 872.429 754.07 871.55 754.852C870.671 755.633 869.589 756.268 868.303 756.756C867.033 757.244 865.528 757.488 863.786 757.488ZM894.719 749.993C894.719 749.342 894.572 748.74 894.279 748.187C894.003 747.617 893.425 747.104 892.546 746.648C891.683 746.176 890.381 745.77 888.64 745.428C887.175 745.118 885.848 744.752 884.66 744.329C883.488 743.906 882.487 743.393 881.657 742.791C880.843 742.189 880.217 741.481 879.777 740.667C879.338 739.853 879.118 738.901 879.118 737.811C879.118 736.769 879.346 735.784 879.802 734.856C880.274 733.929 880.933 733.107 881.779 732.391C882.642 731.674 883.675 731.113 884.88 730.706C886.084 730.299 887.427 730.096 888.908 730.096C891.024 730.096 892.831 730.47 894.328 731.219C895.826 731.967 896.973 732.968 897.771 734.222C898.568 735.459 898.967 736.834 898.967 738.348H894.45C894.45 737.615 894.23 736.907 893.791 736.224C893.368 735.524 892.741 734.946 891.911 734.49C891.097 734.035 890.096 733.807 888.908 733.807C887.655 733.807 886.638 734.002 885.856 734.393C885.091 734.767 884.53 735.247 884.172 735.833C883.83 736.419 883.659 737.037 883.659 737.688C883.659 738.177 883.741 738.616 883.903 739.007C884.082 739.381 884.392 739.731 884.831 740.057C885.271 740.366 885.889 740.659 886.687 740.936C887.484 741.212 888.501 741.489 889.738 741.766C891.903 742.254 893.685 742.84 895.085 743.523C896.485 744.207 897.526 745.045 898.21 746.038C898.894 747.031 899.235 748.235 899.235 749.651C899.235 750.807 898.991 751.865 898.503 752.825C898.031 753.785 897.339 754.616 896.428 755.315C895.533 755.999 894.458 756.536 893.205 756.927C891.968 757.301 890.576 757.488 889.03 757.488C886.703 757.488 884.733 757.073 883.122 756.243C881.511 755.413 880.29 754.339 879.46 753.021C878.63 751.702 878.215 750.311 878.215 748.846H882.756C882.821 750.083 883.179 751.067 883.83 751.8C884.481 752.516 885.279 753.029 886.223 753.338C887.167 753.631 888.103 753.777 889.03 753.777C890.267 753.777 891.301 753.615 892.131 753.289C892.977 752.964 893.62 752.516 894.06 751.946C894.499 751.377 894.719 750.726 894.719 749.993Z" fill="white"/>
<path d="M623.566 673.406V699H618.75V673.406H623.566ZM631.512 673.406V677.221H610.893V673.406H631.512ZM644.291 694.482V679.98H648.967V699H644.572L644.291 694.482ZM644.889 690.545L646.33 690.51C646.33 691.787 646.189 692.965 645.908 694.043C645.627 695.121 645.188 696.059 644.59 696.855C644.004 697.641 643.26 698.256 642.357 698.701C641.455 699.135 640.389 699.352 639.158 699.352C638.221 699.352 637.365 699.223 636.592 698.965C635.818 698.695 635.15 698.279 634.588 697.717C634.037 697.143 633.609 696.41 633.305 695.52C633 694.617 632.848 693.533 632.848 692.268V679.98H637.488V692.303C637.488 692.936 637.559 693.463 637.699 693.885C637.852 694.307 638.057 694.652 638.314 694.922C638.584 695.18 638.895 695.367 639.246 695.484C639.609 695.59 639.996 695.643 640.406 695.643C641.531 695.643 642.416 695.42 643.061 694.975C643.717 694.518 644.186 693.908 644.467 693.146C644.748 692.373 644.889 691.506 644.889 690.545ZM657.721 683.865V699H653.08V679.98H657.475L657.721 683.865ZM663.504 679.857L663.434 684.182C663.176 684.135 662.883 684.1 662.555 684.076C662.238 684.053 661.939 684.041 661.658 684.041C660.943 684.041 660.316 684.141 659.777 684.34C659.238 684.527 658.787 684.803 658.424 685.166C658.072 685.529 657.803 685.975 657.615 686.502C657.428 687.018 657.322 687.604 657.299 688.26L656.297 688.137C656.297 686.93 656.42 685.811 656.666 684.779C656.912 683.748 657.27 682.846 657.738 682.072C658.207 681.299 658.793 680.701 659.496 680.279C660.211 679.846 661.031 679.629 661.957 679.629C662.215 679.629 662.49 679.652 662.783 679.699C663.088 679.734 663.328 679.787 663.504 679.857ZM670.605 684.041V699H665.965V679.98H670.324L670.605 684.041ZM669.867 688.805H668.496C668.508 687.422 668.695 686.168 669.059 685.043C669.422 683.918 669.932 682.951 670.588 682.143C671.256 681.334 672.047 680.713 672.961 680.279C673.875 679.846 674.895 679.629 676.02 679.629C676.934 679.629 677.76 679.758 678.498 680.016C679.236 680.273 679.869 680.684 680.396 681.246C680.936 681.809 681.346 682.547 681.627 683.461C681.92 684.363 682.066 685.477 682.066 686.801V699H677.391V686.766C677.391 685.898 677.262 685.213 677.004 684.709C676.758 684.205 676.395 683.848 675.914 683.637C675.445 683.426 674.865 683.32 674.174 683.32C673.459 683.32 672.832 683.467 672.293 683.76C671.766 684.041 671.32 684.434 670.957 684.938C670.605 685.441 670.336 686.021 670.148 686.678C669.961 687.334 669.867 688.043 669.867 688.805ZM691.084 679.98V699H686.426V679.98H691.084ZM686.109 675.006C686.109 674.314 686.344 673.74 686.812 673.283C687.293 672.826 687.938 672.598 688.746 672.598C689.555 672.598 690.193 672.826 690.662 673.283C691.143 673.74 691.383 674.314 691.383 675.006C691.383 675.686 691.143 676.254 690.662 676.711C690.193 677.168 689.555 677.396 688.746 677.396C687.938 677.396 687.293 677.168 686.812 676.711C686.344 676.254 686.109 675.686 686.109 675.006ZM700.066 684.041V699H695.426V679.98H699.785L700.066 684.041ZM699.328 688.805H697.957C697.969 687.422 698.156 686.168 698.52 685.043C698.883 683.918 699.393 682.951 700.049 682.143C700.717 681.334 701.508 680.713 702.422 680.279C703.336 679.846 704.355 679.629 705.48 679.629C706.395 679.629 707.221 679.758 707.959 680.016C708.697 680.273 709.33 680.684 709.857 681.246C710.396 681.809 710.807 682.547 711.088 683.461C711.381 684.363 711.527 685.477 711.527 686.801V699H706.852V686.766C706.852 685.898 706.723 685.213 706.465 684.709C706.219 684.205 705.855 683.848 705.375 683.637C704.906 683.426 704.326 683.32 703.635 683.32C702.92 683.32 702.293 683.467 701.754 683.76C701.227 684.041 700.781 684.434 700.418 684.938C700.066 685.441 699.797 686.021 699.609 686.678C699.422 687.334 699.328 688.043 699.328 688.805ZM727.717 679.98H731.936V698.42C731.936 700.143 731.561 701.602 730.811 702.797C730.072 704.004 729.035 704.918 727.699 705.539C726.363 706.172 724.811 706.488 723.041 706.488C722.279 706.488 721.453 706.383 720.562 706.172C719.684 705.961 718.834 705.627 718.014 705.17C717.205 704.725 716.531 704.145 715.992 703.43L718.084 700.688C718.717 701.426 719.432 701.982 720.229 702.357C721.025 702.744 721.887 702.938 722.812 702.938C723.75 702.938 724.547 702.762 725.203 702.41C725.871 702.07 726.381 701.566 726.732 700.898C727.096 700.242 727.277 699.434 727.277 698.473V684.322L727.717 679.98ZM714.867 689.719V689.35C714.867 687.896 715.043 686.578 715.395 685.395C715.746 684.199 716.25 683.174 716.906 682.318C717.574 681.463 718.377 680.801 719.314 680.332C720.264 679.863 721.33 679.629 722.514 679.629C723.768 679.629 724.822 679.857 725.678 680.314C726.545 680.771 727.26 681.422 727.822 682.266C728.396 683.109 728.842 684.111 729.158 685.271C729.486 686.42 729.738 687.686 729.914 689.068V690.07C729.75 691.418 729.486 692.654 729.123 693.779C728.771 694.904 728.303 695.889 727.717 696.732C727.131 697.564 726.404 698.209 725.537 698.666C724.67 699.123 723.65 699.352 722.479 699.352C721.307 699.352 720.252 699.111 719.314 698.631C718.377 698.15 717.574 697.477 716.906 696.609C716.25 695.742 715.746 694.723 715.395 693.551C715.043 692.379 714.867 691.102 714.867 689.719ZM719.508 689.35V689.719C719.508 690.539 719.59 691.307 719.754 692.021C719.918 692.736 720.17 693.369 720.51 693.92C720.85 694.459 721.277 694.881 721.793 695.186C722.309 695.49 722.924 695.643 723.639 695.643C724.6 695.643 725.385 695.443 725.994 695.045C726.615 694.635 727.084 694.078 727.4 693.375C727.729 692.66 727.939 691.857 728.033 690.967V688.207C727.975 687.504 727.846 686.854 727.646 686.256C727.459 685.658 727.195 685.143 726.855 684.709C726.516 684.275 726.082 683.936 725.555 683.689C725.027 683.443 724.4 683.32 723.674 683.32C722.971 683.32 722.355 683.479 721.828 683.795C721.301 684.1 720.867 684.527 720.527 685.078C720.188 685.629 719.93 686.268 719.754 686.994C719.59 687.721 719.508 688.506 719.508 689.35ZM750.006 679.98V699H745.348V679.98H750.006ZM745.031 675.006C745.031 674.314 745.266 673.74 745.734 673.283C746.215 672.826 746.859 672.598 747.668 672.598C748.477 672.598 749.115 672.826 749.584 673.283C750.064 673.74 750.305 674.314 750.305 675.006C750.305 675.686 750.064 676.254 749.584 676.711C749.115 677.168 748.477 677.396 747.668 677.396C746.859 677.396 746.215 677.168 745.734 676.711C745.266 676.254 745.031 675.686 745.031 675.006ZM765.844 694.957V672H770.52V699H766.301L765.844 694.957ZM753.627 689.719V689.35C753.627 687.896 753.791 686.578 754.119 685.395C754.459 684.199 754.951 683.174 755.596 682.318C756.24 681.463 757.02 680.801 757.934 680.332C758.859 679.863 759.908 679.629 761.08 679.629C762.217 679.629 763.207 679.857 764.051 680.314C764.906 680.771 765.633 681.422 766.23 682.266C766.84 683.109 767.326 684.111 767.689 685.271C768.053 686.42 768.316 687.686 768.48 689.068V690.07C768.316 691.418 768.053 692.654 767.689 693.779C767.326 694.904 766.84 695.889 766.23 696.732C765.633 697.564 764.906 698.209 764.051 698.666C763.195 699.123 762.193 699.352 761.045 699.352C759.885 699.352 758.842 699.111 757.916 698.631C757.002 698.15 756.223 697.477 755.578 696.609C754.945 695.742 754.459 694.723 754.119 693.551C753.791 692.379 753.627 691.102 753.627 689.719ZM758.285 689.35V689.719C758.285 690.539 758.355 691.307 758.496 692.021C758.637 692.736 758.865 693.369 759.182 693.92C759.498 694.459 759.902 694.881 760.395 695.186C760.898 695.49 761.508 695.643 762.223 695.643C763.137 695.643 763.887 695.443 764.473 695.045C765.07 694.635 765.533 694.078 765.861 693.375C766.189 692.66 766.4 691.857 766.494 690.967V688.207C766.447 687.504 766.324 686.854 766.125 686.256C765.938 685.658 765.668 685.143 765.316 684.709C764.977 684.275 764.555 683.936 764.051 683.689C763.547 683.443 762.949 683.32 762.258 683.32C761.543 683.32 760.934 683.479 760.43 683.795C759.926 684.1 759.516 684.527 759.199 685.078C758.883 685.629 758.648 686.268 758.496 686.994C758.355 687.721 758.285 688.506 758.285 689.35ZM783.264 699.352C781.822 699.352 780.527 699.117 779.379 698.648C778.23 698.18 777.252 697.529 776.443 696.697C775.646 695.854 775.031 694.875 774.598 693.762C774.176 692.637 773.965 691.43 773.965 690.141V689.438C773.965 687.973 774.176 686.643 774.598 685.447C775.02 684.24 775.617 683.203 776.391 682.336C777.164 681.469 778.09 680.801 779.168 680.332C780.246 679.863 781.436 679.629 782.736 679.629C784.084 679.629 785.273 679.857 786.305 680.314C787.336 680.76 788.197 681.393 788.889 682.213C789.58 683.033 790.102 684.018 790.453 685.166C790.805 686.303 790.98 687.562 790.98 688.945V690.896H776.074V687.697H786.41V687.346C786.387 686.607 786.246 685.934 785.988 685.324C785.73 684.703 785.332 684.211 784.793 683.848C784.254 683.473 783.557 683.285 782.701 683.285C782.01 683.285 781.406 683.438 780.891 683.742C780.387 684.035 779.965 684.457 779.625 685.008C779.297 685.547 779.051 686.191 778.887 686.941C778.723 687.691 778.641 688.523 778.641 689.438V690.141C778.641 690.938 778.746 691.676 778.957 692.355C779.18 693.035 779.502 693.627 779.924 694.131C780.357 694.623 780.873 695.01 781.471 695.291C782.08 695.561 782.771 695.695 783.545 695.695C784.518 695.695 785.396 695.508 786.182 695.133C786.979 694.746 787.67 694.178 788.256 693.428L790.594 695.854C790.195 696.439 789.656 697.002 788.977 697.541C788.309 698.08 787.5 698.52 786.551 698.859C785.602 699.188 784.506 699.352 783.264 699.352ZM804.568 694.957V686.186C804.568 685.541 804.457 684.984 804.234 684.516C804.012 684.047 803.672 683.684 803.215 683.426C802.758 683.168 802.178 683.039 801.475 683.039C800.854 683.039 800.309 683.145 799.84 683.355C799.383 683.566 799.031 683.865 798.785 684.252C798.539 684.627 798.416 685.061 798.416 685.553H793.758C793.758 684.768 793.945 684.023 794.32 683.32C794.695 682.605 795.229 681.973 795.92 681.422C796.623 680.859 797.461 680.42 798.434 680.104C799.418 679.787 800.52 679.629 801.738 679.629C803.18 679.629 804.463 679.875 805.588 680.367C806.725 680.848 807.615 681.574 808.26 682.547C808.916 683.52 809.244 684.744 809.244 686.221V694.518C809.244 695.467 809.303 696.281 809.42 696.961C809.549 697.629 809.736 698.209 809.982 698.701V699H805.254C805.031 698.52 804.861 697.91 804.744 697.172C804.627 696.422 804.568 695.684 804.568 694.957ZM805.219 687.416L805.254 690.176H802.318C801.592 690.176 800.953 690.252 800.402 690.404C799.852 690.545 799.4 690.756 799.049 691.037C798.697 691.307 798.434 691.635 798.258 692.021C798.082 692.396 797.994 692.824 797.994 693.305C797.994 693.773 798.1 694.195 798.311 694.57C798.533 694.945 798.85 695.244 799.26 695.467C799.682 695.678 800.174 695.783 800.736 695.783C801.557 695.783 802.271 695.619 802.881 695.291C803.49 694.951 803.965 694.541 804.305 694.061C804.645 693.58 804.826 693.123 804.85 692.689L806.186 694.693C806.021 695.174 805.775 695.684 805.447 696.223C805.119 696.762 804.697 697.266 804.182 697.734C803.666 698.203 803.045 698.59 802.318 698.895C801.592 699.199 800.748 699.352 799.787 699.352C798.557 699.352 797.455 699.105 796.482 698.613C795.51 698.121 794.742 697.447 794.18 696.592C793.617 695.736 793.336 694.764 793.336 693.674C793.336 692.666 793.523 691.775 793.898 691.002C794.273 690.229 794.83 689.578 795.568 689.051C796.307 688.512 797.221 688.107 798.311 687.838C799.412 687.557 800.672 687.416 802.09 687.416H805.219ZM823.887 693.797C823.887 693.398 823.781 693.041 823.57 692.725C823.359 692.408 822.961 692.121 822.375 691.863C821.801 691.594 820.957 691.342 819.844 691.107C818.859 690.896 817.951 690.633 817.119 690.316C816.287 690 815.572 689.619 814.975 689.174C814.377 688.717 813.908 688.184 813.568 687.574C813.24 686.953 813.076 686.238 813.076 685.43C813.076 684.645 813.246 683.906 813.586 683.215C813.926 682.512 814.418 681.896 815.062 681.369C815.707 680.83 816.492 680.408 817.418 680.104C818.344 679.787 819.387 679.629 820.547 679.629C822.164 679.629 823.553 679.893 824.713 680.42C825.885 680.947 826.781 681.674 827.402 682.6C828.023 683.514 828.334 684.545 828.334 685.693H823.693C823.693 685.189 823.576 684.732 823.342 684.322C823.119 683.912 822.773 683.584 822.305 683.338C821.836 683.08 821.244 682.951 820.529 682.951C819.885 682.951 819.34 683.057 818.895 683.268C818.461 683.479 818.133 683.754 817.91 684.094C817.688 684.434 817.576 684.809 817.576 685.219C817.576 685.523 817.635 685.799 817.752 686.045C817.881 686.279 818.086 686.496 818.367 686.695C818.648 686.895 819.029 687.076 819.51 687.24C820.002 687.404 820.605 687.562 821.32 687.715C822.738 687.996 823.975 688.371 825.029 688.84C826.096 689.297 826.928 689.906 827.525 690.668C828.123 691.43 828.422 692.402 828.422 693.586C828.422 694.43 828.24 695.203 827.877 695.906C827.514 696.598 826.986 697.201 826.295 697.717C825.604 698.232 824.777 698.637 823.816 698.93C822.855 699.211 821.771 699.352 820.564 699.352C818.818 699.352 817.342 699.041 816.135 698.42C814.928 697.787 814.014 696.99 813.393 696.029C812.771 695.057 812.461 694.049 812.461 693.006H816.908C816.943 693.744 817.143 694.336 817.506 694.781C817.869 695.227 818.326 695.549 818.877 695.748C819.439 695.936 820.031 696.029 820.652 696.029C821.355 696.029 821.947 695.936 822.428 695.748C822.908 695.549 823.271 695.285 823.518 694.957C823.764 694.617 823.887 694.23 823.887 693.797Z" fill="white"/>
</g>
<defs>
<clipPath id="clip0_775_946">
<rect width="1440" height="1029" fill="white"/>
</clipPath>
</defs>
</svg>
