<svg width="1440" height="1024" viewBox="0 0 1440 1024" fill="none" xmlns="http://www.w3.org/2000/svg">
<rect width="1440" height="1024" fill="#E8EBEC"/>
<g opacity="0.5">
<mask id="mask0_215_1761" style="mask-type:alpha" maskUnits="userSpaceOnUse" x="1326" y="684" width="92" height="125">
<circle cx="1332" cy="802.5" r="5" transform="rotate(-90 1332 802.5)" fill="#D9D9D9"/>
<circle cx="1332" cy="786.5" r="5" transform="rotate(-90 1332 786.5)" fill="#D9D9D9"/>
<circle cx="1332" cy="770.5" r="5" transform="rotate(-90 1332 770.5)" fill="#D9D9D9"/>
<circle cx="1332" cy="754.5" r="5" transform="rotate(-90 1332 754.5)" fill="#D9D9D9"/>
<circle cx="1332" cy="738.5" r="5" transform="rotate(-90 1332 738.5)" fill="#D9D9D9"/>
<circle cx="1332" cy="722.5" r="5" transform="rotate(-90 1332 722.5)" fill="#D9D9D9"/>
<circle cx="1332" cy="706.5" r="5" transform="rotate(-90 1332 706.5)" fill="#D9D9D9"/>
<circle cx="1332" cy="690.5" r="5" transform="rotate(-90 1332 690.5)" fill="#D9D9D9"/>
<circle cx="1348" cy="802.5" r="5" transform="rotate(-90 1348 802.5)" fill="#D9D9D9"/>
<circle cx="1348" cy="786.5" r="5" transform="rotate(-90 1348 786.5)" fill="#D9D9D9"/>
<circle cx="1348" cy="770.5" r="5" transform="rotate(-90 1348 770.5)" fill="#D9D9D9"/>
<circle cx="1348" cy="754.5" r="5" transform="rotate(-90 1348 754.5)" fill="#D9D9D9"/>
<circle cx="1348" cy="738.5" r="5" transform="rotate(-90 1348 738.5)" fill="#D9D9D9"/>
<circle cx="1348" cy="722.5" r="5" transform="rotate(-90 1348 722.5)" fill="#D9D9D9"/>
<circle cx="1348" cy="706.5" r="5" transform="rotate(-90 1348 706.5)" fill="#D9D9D9"/>
<circle cx="1348" cy="690.5" r="5" transform="rotate(-90 1348 690.5)" fill="#D9D9D9"/>
<circle cx="1364" cy="802.5" r="5" transform="rotate(-90 1364 802.5)" fill="#D9D9D9"/>
<circle cx="1364" cy="786.5" r="5" transform="rotate(-90 1364 786.5)" fill="#D9D9D9"/>
<circle cx="1364" cy="770.5" r="5" transform="rotate(-90 1364 770.5)" fill="#D9D9D9"/>
<circle cx="1364" cy="754.5" r="5" transform="rotate(-90 1364 754.5)" fill="#D9D9D9"/>
<circle cx="1364" cy="738.5" r="5" transform="rotate(-90 1364 738.5)" fill="#D9D9D9"/>
<circle cx="1364" cy="722.5" r="5" transform="rotate(-90 1364 722.5)" fill="#D9D9D9"/>
<circle cx="1364" cy="706.5" r="5" transform="rotate(-90 1364 706.5)" fill="#D9D9D9"/>
<circle cx="1364" cy="690.5" r="5" transform="rotate(-90 1364 690.5)" fill="#D9D9D9"/>
<circle cx="1380" cy="802.5" r="5" transform="rotate(-90 1380 802.5)" fill="#D9D9D9"/>
<circle cx="1380" cy="786.5" r="5" transform="rotate(-90 1380 786.5)" fill="#D9D9D9"/>
<circle cx="1380" cy="770.5" r="5" transform="rotate(-90 1380 770.5)" fill="#D9D9D9"/>
<circle cx="1380" cy="754.5" r="5" transform="rotate(-90 1380 754.5)" fill="#D9D9D9"/>
<circle cx="1380" cy="738.5" r="5" transform="rotate(-90 1380 738.5)" fill="#D9D9D9"/>
<circle cx="1380" cy="722.5" r="5" transform="rotate(-90 1380 722.5)" fill="#D9D9D9"/>
<circle cx="1380" cy="706.5" r="5" transform="rotate(-90 1380 706.5)" fill="#D9D9D9"/>
<circle cx="1380" cy="690.5" r="5" transform="rotate(-90 1380 690.5)" fill="#D9D9D9"/>
<circle cx="1396" cy="802.5" r="5" transform="rotate(-90 1396 802.5)" fill="#D9D9D9"/>
<circle cx="1396" cy="786.5" r="5" transform="rotate(-90 1396 786.5)" fill="#D9D9D9"/>
<circle cx="1396" cy="770.5" r="5" transform="rotate(-90 1396 770.5)" fill="#D9D9D9"/>
<circle cx="1396" cy="754.5" r="5" transform="rotate(-90 1396 754.5)" fill="#D9D9D9"/>
<circle cx="1396" cy="738.5" r="5" transform="rotate(-90 1396 738.5)" fill="#D9D9D9"/>
<circle cx="1396" cy="722.5" r="5" transform="rotate(-90 1396 722.5)" fill="#D9D9D9"/>
<circle cx="1396" cy="706.5" r="5" transform="rotate(-90 1396 706.5)" fill="#D9D9D9"/>
<circle cx="1396" cy="690.5" r="5" transform="rotate(-90 1396 690.5)" fill="#D9D9D9"/>
<circle cx="1412" cy="802.5" r="5" transform="rotate(-90 1412 802.5)" fill="#D9D9D9"/>
<circle cx="1412" cy="786.5" r="5" transform="rotate(-90 1412 786.5)" fill="#D9D9D9"/>
<circle cx="1412" cy="770.5" r="5" transform="rotate(-90 1412 770.5)" fill="#D9D9D9"/>
<circle cx="1412" cy="754.5" r="5" transform="rotate(-90 1412 754.5)" fill="#D9D9D9"/>
<circle cx="1412" cy="738.5" r="5" transform="rotate(-90 1412 738.5)" fill="#D9D9D9"/>
<circle cx="1412" cy="722.5" r="5" transform="rotate(-90 1412 722.5)" fill="#D9D9D9"/>
<circle cx="1412" cy="706.5" r="5" transform="rotate(-90 1412 706.5)" fill="#D9D9D9"/>
<circle cx="1412" cy="690.5" r="5" transform="rotate(-90 1412 690.5)" fill="#D9D9D9"/>
</mask>
<g mask="url(#mask0_215_1761)">
<rect x="1418" y="684" width="124" height="92" transform="rotate(90 1418 684)" fill="url(#paint0_linear_215_1761)"/>
</g>
</g>
<g opacity="0.5">
<mask id="mask1_215_1761" style="mask-type:alpha" maskUnits="userSpaceOnUse" x="1325" y="845" width="92" height="125">
<circle cx="1331" cy="963.5" r="5" transform="rotate(-90 1331 963.5)" fill="#D9D9D9"/>
<circle cx="1331" cy="947.5" r="5" transform="rotate(-90 1331 947.5)" fill="#D9D9D9"/>
<circle cx="1331" cy="931.5" r="5" transform="rotate(-90 1331 931.5)" fill="#D9D9D9"/>
<circle cx="1331" cy="915.5" r="5" transform="rotate(-90 1331 915.5)" fill="#D9D9D9"/>
<circle cx="1331" cy="899.5" r="5" transform="rotate(-90 1331 899.5)" fill="#D9D9D9"/>
<circle cx="1331" cy="883.5" r="5" transform="rotate(-90 1331 883.5)" fill="#D9D9D9"/>
<circle cx="1331" cy="867.5" r="5" transform="rotate(-90 1331 867.5)" fill="#D9D9D9"/>
<circle cx="1331" cy="851.5" r="5" transform="rotate(-90 1331 851.5)" fill="#D9D9D9"/>
<circle cx="1347" cy="963.5" r="5" transform="rotate(-90 1347 963.5)" fill="#D9D9D9"/>
<circle cx="1347" cy="947.5" r="5" transform="rotate(-90 1347 947.5)" fill="#D9D9D9"/>
<circle cx="1347" cy="931.5" r="5" transform="rotate(-90 1347 931.5)" fill="#D9D9D9"/>
<circle cx="1347" cy="915.5" r="5" transform="rotate(-90 1347 915.5)" fill="#D9D9D9"/>
<circle cx="1347" cy="899.5" r="5" transform="rotate(-90 1347 899.5)" fill="#D9D9D9"/>
<circle cx="1347" cy="883.5" r="5" transform="rotate(-90 1347 883.5)" fill="#D9D9D9"/>
<circle cx="1347" cy="867.5" r="5" transform="rotate(-90 1347 867.5)" fill="#D9D9D9"/>
<circle cx="1347" cy="851.5" r="5" transform="rotate(-90 1347 851.5)" fill="#D9D9D9"/>
<circle cx="1363" cy="963.5" r="5" transform="rotate(-90 1363 963.5)" fill="#D9D9D9"/>
<circle cx="1363" cy="947.5" r="5" transform="rotate(-90 1363 947.5)" fill="#D9D9D9"/>
<circle cx="1363" cy="931.5" r="5" transform="rotate(-90 1363 931.5)" fill="#D9D9D9"/>
<circle cx="1363" cy="915.5" r="5" transform="rotate(-90 1363 915.5)" fill="#D9D9D9"/>
<circle cx="1363" cy="899.5" r="5" transform="rotate(-90 1363 899.5)" fill="#D9D9D9"/>
<circle cx="1363" cy="883.5" r="5" transform="rotate(-90 1363 883.5)" fill="#D9D9D9"/>
<circle cx="1363" cy="867.5" r="5" transform="rotate(-90 1363 867.5)" fill="#D9D9D9"/>
<circle cx="1363" cy="851.5" r="5" transform="rotate(-90 1363 851.5)" fill="#D9D9D9"/>
<circle cx="1379" cy="963.5" r="5" transform="rotate(-90 1379 963.5)" fill="#D9D9D9"/>
<circle cx="1379" cy="947.5" r="5" transform="rotate(-90 1379 947.5)" fill="#D9D9D9"/>
<circle cx="1379" cy="931.5" r="5" transform="rotate(-90 1379 931.5)" fill="#D9D9D9"/>
<circle cx="1379" cy="915.5" r="5" transform="rotate(-90 1379 915.5)" fill="#D9D9D9"/>
<circle cx="1379" cy="899.5" r="5" transform="rotate(-90 1379 899.5)" fill="#D9D9D9"/>
<circle cx="1379" cy="883.5" r="5" transform="rotate(-90 1379 883.5)" fill="#D9D9D9"/>
<circle cx="1379" cy="867.5" r="5" transform="rotate(-90 1379 867.5)" fill="#D9D9D9"/>
<circle cx="1379" cy="851.5" r="5" transform="rotate(-90 1379 851.5)" fill="#D9D9D9"/>
<circle cx="1395" cy="963.5" r="5" transform="rotate(-90 1395 963.5)" fill="#D9D9D9"/>
<circle cx="1395" cy="947.5" r="5" transform="rotate(-90 1395 947.5)" fill="#D9D9D9"/>
<circle cx="1395" cy="931.5" r="5" transform="rotate(-90 1395 931.5)" fill="#D9D9D9"/>
<circle cx="1395" cy="915.5" r="5" transform="rotate(-90 1395 915.5)" fill="#D9D9D9"/>
<circle cx="1395" cy="899.5" r="5" transform="rotate(-90 1395 899.5)" fill="#D9D9D9"/>
<circle cx="1395" cy="883.5" r="5" transform="rotate(-90 1395 883.5)" fill="#D9D9D9"/>
<circle cx="1395" cy="867.5" r="5" transform="rotate(-90 1395 867.5)" fill="#D9D9D9"/>
<circle cx="1395" cy="851.5" r="5" transform="rotate(-90 1395 851.5)" fill="#D9D9D9"/>
<circle cx="1411" cy="963.5" r="5" transform="rotate(-90 1411 963.5)" fill="#D9D9D9"/>
<circle cx="1411" cy="947.5" r="5" transform="rotate(-90 1411 947.5)" fill="#D9D9D9"/>
<circle cx="1411" cy="931.5" r="5" transform="rotate(-90 1411 931.5)" fill="#D9D9D9"/>
<circle cx="1411" cy="915.5" r="5" transform="rotate(-90 1411 915.5)" fill="#D9D9D9"/>
<circle cx="1411" cy="899.5" r="5" transform="rotate(-90 1411 899.5)" fill="#D9D9D9"/>
<circle cx="1411" cy="883.5" r="5" transform="rotate(-90 1411 883.5)" fill="#D9D9D9"/>
<circle cx="1411" cy="867.5" r="5" transform="rotate(-90 1411 867.5)" fill="#D9D9D9"/>
<circle cx="1411" cy="851.5" r="5" transform="rotate(-90 1411 851.5)" fill="#D9D9D9"/>
</mask>
<g mask="url(#mask1_215_1761)">
<rect x="1417" y="845" width="124" height="92" transform="rotate(90 1417 845)" fill="url(#paint1_linear_215_1761)"/>
</g>
</g>
<defs>
<linearGradient id="paint0_linear_215_1761" x1="1542" y1="776" x2="1410.19" y2="762.969" gradientUnits="userSpaceOnUse">
<stop stop-color="#41AD3F"/>
<stop offset="0.405" stop-color="#8736B9"/>
<stop offset="0.955" stop-color="#DD1C1C"/>
</linearGradient>
<linearGradient id="paint1_linear_215_1761" x1="1541" y1="937" x2="1409.19" y2="923.969" gradientUnits="userSpaceOnUse">
<stop stop-color="#41AD3F"/>
<stop offset="0.405" stop-color="#8736B9"/>
<stop offset="0.955" stop-color="#DD1C1C"/>
</linearGradient>
</defs>
</svg>
