<svg width="1440" height="672" viewBox="0 0 1440 672" fill="none" xmlns="http://www.w3.org/2000/svg">
<g clip-path="url(#clip0_321_1705)">
<circle cx="-37.5" cy="451.5" r="86.5" fill="#F3C364"/>
<circle cx="-54" cy="573" r="70" fill="#F3C364"/>
<mask id="mask0_321_1705" style="mask-type:alpha" maskUnits="userSpaceOnUse" x="8" y="21" width="96" height="58">
<circle cx="10" cy="26" r="2" fill="#D9D9D9"/>
<circle cx="20" cy="26" r="2" fill="#D9D9D9"/>
<circle cx="30.5" cy="26" r="2.5" fill="#D9D9D9"/>
<circle cx="42" cy="26" r="3" fill="#D9D9D9"/>
<circle cx="54.5" cy="26" r="3.5" fill="#D9D9D9"/>
<circle cx="68" cy="26" r="4" fill="#D9D9D9"/>
<circle cx="83" cy="26" r="5" fill="#D9D9D9"/>
<circle cx="99" cy="26" r="5" fill="#D9D9D9"/>
<circle cx="10" cy="42" r="2" fill="#D9D9D9"/>
<circle cx="20" cy="42" r="2" fill="#D9D9D9"/>
<circle cx="30.5" cy="42" r="2.5" fill="#D9D9D9"/>
<circle cx="42" cy="42" r="3" fill="#D9D9D9"/>
<circle cx="54.5" cy="42" r="3.5" fill="#D9D9D9"/>
<circle cx="68" cy="42" r="4" fill="#D9D9D9"/>
<circle cx="83" cy="42" r="5" fill="#D9D9D9"/>
<circle cx="99" cy="42" r="5" fill="#D9D9D9"/>
<circle cx="10" cy="58" r="2" fill="#D9D9D9"/>
<circle cx="20" cy="58" r="2" fill="#D9D9D9"/>
<circle cx="30.5" cy="58" r="2.5" fill="#D9D9D9"/>
<circle cx="42" cy="58" r="3" fill="#D9D9D9"/>
<circle cx="54.5" cy="58" r="3.5" fill="#D9D9D9"/>
<circle cx="68" cy="58" r="4" fill="#D9D9D9"/>
<circle cx="83" cy="58" r="5" fill="#D9D9D9"/>
<circle cx="99" cy="58" r="5" fill="#D9D9D9"/>
<circle cx="10" cy="74" r="2" fill="#D9D9D9"/>
<circle cx="20" cy="74" r="2" fill="#D9D9D9"/>
<circle cx="30.5" cy="74" r="2.5" fill="#D9D9D9"/>
<circle cx="42" cy="74" r="3" fill="#D9D9D9"/>
<circle cx="54.5" cy="74" r="3.5" fill="#D9D9D9"/>
<circle cx="68" cy="74" r="4" fill="#D9D9D9"/>
<circle cx="83" cy="74" r="5" fill="#D9D9D9"/>
<circle cx="99" cy="74" r="5" fill="#D9D9D9"/>
</mask>
<g mask="url(#mask0_321_1705)">
<rect x="8" y="21" width="96" height="58" fill="url(#paint0_linear_321_1705)"/>
</g>
</g>
<defs>
<linearGradient id="paint0_linear_321_1705" x1="104" y1="79" x2="8" y2="21" gradientUnits="userSpaceOnUse">
<stop offset="0.27" stop-color="#41AD3F"/>
<stop offset="0.77" stop-color="#8736B9"/>
<stop offset="1" stop-color="#DD1C1C" stop-opacity="0.99"/>
</linearGradient>
<clipPath id="clip0_321_1705">
<rect width="1440" height="886" fill="white"/>
</clipPath>
</defs>
</svg>
