<svg width="78" height="73" viewBox="0 0 78 73" fill="none" xmlns="http://www.w3.org/2000/svg">
<g style="mix-blend-mode:color-dodge">
<path d="M55 66.919C65.7243 61.0576 73 49.66 73 36.5602C73 17.4731 57.5538 2 38.5 2C19.4462 2 4 17.4731 4 36.5602C4 49.7727 11.4014 61.2536 22.2775 67.069" stroke="#17384C" stroke-width="3" stroke-linecap="round"/>
<path d="M38.5 10V22.5M38.5 70.5V35M48 13L38.5 22.5M38.5 22.5L29 13M38.5 22.5V35M55.5 18L38.5 35M38.5 35L21.5 18M17 25.5L30.5 39V69.6602M60 25.5L47 39V69.6602M60 38L55 43V66.7285M17 38L22.5 43V67" stroke="#17384C" stroke-width="3" stroke-linecap="round" stroke-linejoin="round"/>
</g>
</svg>
