<svg width="22" height="21" viewBox="0 0 22 21" fill="none" xmlns="http://www.w3.org/2000/svg">
<path d="M12.19 7.18803C12.8399 7.49828 13.4057 7.95996 13.8401 8.53427C14.2745 9.10857 14.5648 9.77874 14.6865 10.4885C14.8081 11.1982 14.7577 11.9268 14.5394 12.613C14.3212 13.2992 13.9414 13.923 13.432 14.432L8.93203 18.932C8.08811 19.7759 6.94351 20.2501 5.75003 20.2501C4.55655 20.2501 3.41195 19.7759 2.56803 18.932C1.72411 18.0881 1.25 16.9435 1.25 15.75C1.25 14.5565 1.72411 13.4119 2.56803 12.568L4.32503 10.811M17.675 10.189L19.432 8.43203C20.2759 7.58811 20.7501 6.44351 20.7501 5.25003C20.7501 4.05655 20.2759 2.91195 19.432 2.06803C18.5881 1.22411 17.4435 0.75 16.25 0.75C15.0565 0.75 13.9119 1.22411 13.068 2.06803L8.56803 6.56803C8.05866 7.07703 7.67889 7.70084 7.46061 8.38705C7.24233 9.07326 7.19191 9.80184 7.3136 10.5116C7.43528 11.2213 7.72552 11.8915 8.15992 12.4658C8.59432 13.0401 9.1602 13.5018 9.81003 13.812" stroke="#2563EB" stroke-width="1.5" stroke-linecap="round" stroke-linejoin="round"/>
</svg>
