<svg width="32" height="41" viewBox="0 0 32 41" fill="none" xmlns="http://www.w3.org/2000/svg">
<path d="M2.36034 0.906933C1.94159 0.997558 1.43847 1.29755 1.1791 1.61318C1.00097 1.83193 0.84785 2.1038 0.757226 2.37255L0.672852 2.62254V20.8568V39.091L0.757226 39.341C0.960349 39.9378 1.33535 40.3691 1.89159 40.6378C2.38534 40.8753 1.08535 40.8566 16.0477 40.8566C31.0101 40.8566 29.7101 40.8753 30.2038 40.6378C30.7601 40.3691 31.1351 39.9378 31.3382 39.341L31.4226 39.091L31.432 25.4911L31.4382 11.8881L27.182 11.8818L22.9227 11.8725L22.682 11.8037C21.4039 11.4412 20.5789 10.5631 20.4383 9.41936C20.4196 9.25061 20.4071 7.66937 20.4071 5.0069V0.856934L11.4946 0.860059C3.75407 0.863184 2.55096 0.869434 2.36034 0.906933Z" fill="#595959"/>
<path d="M21.9433 5.13772L21.9526 9.40331L22.0433 9.58768C22.162 9.83143 22.4151 10.0783 22.6683 10.2002C23.0745 10.3939 22.9526 10.3877 27.3776 10.3877C29.5932 10.3877 31.4057 10.3783 31.4057 10.3627C31.4057 10.3502 29.2744 8.20957 26.6713 5.60646L21.937 0.87213L21.9433 5.13772Z" fill="#595959"/>
<path d="M8.67285 20.561H22.9586" stroke="white" stroke-width="3" stroke-linecap="round"/>
<path d="M8.67285 26.2754H22.9586" stroke="white" stroke-width="3" stroke-linecap="round"/>
<path d="M8.67285 31.9897H22.9586" stroke="white" stroke-width="3" stroke-linecap="round"/>
</svg>
