<svg width="147" height="57" viewBox="0 0 147 57" fill="none" xmlns="http://www.w3.org/2000/svg">
<mask id="mask0_506_425" style="mask-type:alpha" maskUnits="userSpaceOnUse" x="73" y="0" width="89" height="26">
<circle cx="81.5" cy="5" r="5" fill="#D9D9D9"/>
<circle cx="96.5" cy="5" r="5" fill="#D9D9D9"/>
<circle cx="111.5" cy="5" r="5" fill="#D9D9D9"/>
<circle cx="126.5" cy="5" r="5" fill="#D9D9D9"/>
<circle cx="141.5" cy="5" r="5" fill="#D9D9D9"/>
<circle cx="81.5" cy="21" r="5" fill="#D9D9D9"/>
<circle cx="96.5" cy="21" r="5" fill="#D9D9D9"/>
<circle cx="111.5" cy="21" r="5" fill="#D9D9D9"/>
<circle cx="126.5" cy="21" r="5" fill="#D9D9D9"/>
<circle cx="141.5" cy="21" r="5" fill="#D9D9D9"/>
</mask>
<g mask="url(#mask0_506_425)">
<path d="M147 26L76 26L76 0L147 0V26Z" fill="url(#paint0_linear_506_425)" fill-opacity="0.6"/>
</g>
<mask id="mask1_506_425" style="mask-type:alpha" maskUnits="userSpaceOnUse" x="73" y="31" width="89" height="26">
<circle cx="81.5" cy="36" r="5" fill="#D9D9D9"/>
<circle cx="96.5" cy="36" r="5" fill="#D9D9D9"/>
<circle cx="111.5" cy="36" r="5" fill="#D9D9D9"/>
<circle cx="126.5" cy="36" r="5" fill="#D9D9D9"/>
<circle cx="141.5" cy="36" r="5" fill="#D9D9D9"/>
<circle cx="81.5" cy="52" r="5" fill="#D9D9D9"/>
<circle cx="96.5" cy="52" r="5" fill="#D9D9D9"/>
<circle cx="111.5" cy="52" r="5" fill="#D9D9D9"/>
<circle cx="126.5" cy="52" r="5" fill="#D9D9D9"/>
<circle cx="141.5" cy="52" r="5" fill="#D9D9D9"/>
</mask>
<g mask="url(#mask1_506_425)">
<path d="M147 57L76 57L76 31L147 31V57Z" fill="url(#paint1_linear_506_425)" fill-opacity="0.6"/>
</g>
<mask id="mask2_506_425" style="mask-type:alpha" maskUnits="userSpaceOnUse" x="-15" y="31" width="89" height="26">
<circle cx="65.5" cy="52" r="5" transform="rotate(-180 65.5 52)" fill="#D9D9D9"/>
<circle cx="50.5" cy="52" r="5" transform="rotate(-180 50.5 52)" fill="#D9D9D9"/>
<circle cx="35.5" cy="52" r="5" transform="rotate(-180 35.5 52)" fill="#D9D9D9"/>
<circle cx="20.5" cy="52" r="5" transform="rotate(-180 20.5 52)" fill="#D9D9D9"/>
<circle cx="5.5" cy="52" r="5" transform="rotate(-180 5.5 52)" fill="#D9D9D9"/>
<circle cx="65.5" cy="36" r="5" transform="rotate(-180 65.5 36)" fill="#D9D9D9"/>
<circle cx="50.5" cy="36" r="5" transform="rotate(-180 50.5 36)" fill="#D9D9D9"/>
<circle cx="35.5" cy="36" r="5" transform="rotate(-180 35.5 36)" fill="#D9D9D9"/>
<circle cx="20.5" cy="36" r="5" transform="rotate(-180 20.5 36)" fill="#D9D9D9"/>
<circle cx="5.5" cy="36" r="5" transform="rotate(-180 5.5 36)" fill="#D9D9D9"/>
</mask>
<g mask="url(#mask2_506_425)">
<path d="M0 31L71 31L71 57L0 57L0 31Z" fill="url(#paint2_linear_506_425)" fill-opacity="0.6"/>
</g>
<mask id="mask3_506_425" style="mask-type:alpha" maskUnits="userSpaceOnUse" x="-15" y="0" width="89" height="26">
<circle cx="65.5" cy="21" r="5" transform="rotate(-180 65.5 21)" fill="#D9D9D9"/>
<circle cx="50.5" cy="21" r="5" transform="rotate(-180 50.5 21)" fill="#D9D9D9"/>
<circle cx="35.5" cy="21" r="5" transform="rotate(-180 35.5 21)" fill="#D9D9D9"/>
<circle cx="20.5" cy="21" r="5" transform="rotate(-180 20.5 21)" fill="#D9D9D9"/>
<circle cx="5.5" cy="21" r="5" transform="rotate(-180 5.5 21)" fill="#D9D9D9"/>
<circle cx="65.5" cy="5" r="5" transform="rotate(-180 65.5 5)" fill="#D9D9D9"/>
<circle cx="50.5" cy="5" r="5" transform="rotate(-180 50.5 5)" fill="#D9D9D9"/>
<circle cx="35.5" cy="5" r="5" transform="rotate(-180 35.5 5)" fill="#D9D9D9"/>
<circle cx="20.5" cy="5" r="5" transform="rotate(-180 20.5 5)" fill="#D9D9D9"/>
<circle cx="5.5" cy="5" r="5" transform="rotate(-180 5.5 5)" fill="#D9D9D9"/>
</mask>
<g mask="url(#mask3_506_425)">
<path d="M0 0L71 0L71 26L0 26L0 0Z" fill="url(#paint3_linear_506_425)" fill-opacity="0.6"/>
</g>
<defs>
<linearGradient id="paint0_linear_506_425" x1="76" y1="3.8743e-07" x2="149.268" y2="14.6759" gradientUnits="userSpaceOnUse">
<stop stop-color="#41AD3F"/>
<stop offset="0.405" stop-color="#8736B9"/>
<stop offset="0.955" stop-color="#DD1C1C"/>
</linearGradient>
<linearGradient id="paint1_linear_506_425" x1="76" y1="31" x2="149.268" y2="45.6759" gradientUnits="userSpaceOnUse">
<stop stop-color="#41AD3F"/>
<stop offset="0.405" stop-color="#8736B9"/>
<stop offset="0.955" stop-color="#DD1C1C"/>
</linearGradient>
<linearGradient id="paint2_linear_506_425" x1="71" y1="57" x2="-2.26826" y2="42.3241" gradientUnits="userSpaceOnUse">
<stop stop-color="#41AD3F"/>
<stop offset="0.405" stop-color="#8736B9"/>
<stop offset="0.955" stop-color="#DD1C1C"/>
</linearGradient>
<linearGradient id="paint3_linear_506_425" x1="71" y1="26" x2="-2.26826" y2="11.3241" gradientUnits="userSpaceOnUse">
<stop stop-color="#41AD3F"/>
<stop offset="0.405" stop-color="#8736B9"/>
<stop offset="0.955" stop-color="#DD1C1C"/>
</linearGradient>
</defs>
</svg>
