<svg width="71" height="57" viewBox="0 0 71 57" fill="none" xmlns="http://www.w3.org/2000/svg">
<mask id="mask0_506_279" style="mask-type:alpha" maskUnits="userSpaceOnUse" x="-3" y="0" width="89" height="26">
<circle cx="5.5" cy="5" r="5" fill="#D9D9D9"/>
<circle cx="20.5" cy="5" r="5" fill="#D9D9D9"/>
<circle cx="35.5" cy="5" r="5" fill="#D9D9D9"/>
<circle cx="50.5" cy="5" r="5" fill="#D9D9D9"/>
<circle cx="65.5" cy="5" r="5" fill="#D9D9D9"/>
<circle cx="5.5" cy="21" r="5" fill="#D9D9D9"/>
<circle cx="20.5" cy="21" r="5" fill="#D9D9D9"/>
<circle cx="35.5" cy="21" r="5" fill="#D9D9D9"/>
<circle cx="50.5" cy="21" r="5" fill="#D9D9D9"/>
<circle cx="65.5" cy="21" r="5" fill="#D9D9D9"/>
</mask>
<g mask="url(#mask0_506_279)">
<path d="M71 26L0 26L0 0L71 0L71 26Z" fill="url(#paint0_linear_506_279)" fill-opacity="0.6"/>
</g>
<mask id="mask1_506_279" style="mask-type:alpha" maskUnits="userSpaceOnUse" x="-3" y="31" width="89" height="26">
<circle cx="5.5" cy="36" r="5" fill="#D9D9D9"/>
<circle cx="20.5" cy="36" r="5" fill="#D9D9D9"/>
<circle cx="35.5" cy="36" r="5" fill="#D9D9D9"/>
<circle cx="50.5" cy="36" r="5" fill="#D9D9D9"/>
<circle cx="65.5" cy="36" r="5" fill="#D9D9D9"/>
<circle cx="5.5" cy="52" r="5" fill="#D9D9D9"/>
<circle cx="20.5" cy="52" r="5" fill="#D9D9D9"/>
<circle cx="35.5" cy="52" r="5" fill="#D9D9D9"/>
<circle cx="50.5" cy="52" r="5" fill="#D9D9D9"/>
<circle cx="65.5" cy="52" r="5" fill="#D9D9D9"/>
</mask>
<g mask="url(#mask1_506_279)">
<path d="M71 57L0 57L0 31L71 31L71 57Z" fill="url(#paint1_linear_506_279)" fill-opacity="0.6"/>
</g>
<defs>
<linearGradient id="paint0_linear_506_279" x1="1.05798e-06" y1="3.8743e-07" x2="73.2683" y2="14.6759" gradientUnits="userSpaceOnUse">
<stop stop-color="#41AD3F"/>
<stop offset="0.405" stop-color="#8736B9"/>
<stop offset="0.955" stop-color="#DD1C1C"/>
</linearGradient>
<linearGradient id="paint1_linear_506_279" x1="1.05798e-06" y1="31" x2="73.2683" y2="45.6759" gradientUnits="userSpaceOnUse">
<stop stop-color="#41AD3F"/>
<stop offset="0.405" stop-color="#8736B9"/>
<stop offset="0.955" stop-color="#DD1C1C"/>
</linearGradient>
</defs>
</svg>
