<svg width="58" height="58" viewBox="0 0 112 112" fill="none" xmlns="http://www.w3.org/2000/svg">
<g filter="url(#filter0_d_1080_510)">
<g clip-path="url(#clip0_1080_510)">
<g clip-path="url(#clip1_1080_510)">
<mask id="mask0_1080_510" style="mask-type:luminance" maskUnits="userSpaceOnUse" x="4" y="0" width="100" height="99">
<path d="M103.714 0H4.71436V99H103.714V0Z" fill="white"/>
</mask>
<g mask="url(#mask0_1080_510)">
<path d="M80.5113 0H27.9175C15.1028 0 4.71436 10.3884 4.71436 23.2031V75.7969C4.71436 88.6116 15.1028 99 27.9175 99H80.5113C93.326 99 103.714 88.6116 103.714 75.7969V23.2031C103.714 10.3884 93.326 0 80.5113 0Z" fill="url(#paint0_linear_1080_510)"/>
<g filter="url(#filter1_d_1080_510)">
<path d="M55.7497 75.8576C67.2259 75.8576 74.1416 70.2382 74.1416 60.9701C74.1416 53.9639 69.2075 48.8921 61.8803 48.0889V47.7973C67.2635 46.9214 71.4876 41.9222 71.4876 36.3395C71.4876 28.3848 65.2077 23.2031 55.6375 23.2031H34.105V75.8576H55.7497ZM42.4788 29.8808H53.6189C59.6749 29.8808 63.114 32.5809 63.114 37.4705C63.114 42.6887 59.1141 45.6077 51.862 45.6077H42.4788V29.8808ZM42.4788 69.1801V51.8478H53.5438C61.4692 51.8478 65.5812 54.7667 65.5812 60.4592C65.5812 66.1513 61.5814 69.1801 54.0299 69.1801H42.4788Z" fill="url(#paint1_linear_1080_510)"/>
<path d="M55.7497 75.8576C67.2259 75.8576 74.1416 70.2382 74.1416 60.9701C74.1416 53.9639 69.2075 48.8921 61.8803 48.0889V47.7973C67.2635 46.9214 71.4876 41.9222 71.4876 36.3395C71.4876 28.3848 65.2077 23.2031 55.6375 23.2031H34.105V75.8576H55.7497ZM42.4788 29.8808H53.6189C59.6749 29.8808 63.114 32.5809 63.114 37.4705C63.114 42.6887 59.1141 45.6077 51.862 45.6077H42.4788V29.8808ZM42.4788 69.1801V51.8478H53.5438C61.4692 51.8478 65.5812 54.7667 65.5812 60.4592C65.5812 66.1513 61.5814 69.1801 54.0299 69.1801H42.4788Z" stroke="white" stroke-width="1.16"/>
</g>
</g>
</g>
</g>
</g>
<defs>
<filter id="filter0_d_1080_510" x="0" y="0" width="108" height="108" filterUnits="userSpaceOnUse" color-interpolation-filters="sRGB">
<feFlood flood-opacity="0" result="BackgroundImageFix"/>
<feColorMatrix in="SourceAlpha" type="matrix" values="0 0 0 0 0 0 0 0 0 0 0 0 0 0 0 0 0 0 127 0" result="hardAlpha"/>
<feOffset dy="4"/>
<feGaussianBlur stdDeviation="2"/>
<feComposite in2="hardAlpha" operator="out"/>
<feColorMatrix type="matrix" values="0 0 0 0 0 0 0 0 0 0 0 0 0 0 0 0 0 0 0.25 0"/>
<feBlend mode="normal" in2="BackgroundImageFix" result="effect1_dropShadow_1080_510"/>
<feBlend mode="normal" in="SourceGraphic" in2="effect1_dropShadow_1080_510" result="shape"/>
</filter>
<filter id="filter1_d_1080_510" x="24.2449" y="15.663" width="59.7568" height="72.3745" filterUnits="userSpaceOnUse" color-interpolation-filters="sRGB">
<feFlood flood-opacity="0" result="BackgroundImageFix"/>
<feColorMatrix in="SourceAlpha" type="matrix" values="0 0 0 0 0 0 0 0 0 0 0 0 0 0 0 0 0 0 127 0" result="hardAlpha"/>
<feOffset dy="2.32"/>
<feGaussianBlur stdDeviation="4.64"/>
<feColorMatrix type="matrix" values="0 0 0 0 0 0 0 0 0 0 0 0 0 0 0 0 0 0 0.15 0"/>
<feBlend mode="normal" in2="BackgroundImageFix" result="effect1_dropShadow_1080_510"/>
<feBlend mode="normal" in="SourceGraphic" in2="effect1_dropShadow_1080_510" result="shape"/>
</filter>
<linearGradient id="paint0_linear_1080_510" x1="4.71436" y1="0" x2="103.714" y2="99" gradientUnits="userSpaceOnUse">
<stop stop-color="#9013FE"/>
<stop offset="1" stop-color="#6B11F4"/>
</linearGradient>
<linearGradient id="paint1_linear_1080_510" x1="37.8922" y1="26.6689" x2="62.158" y2="67.7083" gradientUnits="userSpaceOnUse">
<stop stop-color="white"/>
<stop offset="1" stop-color="#F1E5FC"/>
</linearGradient>
<clipPath id="clip0_1080_510">
<rect x="4" width="100" height="100" rx="25" fill="white"/>
</clipPath>
<clipPath id="clip1_1080_510">
<rect width="100" height="100" fill="white" transform="translate(3.71436)"/>
</clipPath>
</defs>
</svg>
