<svg width="101" height="100" viewBox="0 0 101 100" fill="none" xmlns="http://www.w3.org/2000/svg">
<g clip-path="url(#clip0_1080_510)">
<rect x="0.333496" width="100" height="100" rx="25" />
<mask id="mask0_1080_510" style="mask-type:luminance" maskUnits="userSpaceOnUse" x="0" y="0" width="101" height="101">
<path d="M101 0H0V101H101V0Z" fill="white"/>
</mask>
<g mask="url(#mask0_1080_510)">
<path d="M77.3281 0H23.6719C10.5983 0 0 10.5983 0 23.6719V77.3281C0 90.4017 10.5983 101 23.6719 101H77.3281C90.4017 101 101 90.4017 101 77.3281V23.6719C101 10.5983 90.4017 0 77.3281 0Z" fill="url(#paint0_linear_1080_510)"/>
<g filter="url(#filter0_d_1080_510)">
<path d="M52.0663 77.3901C63.7744 77.3901 70.8298 71.6572 70.8298 62.2018C70.8298 55.0541 65.796 49.8798 58.3208 49.0604V48.7629C63.8127 47.8693 68.1222 42.7691 68.1222 37.0737C68.1222 28.9583 61.7154 23.6719 51.9519 23.6719H29.9844V77.3901H52.0663ZM38.5273 30.4845H49.8925C56.0708 30.4845 59.5794 33.2391 59.5794 38.2275C59.5794 43.5511 55.4987 46.5291 48.1001 46.5291H38.5273V30.4845ZM38.5273 70.5777V52.8953H49.8159C57.9014 52.8953 62.0965 55.8731 62.0965 61.6806C62.0965 67.4877 58.0159 70.5777 50.3118 70.5777H38.5273Z" fill="url(#paint1_linear_1080_510)"/>
<path d="M52.0663 77.3901C63.7744 77.3901 70.8298 71.6572 70.8298 62.2018C70.8298 55.0541 65.796 49.8798 58.3208 49.0604V48.7629C63.8127 47.8693 68.1222 42.7691 68.1222 37.0737C68.1222 28.9583 61.7154 23.6719 51.9519 23.6719H29.9844V77.3901H52.0663ZM38.5273 30.4845H49.8925C56.0708 30.4845 59.5794 33.2391 59.5794 38.2275C59.5794 43.5511 55.4987 46.5291 48.1001 46.5291H38.5273V30.4845ZM38.5273 70.5777V52.8953H49.8159C57.9014 52.8953 62.0965 55.8731 62.0965 61.6806C62.0965 67.4877 58.0159 70.5777 50.3118 70.5777H38.5273Z" stroke="white" stroke-width="1.16"/>
</g>
</g>
</g>
<defs>
<filter id="filter0_d_1080_510" x="20.1243" y="16.1318" width="60.5656" height="73.4384" filterUnits="userSpaceOnUse" color-interpolation-filters="sRGB">
<feFlood flood-opacity="0" result="BackgroundImageFix"/>
<feColorMatrix in="SourceAlpha" type="matrix" values="0 0 0 0 0 0 0 0 0 0 0 0 0 0 0 0 0 0 127 0" result="hardAlpha"/>
<feOffset dy="2.32"/>
<feGaussianBlur stdDeviation="4.64"/>
<feColorMatrix type="matrix" values="0 0 0 0 0 0 0 0 0 0 0 0 0 0 0 0 0 0 0.15 0"/>
<feBlend mode="normal" in2="BackgroundImageFix" result="effect1_dropShadow_1080_510"/>
<feBlend mode="normal" in="SourceGraphic" in2="effect1_dropShadow_1080_510" result="shape"/>
</filter>
<linearGradient id="paint0_linear_1080_510" x1="0" y1="0" x2="101" y2="101" gradientUnits="userSpaceOnUse">
<stop stop-color="#9013FE"/>
<stop offset="1" stop-color="#6B11F4"/>
</linearGradient>
<linearGradient id="paint1_linear_1080_510" x1="33.8481" y1="27.2077" x2="58.6041" y2="69.0762" gradientUnits="userSpaceOnUse">
<stop stop-color="white"/>
<stop offset="1" stop-color="#F1E5FC"/>
</linearGradient>
<clipPath id="clip0_1080_510">
<rect x="0.333496" width="100" height="100" rx="25" fill="white"/>
</clipPath>
</defs>
</svg>
