<svg width="58" height="58" viewBox="0 0 58 58" fill="none" xmlns="http://www.w3.org/2000/svg">
<g filter="url(#filter0_d_984_430)">
<g clip-path="url(#clip0_984_430)">
<g clip-path="url(#clip1_984_430)">
<path d="M41.8527 0H15.2902C8.81807 0 3.57141 5.24666 3.57141 11.7188V38.2812C3.57141 44.7533 8.81807 50 15.2902 50H41.8527C48.3247 50 53.5714 44.7533 53.5714 38.2812V11.7188C53.5714 5.24666 48.3247 0 41.8527 0Z" fill="#0277BD"/>
<path d="M14.07 20.049L14.6291 26.2877H28.5902V20.049H14.07Z" fill="#EBEBEB"/>
<path d="M28.59 7.42188H28.5685H12.9464L13.5135 13.6606H28.59V7.42188Z" fill="#EBEBEB"/>
<path d="M28.59 42.7424V36.2516L28.5626 36.2588L21.6146 34.3828L21.1705 29.407H17.7943H14.9078L15.7819 39.2027L28.5613 42.7504L28.59 42.7424Z" fill="#EBEBEB"/>
<path d="M36.2507 26.2877L35.5265 34.3787L28.5685 36.2568V42.7473L41.3581 39.2027L41.4519 38.1486L42.9179 21.7244L43.07 20.049L44.1964 7.42188H28.5685V13.6606H37.3593L36.7917 20.049H28.5685V26.2877H36.2507Z" fill="white"/>
</g>
</g>
</g>
<defs>
<filter id="filter0_d_984_430" x="0" y="0" width="58" height="58" filterUnits="userSpaceOnUse" color-interpolation-filters="sRGB">
<feFlood flood-opacity="0" result="BackgroundImageFix"/>
<feColorMatrix in="SourceAlpha" type="matrix" values="0 0 0 0 0 0 0 0 0 0 0 0 0 0 0 0 0 0 127 0" result="hardAlpha"/>
<feOffset dy="4"/>
<feGaussianBlur stdDeviation="2"/>
<feComposite in2="hardAlpha" operator="out"/>
<feColorMatrix type="matrix" values="0 0 0 0 0 0 0 0 0 0 0 0 0 0 0 0 0 0 0.25 0"/>
<feBlend mode="normal" in2="BackgroundImageFix" result="effect1_dropShadow_984_430"/>
<feBlend mode="normal" in="SourceGraphic" in2="effect1_dropShadow_984_430" result="shape"/>
</filter>
<clipPath id="clip0_984_430">
<rect x="4" width="50" height="50" rx="5" fill="white"/>
</clipPath>
<clipPath id="clip1_984_430">
<rect width="50" height="50" fill="white" transform="translate(3.57141)"/>
</clipPath>
</defs>
</svg>
