<svg width="101" height="100" viewBox="0 0 101 100" fill="none" xmlns="http://www.w3.org/2000/svg">
<g clip-path="url(#clip0_1081_733)">
<g clip-path="url(#clip1_1081_733)">
<path d="M76.8481 0H23.7231C10.779 0 0.285645 10.4933 0.285645 23.4375V76.5625C0.285645 89.5067 10.779 100 23.7231 100H76.8481C89.7923 100 100.286 89.5067 100.286 76.5625V23.4375C100.286 10.4933 89.7923 0 76.8481 0Z" fill="#0277BD"/>
<path d="M21.2827 40.0981L22.401 52.5755H50.3231V40.0981H21.2827Z" fill="#EBEBEB"/>
<path d="M50.3228 14.8438H50.2798H19.0356L20.1699 27.3212H50.3228V14.8438Z" fill="#EBEBEB"/>
<path d="M50.3228 85.4847V72.503L50.2681 72.5175L36.3721 68.7655L35.4838 58.814H28.7313H22.9585L24.7065 78.4054L50.2653 85.5007L50.3228 85.4847Z" fill="#EBEBEB"/>
<path d="M65.6442 52.5754L64.1958 68.7574L50.2798 72.5137V85.4945L75.8591 78.4055L76.0466 76.2973L78.9786 43.4488L79.2829 40.098L81.5356 14.8438H50.2798V27.3212H67.8614L66.7263 40.098H50.2798V52.5754H65.6442Z" fill="white"/>
</g>
</g>
<defs>
<clipPath id="clip0_1081_733">
<rect x="0.285645" width="100" height="100" rx="25" fill="white"/>
</clipPath>
<clipPath id="clip1_1081_733">
<rect width="100" height="100" fill="white" transform="translate(0.285645)"/>
</clipPath>
</defs>
</svg>
