<svg width="108" height="108" viewBox="0 0 108 108" fill="none" xmlns="http://www.w3.org/2000/svg">
<g filter="url(#filter0_d_1088_423)">
<g clip-path="url(#clip0_1088_423)">
<g clip-path="url(#clip1_1088_423)">
<path d="M80.5625 0H27.4375C14.4933 0 4 10.4933 4 23.4375V76.5625C4 89.5067 14.4933 100 27.4375 100H80.5625C93.5067 100 104 89.5067 104 76.5625V23.4375C104 10.4933 93.5067 0 80.5625 0Z" fill="#F03C2E"/>
<mask id="mask0_1088_423" style="mask-type:luminance" maskUnits="userSpaceOnUse" x="14" y="10" width="80" height="80">
<path d="M93.0625 10.9375H14.9375V89.0625H93.0625V10.9375Z" fill="white"/>
</mask>
<g mask="url(#mask0_1088_423)">
<path d="M91.5879 46.5209L57.4789 12.4119C57.0122 11.9446 56.4575 11.574 55.8473 11.3211C55.2368 11.0681 54.5825 10.938 53.9219 10.938C53.2614 10.938 52.6071 11.0681 51.9965 11.3211C51.3864 11.574 50.8317 11.9446 50.3649 12.4119L43.2848 19.492L52.2692 28.4764C54.359 27.744 56.7516 28.2444 58.4164 29.9095C59.209 30.7035 59.7625 31.7044 60.0133 32.798C60.2641 33.8915 60.2024 35.0335 59.8348 36.0936L68.4946 44.7533C70.5895 44.0307 73.0063 44.4967 74.6786 46.174C75.2348 46.7303 75.6758 47.3904 75.9766 48.117C76.2774 48.8436 76.4321 49.6221 76.4321 50.4084C76.4317 51.1947 76.277 51.9733 75.9758 52.6998C75.6746 53.426 75.2336 54.0862 74.6774 54.642C74.1215 55.1983 73.4614 55.6389 72.7348 55.9397C72.0082 56.2408 71.2297 56.3955 70.4434 56.3951C69.6571 56.3951 68.8782 56.2401 68.152 55.9393C67.4254 55.6381 66.7653 55.1971 66.2094 54.6408C64.4516 52.883 64.0172 50.2951 64.9059 48.1295L56.8297 40.0533V61.3061C57.4161 61.5959 57.9516 61.9787 58.4164 62.4389C58.9723 62.9947 59.4133 63.6545 59.7145 64.3811C60.0153 65.1072 60.17 65.8858 60.17 66.6721C60.17 67.4584 60.0153 68.2369 59.7145 68.9631C59.4133 69.6897 58.9723 70.3498 58.4164 70.9057C57.8606 71.4615 57.2004 71.9026 56.4743 72.2033C55.7477 72.5041 54.9692 72.6592 54.1832 72.6592C53.3969 72.6592 52.6184 72.5041 51.8922 72.2033C51.1657 71.9026 50.5055 71.4615 49.9496 70.9057C49.393 70.3498 48.9516 69.6901 48.6504 68.9639C48.3489 68.2373 48.1938 67.4584 48.1938 66.6721C48.1938 65.8858 48.3489 65.1072 48.6504 64.3807C48.9516 63.6541 49.393 62.9944 49.9496 62.4389C50.5282 61.8627 51.1704 61.4256 51.9102 61.1326V39.6822C51.1973 39.3893 50.5282 38.9573 49.9496 38.3763C49.109 37.5367 48.5375 36.4657 48.3079 35.3C48.0786 34.1342 48.2012 32.9265 48.6606 31.8309L39.7984 22.9735L16.4097 46.3377C15.9421 46.8049 15.5711 47.3596 15.318 47.9701C15.0648 48.5807 14.9346 49.235 14.9346 49.8959C14.9346 50.5569 15.0648 51.2115 15.318 51.8221C15.5711 52.4326 15.9421 52.9873 16.4097 53.4545L50.5211 87.5608C50.9879 88.028 51.5426 88.3987 52.1528 88.6518C52.7633 88.9045 53.4176 89.0346 54.0782 89.0346C54.7387 89.0346 55.393 88.9045 56.0036 88.6518C56.6137 88.3987 57.1684 88.028 57.6352 87.5608L91.5879 53.6619C92.0555 53.1947 92.4266 52.6401 92.6797 52.0295C92.9329 51.419 93.0629 50.7647 93.0629 50.1037C93.0629 49.4428 92.9329 48.7881 92.6797 48.1776C92.4266 47.567 92.0555 47.0123 91.5879 46.5451" fill="white"/>
</g>
</g>
</g>
</g>
<defs>
<filter id="filter0_d_1088_423" x="0" y="0" width="108" height="108" filterUnits="userSpaceOnUse" color-interpolation-filters="sRGB">
<feFlood flood-opacity="0" result="BackgroundImageFix"/>
<feColorMatrix in="SourceAlpha" type="matrix" values="0 0 0 0 0 0 0 0 0 0 0 0 0 0 0 0 0 0 127 0" result="hardAlpha"/>
<feOffset dy="4"/>
<feGaussianBlur stdDeviation="2"/>
<feComposite in2="hardAlpha" operator="out"/>
<feColorMatrix type="matrix" values="0 0 0 0 0 0 0 0 0 0 0 0 0 0 0 0 0 0 0.25 0"/>
<feBlend mode="normal" in2="BackgroundImageFix" result="effect1_dropShadow_1088_423"/>
<feBlend mode="normal" in="SourceGraphic" in2="effect1_dropShadow_1088_423" result="shape"/>
</filter>
<clipPath id="clip0_1088_423">
<rect x="4" width="100" height="100" rx="25" fill="white"/>
</clipPath>
<clipPath id="clip1_1088_423">
<rect width="100" height="100" fill="white" transform="translate(4)"/>
</clipPath>
</defs>
</svg>
