<svg width="101" height="100" viewBox="0 0 101 100" fill="none" xmlns="http://www.w3.org/2000/svg">
<g clip-path="url(#clip0_1088_423)">
<rect x="0.00012207" width="100" height="100" rx="25"/>
<path d="M76.5626 0H23.4376C10.4934 0 0.00012207 10.4933 0.00012207 23.4375V76.5625C0.00012207 89.5067 10.4934 100 23.4376 100H76.5626C89.5068 100 100 89.5067 100 76.5625V23.4375C100 10.4933 89.5068 0 76.5626 0Z" fill="#F03C2E"/>
<mask id="mask0_1088_423" style="mask-type:luminance" maskUnits="userSpaceOnUse" x="11" y="11" width="79" height="79">
<path d="M89.1251 11H11.0001V89.125H89.1251V11Z" fill="white"/>
</mask>
<g mask="url(#mask0_1088_423)">
<path d="M87.6506 46.5834L53.5416 12.4744C53.0748 12.0071 52.5201 11.6365 51.9099 11.3836C51.2994 11.1306 50.6451 11.0005 49.9845 11.0005C49.324 11.0005 48.6697 11.1306 48.0591 11.3836C47.449 11.6365 46.8943 12.0071 46.4275 12.4744L39.3474 19.5545L48.3318 28.5389C50.4216 27.8065 52.8142 28.3069 54.4791 29.972C55.2716 30.766 55.8252 31.7669 56.0759 32.8605C56.3267 33.954 56.265 35.096 55.8974 36.1561L64.5572 44.8158C66.6521 44.0932 69.0689 44.5592 70.7412 46.2365C71.2974 46.7928 71.7384 47.4529 72.0392 48.1795C72.34 48.9061 72.4947 49.6846 72.4947 50.4709C72.4943 51.2572 72.3396 52.0358 72.0384 52.7623C71.7373 53.4885 71.2963 54.1487 70.74 54.7045C70.1841 55.2608 69.524 55.7014 68.7974 56.0022C68.0709 56.3033 67.2923 56.458 66.506 56.4576C65.7197 56.4576 64.9408 56.3026 64.2146 56.0018C63.4881 55.7006 62.8279 55.2596 62.272 54.7033C60.5142 52.9455 60.0799 50.3576 60.9685 48.192L52.8923 40.1158V61.3686C53.4787 61.6584 54.0142 62.0412 54.4791 62.5014C55.0349 63.0572 55.4759 63.717 55.7771 64.4436C56.0779 65.1697 56.2326 65.9483 56.2326 66.7346C56.2326 67.5209 56.0779 68.2994 55.7771 69.0256C55.4759 69.7522 55.0349 70.4123 54.4791 70.9682C53.9232 71.524 53.2631 71.9651 52.5369 72.2658C51.8103 72.5666 51.0318 72.7217 50.2459 72.7217C49.4595 72.7217 48.681 72.5666 47.9548 72.2658C47.2283 71.9651 46.5681 71.524 46.0123 70.9682C45.4556 70.4123 45.0142 69.7526 44.7131 69.0264C44.4115 68.2998 44.2564 67.5209 44.2564 66.7346C44.2564 65.9483 44.4115 65.1697 44.7131 64.4432C45.0142 63.7166 45.4556 63.0569 46.0123 62.5014C46.5908 61.9252 47.233 61.4881 47.9728 61.1951V39.7447C47.2599 39.4518 46.5908 39.0198 46.0123 38.4388C45.1716 37.5992 44.6002 36.5282 44.3705 35.3625C44.1412 34.1967 44.2638 32.989 44.7232 31.8934L35.861 23.036L12.4723 46.4002C12.0047 46.8674 11.6337 47.4221 11.3806 48.0326C11.1275 48.6432 10.9972 49.2975 10.9972 49.9584C10.9972 50.6194 11.1275 51.274 11.3806 51.8846C11.6337 52.4951 12.0047 53.0498 12.4723 53.517L46.5838 87.6233C47.0506 88.0905 47.6052 88.4612 48.2154 88.7143C48.8259 88.967 49.4802 89.0971 50.1408 89.0971C50.8013 89.0971 51.4556 88.967 52.0662 88.7143C52.6763 88.4612 53.231 88.0905 53.6978 87.6233L87.6506 53.7244C88.1181 53.2572 88.4892 52.7026 88.7423 52.092C88.9955 51.4815 89.1256 50.8272 89.1256 50.1662C89.1256 49.5053 88.9955 48.8506 88.7423 48.2401C88.4892 47.6295 88.1181 47.0748 87.6506 46.6076" fill="white"/>
</g>
</g>
<defs>
<clipPath id="clip0_1088_423">
<rect x="0.00012207" width="100" height="100" rx="25" fill="white"/>
</clipPath>
</defs>
</svg>
