<svg width="101" height="100" viewBox="0 0 101 100" fill="none" xmlns="http://www.w3.org/2000/svg">
<g clip-path="url(#clip0_1080_517)">
<rect x="0.666748" width="100" height="100" rx="25"/>
<mask id="mask0_1080_517" style="mask-type:luminance" maskUnits="userSpaceOnUse" x="0" y="-1" width="102" height="102">
<path d="M101.095 -1H0V100.095H101.095V-1Z" fill="white"/>
</mask>
<g mask="url(#mask0_1080_517)">
<mask id="mask1_1080_517" style="mask-type:luminance" maskUnits="userSpaceOnUse" x="0" y="-1" width="102" height="102">
<path d="M101.095 -1H0V100.095H101.095V-1Z" fill="white"/>
</mask>
<g mask="url(#mask1_1080_517)">
<path d="M77.4012 -1H23.6942C10.6083 -1 0 9.60825 0 22.6942V76.4012C0 89.4872 10.6083 100.095 23.6942 100.095H77.4012C90.4872 100.095 101.095 89.4872 101.095 76.4012V22.6942C101.095 9.60825 90.4872 -1 77.4012 -1Z" fill="#242938"/>
<path d="M29.8613 14.0063L43.5335 37.6857L29.8546 61.3984L16.1912 37.6857L29.8613 14.0063Z" fill="#59666C"/>
<path d="M57.2102 14.0073H29.8689L43.5413 37.6868H70.89L57.2102 14.0073Z" fill="#BCAE79"/>
<path d="M70.8757 85.0895L57.2034 61.4102L70.8825 37.6973L84.5457 61.4102L70.8757 85.0895Z" fill="#59666C"/>
<path d="M43.5267 85.087H70.8714L57.2101 61.4077H29.8467L43.5267 85.087Z" fill="#BCAE79"/>
</g>
</g>
</g>
<defs>
<clipPath id="clip0_1080_517">
<rect x="0.666748" width="100" height="100" rx="25" fill="white"/>
</clipPath>
</defs>
</svg>
