<svg width="101" height="100" viewBox="0 0 101 100" fill="none" xmlns="http://www.w3.org/2000/svg">
<g clip-path="url(#clip0_1081_740)">
<g clip-path="url(#clip1_1081_740)">
<path d="M77.1338 0H24.0088C11.0646 0 0.571289 10.4933 0.571289 23.4375V76.5625C0.571289 89.5067 11.0646 100 24.0088 100H77.1338C90.078 100 100.571 89.5067 100.571 76.5625V23.4375C100.571 10.4933 90.078 0 77.1338 0Z" fill="#F0DB4F"/>
<path d="M26.8649 83.5671L34.5176 78.9358C35.994 81.5534 37.337 83.7683 40.5584 83.7683C43.6463 83.7683 45.5931 82.5604 45.5931 77.862V45.9097H54.9908V77.9948C54.9908 87.728 49.2853 92.1585 40.9611 92.1585C33.4437 92.1585 29.0798 88.2651 26.8647 83.5663" fill="#323330"/>
<path d="M60.0952 82.56L67.7468 78.1299C69.7612 81.4193 72.3792 83.8357 77.0105 83.8357C80.9046 83.8357 83.3874 81.8889 83.3874 79.2037C83.3874 75.9818 80.8366 74.8404 76.5405 72.9615L74.1917 71.9541C67.4116 69.0682 62.914 65.4432 62.914 57.7908C62.914 50.7424 68.2843 45.3721 76.6753 45.3721C82.6495 45.3721 86.9456 47.4533 90.0331 52.8904L82.7163 57.5893C81.105 54.7029 79.3605 53.5619 76.6753 53.5619C73.923 53.5619 72.1776 55.3072 72.1776 57.5893C72.1776 60.4084 73.9229 61.5498 77.9503 63.2955L80.2995 64.3021C88.2874 67.726 92.7851 71.2158 92.7851 79.0693C92.7851 87.5279 86.1397 92.1592 77.212 92.1592C68.4858 92.1592 62.8472 87.9975 60.0952 82.56Z" fill="#323330"/>
</g>
</g>
<defs>
<clipPath id="clip0_1081_740">
<rect x="0.571289" width="100" height="100" rx="25" fill="white"/>
</clipPath>
<clipPath id="clip1_1081_740">
<rect width="100" height="100" fill="white" transform="translate(0.571289)"/>
</clipPath>
</defs>
</svg>
