<svg width="101" height="100" viewBox="0 0 101 100" fill="none" xmlns="http://www.w3.org/2000/svg">
<g clip-path="url(#clip0_1081_761)">
<rect x="0.714233" width="100" height="100" rx="25"/>
<g clip-path="url(#clip1_1081_761)">
<path d="M77.3281 0H23.6719C10.5983 0 0 10.4933 0 23.4375V76.5625C0 89.5067 10.5983 100 23.6719 100H77.3281C90.4017 100 101 89.5067 101 76.5625V23.4375C101 10.4933 90.4017 0 77.3281 0Z" fill="#F4F2ED"/>
<path d="M40.0978 71.3357C40.0978 71.3357 37.0681 73.1615 42.2066 73.6838C48.4118 74.4666 51.6927 74.3357 58.5429 73.0322C58.5429 73.0322 60.387 74.2076 62.8907 75.1197C47.4743 81.6416 27.9758 74.7283 40.0978 71.3357ZM38.1217 62.8572C38.1217 62.8572 34.8274 65.3361 39.9656 65.8568C46.6837 66.5088 51.9558 66.6396 61.0466 64.815C61.0466 64.815 62.2338 66.1201 64.2088 66.7721C45.6331 72.2506 24.815 67.2928 38.1217 62.8584V62.8572ZM74.4855 77.7283C74.4855 77.7283 76.7249 79.5541 71.9818 80.99C63.1538 83.5986 34.9596 84.3826 27.0544 80.99C24.2889 79.8146 29.5582 78.1181 31.27 77.8592C32.9833 77.4678 33.9047 77.4678 33.9047 77.4678C30.8748 75.3803 13.7464 81.7724 25.2089 83.6119C56.6977 88.7006 82.6539 81.3947 74.4844 77.7416L74.4855 77.7283ZM41.5469 53.9857C41.5469 53.9857 27.1853 57.3783 36.4071 58.551C40.3598 59.0717 48.1328 58.9424 55.3796 58.4201C61.3086 57.899 67.251 56.8549 67.251 56.8549C67.251 56.8549 65.1422 57.7681 63.6935 58.6806C49.0568 62.467 20.9933 60.7709 29.0307 56.8572C35.8836 53.5955 41.5469 53.9857 41.5469 53.9857ZM67.2372 68.2049C81.9954 60.6385 75.1424 53.3338 70.3994 54.2474C69.2122 54.508 68.6863 54.7685 68.6863 54.7685C68.6863 54.7685 69.0812 53.9857 70.0041 53.7267C79.358 50.465 86.7373 63.5103 66.9744 68.5978C66.9744 68.5978 67.1066 68.467 67.2372 68.2064V68.2049ZM42.9956 88.8142C57.2252 89.7279 78.9642 88.2931 79.4917 81.6388C79.4917 81.6388 78.4395 84.2474 67.7663 86.2045C55.6455 88.4217 40.6241 88.1611 31.7975 86.7252C31.7975 86.7252 33.6416 88.2904 42.9968 88.8127L42.9956 88.8142Z" fill="#4E7896"/>
<path d="M58.2664 10.9375C58.2664 10.9375 66.4347 19.1558 50.4933 31.5466C37.7129 41.5906 47.5931 47.3312 50.4933 53.852C42.9834 47.2004 37.5834 41.3289 41.2703 35.8501C46.6853 27.7667 61.5713 23.8533 58.2664 10.9375ZM54.0508 48.3758C57.871 52.6805 52.9986 56.5941 52.9986 56.5941C52.9986 56.5941 62.7478 51.6387 58.2691 45.5055C54.1841 39.6352 51.0224 36.765 68.1506 26.98C68.1506 26.98 41.1405 33.6316 54.0536 48.373L54.0508 48.3758Z" fill="#F58219"/>
</g>
</g>
<defs>
<clipPath id="clip0_1081_761">
<rect x="0.714233" width="100" height="100" rx="25" fill="white"/>
</clipPath>
<clipPath id="clip1_1081_761">
<rect width="101" height="100" fill="white"/>
</clipPath>
</defs>
</svg>
