<svg width="58" height="58" viewBox="0 0 58 58" fill="none" xmlns="http://www.w3.org/2000/svg">
<g filter="url(#filter0_d_984_458)">
<g clip-path="url(#clip0_984_458)">
<g clip-path="url(#clip1_984_458)">
<path d="M42.7097 0H16.1472C9.67513 0 4.42847 5.24666 4.42847 11.7188V38.2812C4.42847 44.7533 9.67513 50 16.1472 50H42.7097C49.1818 50 54.4285 44.7533 54.4285 38.2812V11.7188C54.4285 5.24666 49.1818 0 42.7097 0Z" fill="#F4F2ED"/>
<path d="M24.2789 35.6678C24.2789 35.6678 22.779 36.5807 25.3228 36.8418C28.3947 37.2332 30.0189 37.1678 33.4101 36.516C33.4101 36.516 34.323 37.1037 35.5625 37.5598C27.9306 40.8207 18.2779 37.3641 24.2789 35.6678ZM23.3006 31.4285C23.3006 31.4285 21.6697 32.668 24.2134 32.9283C27.5392 33.2543 30.1492 33.3197 34.6496 32.4074C34.6496 32.4074 35.2373 33.06 36.215 33.3859C27.0191 36.1252 16.7131 33.6463 23.3006 31.4291V31.4285ZM41.3025 38.8641C41.3025 38.8641 42.4111 39.7769 40.063 40.4949C35.6927 41.7992 21.7352 42.1912 17.8217 40.4949C16.4527 39.9072 19.0612 39.059 19.9087 38.9295C20.7568 38.7338 21.213 38.7338 21.213 38.7338C19.713 37.69 11.2336 40.8861 16.9081 41.8059C32.4966 44.3502 45.3462 40.6973 41.3019 38.8707L41.3025 38.8641ZM24.9962 26.9928C24.9962 26.9928 17.8865 28.6891 22.4518 29.2754C24.4085 29.5357 28.2566 29.4711 31.8441 29.21C34.7793 28.9494 37.721 28.4273 37.721 28.4273C37.721 28.4273 36.6771 28.884 35.9599 29.3402C28.714 31.2334 14.8212 30.3853 18.8001 28.4285C22.1926 26.7977 24.9962 26.9928 24.9962 26.9928ZM37.7142 34.1023C45.0203 30.3191 41.6277 26.6668 39.2796 27.1236C38.6919 27.2539 38.4316 27.3842 38.4316 27.3842C38.4316 27.3842 38.6271 26.9928 39.0839 26.8633C43.7146 25.2324 47.3677 31.7551 37.5841 34.2988C37.5841 34.2988 37.6496 34.2334 37.7142 34.1031V34.1023ZM25.7134 44.407C32.7578 44.8639 43.5197 44.1465 43.7808 40.8193C43.7808 40.8193 43.2599 42.1236 37.9761 43.1021C31.9757 44.2107 24.5394 44.0805 20.1698 43.3625C20.1698 43.3625 21.0827 44.1451 25.714 44.4062L25.7134 44.407Z" fill="#4E7896"/>
<path d="M33.2732 5.46875C33.2732 5.46875 37.3169 9.57789 29.4252 15.7733C23.0982 20.7953 27.9894 23.6656 29.4252 26.926C25.7074 23.6002 23.0341 20.6645 24.8593 17.925C27.54 13.8834 34.9093 11.9266 33.2732 5.46875ZM31.1863 24.1879C33.0775 26.3402 30.6654 28.2971 30.6654 28.2971C30.6654 28.2971 35.4918 25.8193 33.2746 22.7527C31.2523 19.8176 29.6871 18.3825 38.1664 13.49C38.1664 13.49 24.7951 16.8158 31.1877 24.1865L31.1863 24.1879Z" fill="#F58219"/>
</g>
</g>
</g>
<defs>
<filter id="filter0_d_984_458" x="0" y="0" width="58" height="58" filterUnits="userSpaceOnUse" color-interpolation-filters="sRGB">
<feFlood flood-opacity="0" result="BackgroundImageFix"/>
<feColorMatrix in="SourceAlpha" type="matrix" values="0 0 0 0 0 0 0 0 0 0 0 0 0 0 0 0 0 0 127 0" result="hardAlpha"/>
<feOffset dy="4"/>
<feGaussianBlur stdDeviation="2"/>
<feComposite in2="hardAlpha" operator="out"/>
<feColorMatrix type="matrix" values="0 0 0 0 0 0 0 0 0 0 0 0 0 0 0 0 0 0 0.25 0"/>
<feBlend mode="normal" in2="BackgroundImageFix" result="effect1_dropShadow_984_458"/>
<feBlend mode="normal" in="SourceGraphic" in2="effect1_dropShadow_984_458" result="shape"/>
</filter>
<clipPath id="clip0_984_458">
<rect x="4" width="50" height="50" rx="5" fill="white"/>
</clipPath>
<clipPath id="clip1_984_458">
<rect width="50" height="50" fill="white" transform="translate(4.42847)"/>
</clipPath>
</defs>
</svg>
