<svg width="101" height="100" viewBox="0 0 101 100" fill="none" xmlns="http://www.w3.org/2000/svg">
<g clip-path="url(#clip0_1080_522)">
<rect width="100" height="100" rx="25"/>
<mask id="mask0_1080_522" style="mask-type:luminance" maskUnits="userSpaceOnUse" x="0" y="0" width="100" height="100">
<path d="M100 0H0V100H100V0Z" fill="white"/>
</mask>
<g mask="url(#mask0_1080_522)">
<path d="M76.5625 0H23.4375C10.4933 0 0 10.4933 0 23.4375V76.5625C0 89.5067 10.4933 100 23.4375 100H76.5625C89.5067 100 100 89.5067 100 76.5625V23.4375C100 10.4933 89.5067 0 76.5625 0Z" fill="#023430"/>
<path d="M66.8645 42.0278C62.7485 23.871 54.1703 19.0374 51.982 15.6205C51.0797 14.1154 50.2801 12.5507 49.5895 10.9375C49.4739 12.5505 49.2613 13.5667 47.8902 14.7898C45.1375 17.2444 33.446 26.7716 32.462 47.4015C31.5454 66.6367 46.6027 78.4973 48.5918 79.7235C50.1215 80.4762 51.9844 79.7395 52.8934 79.0484C60.1516 74.0672 70.0688 60.7867 66.8723 42.0278" fill="#10AA50"/>
<path d="M50.213 69.481C49.8341 74.242 49.5626 77.0083 48.6001 79.729C48.6001 79.729 49.2317 84.2615 49.6755 89.0627H51.2455C51.62 85.6818 52.1915 82.3255 52.958 79.0111C50.9256 78.0111 50.2911 73.6587 50.213 69.481Z" fill="#B8C4C2"/>
<path d="M52.9551 79.0138C50.9012 78.0649 50.3071 73.6207 50.2157 69.4809C50.7234 62.6516 50.8715 55.8004 50.6594 48.9556C50.5515 45.3642 50.7101 15.6905 49.7747 11.3462C50.4149 12.8176 51.1519 14.2447 51.982 15.618C54.1703 19.0375 62.7512 23.871 66.8645 42.0278C70.0688 60.7548 60.2055 74 52.9551 79.0138Z" fill="#12924F"/>
</g>
</g>
<defs>
<clipPath id="clip0_1080_522">
<rect width="100" height="100" rx="25" fill="white"/>
</clipPath>
</defs>
</svg>
