<svg width="108" height="108" viewBox="0 0 108 108" fill="none" xmlns="http://www.w3.org/2000/svg">
<g filter="url(#filter0_d_1080_533)">
<g clip-path="url(#clip0_1080_533)">
<g clip-path="url(#clip1_1080_533)">
<mask id="mask0_1080_533" style="mask-type:luminance" maskUnits="userSpaceOnUse" x="3" y="1" width="100" height="99">
<path d="M102.572 1H3.57153V100H102.572V1Z" fill="white"/>
</mask>
<g mask="url(#mask0_1080_533)">
<path d="M79.3684 1H26.7746C13.9599 1 3.57153 11.3884 3.57153 24.2031V76.7969C3.57153 89.6116 13.9599 100 26.7746 100H79.3684C92.1831 100 102.572 89.6116 102.572 76.7969V24.2031C102.572 11.3884 92.1831 1 79.3684 1Z" fill="#242938"/>
<mask id="mask1_1080_533" style="mask-type:luminance" maskUnits="userSpaceOnUse" x="18" y="15" width="70" height="71">
<path d="M87.8763 15.6953H18.2668V85.3047H87.8763V15.6953Z" fill="white"/>
</mask>
<g mask="url(#mask1_1080_533)">
<path fill-rule="evenodd" clip-rule="evenodd" d="M82.3853 69.917C78.5993 69.8118 75.6621 70.1997 73.2006 71.2353C72.4918 71.52 71.3545 71.52 71.2609 72.4121C71.6399 72.7865 71.6856 73.399 72.0177 73.918C72.5851 74.8597 73.5805 76.1281 74.4792 76.7863L77.5088 78.9512C79.355 80.0792 81.4378 80.7386 83.2365 81.8678C84.2783 82.5268 85.3193 83.3737 86.3611 84.0802C86.8917 84.4565 87.2131 85.0694 87.8763 85.3034V85.1611C87.5453 84.7392 87.4498 84.1278 87.1199 83.6552L85.6979 82.2916C84.3262 80.457 82.6208 78.856 80.7746 77.54C79.2594 76.5048 75.9468 75.0936 75.3311 73.3538L75.2379 73.2482C76.2778 73.143 77.5087 72.7768 78.5037 72.4945C80.1144 72.0726 81.5809 72.1654 83.2365 71.7423L85.5104 71.0834V70.6614C84.658 69.8149 84.0428 68.6853 83.144 67.8864C80.7301 65.8162 78.0772 63.7926 75.3311 62.0991C73.8639 61.1586 71.9697 60.5457 70.4077 59.7475C69.8381 59.4648 68.8927 59.3236 68.5616 58.8534C67.7074 57.8201 67.2352 56.4542 66.6199 55.2302L62.7384 47.0441C61.8865 45.2092 61.3644 43.3742 60.3245 41.6807C55.4476 33.6824 50.1445 28.837 42.0018 24.0843C40.251 23.0963 38.1681 22.6713 35.9536 22.1546L32.4033 21.9648C31.6446 21.6358 30.888 20.7416 30.2249 20.3177C27.5266 18.6241 20.5669 14.9545 18.5774 19.7904C17.2988 22.8485 20.4715 25.8591 21.5484 27.4124C22.3549 28.4943 23.3947 29.7175 23.9645 30.9407C24.2828 31.74 24.389 32.5878 24.7211 33.4346C25.4776 35.5046 26.1886 37.8108 27.1828 39.7406C27.7133 40.7286 28.2704 41.765 28.9336 42.6584C29.3124 43.1855 29.9755 43.4113 30.1167 44.2578C29.4535 45.1995 29.4079 46.6095 29.029 47.7874C27.3239 53.104 27.9871 59.6906 30.401 63.605C31.1597 64.7806 32.9476 67.3693 35.3732 66.3805C37.5039 65.5336 37.0285 62.852 37.6439 60.4993C37.7872 59.9354 37.6917 59.5588 37.975 59.1813V59.2869L39.9168 63.1916C41.3842 65.4968 43.9416 67.8968 46.0709 69.4974C47.2063 70.3443 48.1062 71.8038 49.5258 72.3205V72.1782H49.4326C49.148 71.7563 48.7214 71.5664 48.3428 71.2373C47.4909 70.3907 46.5442 69.3551 45.881 68.4146C43.8936 65.7803 42.1429 62.8625 40.5799 59.8519C39.8213 58.3936 39.1581 56.7937 38.5448 55.3354C38.2583 54.7704 38.2583 53.9223 37.7861 53.642C37.0752 54.6753 36.0353 55.5717 35.5122 56.8413C34.6125 58.8638 34.5191 61.3578 34.188 63.9457C33.997 63.9929 34.0819 63.9457 33.997 64.0509C32.4839 63.6758 31.9619 62.1211 31.3942 60.8051C29.9745 57.4647 29.7368 52.1013 30.9676 48.243C31.2987 47.2549 32.7205 44.1496 32.1529 43.2087C31.8664 42.3146 30.922 41.7979 30.4 41.0914C29.7845 40.1973 29.1235 39.0688 28.6969 38.0807C27.5616 35.4445 26.9939 32.5288 25.762 29.8936C25.1922 28.6704 24.199 27.3997 23.3937 26.2714C22.4939 25.0007 21.5018 24.1065 20.7909 22.6017C20.5542 22.0745 20.2231 21.2372 20.602 20.672C20.6953 20.2955 20.8863 20.1447 21.263 20.0604C21.8785 19.5331 23.6313 20.2017 24.2468 20.4822C25.9976 21.1887 27.465 21.8467 28.9325 22.8337C29.5957 23.304 30.3066 24.1982 31.1586 24.4344H32.1539C33.6691 24.7635 35.3722 24.5399 36.7908 24.9617C39.3003 25.7631 41.572 26.9378 43.6094 28.2096C49.8104 32.1144 54.9248 37.6663 58.3793 44.3012C58.947 45.3832 59.1837 46.3713 59.7058 47.5005C60.7012 49.8069 61.9321 52.1585 62.9241 54.4181C63.9195 56.6294 64.8658 58.8893 66.2858 60.7239C66.9966 61.712 69.8359 62.2287 71.1136 62.7465C72.0611 63.1684 73.5275 63.5481 74.3818 64.0648C75.9901 65.0529 77.5999 66.1821 79.1139 67.2641C79.8704 67.8272 82.2391 69.004 82.3799 69.9425L82.3853 69.917ZM34.1063 29.0321C33.4522 29.0263 32.8002 29.1054 32.1667 29.2672V29.3727H32.26C32.6388 30.1256 33.302 30.6433 33.7752 31.3024L34.865 33.5612L34.9583 33.4557C35.6215 32.9854 35.9536 32.2325 35.9536 31.1041C35.6693 30.7752 35.6226 30.4451 35.386 30.1161C35.1016 29.6458 34.4862 29.4096 34.1063 29.0342V29.0321Z" fill="white"/>
</g>
</g>
</g>
</g>
</g>
<defs>
<filter id="filter0_d_1080_533" x="0" y="0" width="108" height="108" filterUnits="userSpaceOnUse" color-interpolation-filters="sRGB">
<feFlood flood-opacity="0" result="BackgroundImageFix"/>
<feColorMatrix in="SourceAlpha" type="matrix" values="0 0 0 0 0 0 0 0 0 0 0 0 0 0 0 0 0 0 127 0" result="hardAlpha"/>
<feOffset dy="4"/>
<feGaussianBlur stdDeviation="2"/>
<feComposite in2="hardAlpha" operator="out"/>
<feColorMatrix type="matrix" values="0 0 0 0 0 0 0 0 0 0 0 0 0 0 0 0 0 0 0.25 0"/>
<feBlend mode="normal" in2="BackgroundImageFix" result="effect1_dropShadow_1080_533"/>
<feBlend mode="normal" in="SourceGraphic" in2="effect1_dropShadow_1080_533" result="shape"/>
</filter>
<clipPath id="clip0_1080_533">
<rect x="4" width="100" height="100" rx="25" fill="white"/>
</clipPath>
<clipPath id="clip1_1080_533">
<rect width="100" height="100" fill="white" transform="translate(3.57153)"/>
</clipPath>
</defs>
</svg>
