<svg width="58" height="58" viewBox="0 0 58 58" fill="none" xmlns="http://www.w3.org/2000/svg">
<g filter="url(#filter0_d_984_467)">
<g clip-path="url(#clip0_984_467)">
<g clip-path="url(#clip1_984_467)">
<path d="M42.2812 0H15.7188C9.24666 0 4 5.24666 4 11.7188V38.2812C4 44.7533 9.24666 50 15.7188 50H42.2812C48.7533 50 54 44.7533 54 38.2812V11.7188C54 5.24666 48.7533 0 42.2812 0Z" fill="#242938"/>
<mask id="mask0_984_467" style="mask-type:luminance" maskUnits="userSpaceOnUse" x="11" y="7" width="36" height="36">
<path d="M46.5781 7.42188H11.4219V42.5781H46.5781V7.42188Z" fill="white"/>
</mask>
<g mask="url(#mask0_984_467)">
<path fill-rule="evenodd" clip-rule="evenodd" d="M43.8049 34.8066C41.8928 34.7535 40.4094 34.9494 39.1662 35.4725C38.8082 35.6162 38.2338 35.6162 38.1865 36.0668C38.3779 36.2559 38.401 36.5652 38.5688 36.8274C38.8553 37.3029 39.358 37.9436 39.8119 38.276L41.342 39.3693C42.2744 39.9391 43.3264 40.2721 44.2348 40.8424C44.7609 41.1752 45.2867 41.6029 45.8129 41.9598C46.0809 42.1498 46.2432 42.4594 46.5781 42.5775V42.5057C46.4109 42.2926 46.3627 41.9838 46.1961 41.7451L45.4779 41.0565C44.7852 40.1299 43.9238 39.3213 42.9914 38.6566C42.2262 38.1338 40.5531 37.4211 40.2422 36.5424L40.1951 36.4891C40.7203 36.4359 41.342 36.251 41.8445 36.1084C42.658 35.8953 43.3986 35.9422 44.2348 35.7285L45.3832 35.3957V35.1826C44.9527 34.7551 44.642 34.1846 44.1881 33.7811C42.969 32.7356 41.6291 31.7135 40.2422 30.8582C39.5012 30.3832 38.5445 30.0736 37.7557 29.6705C37.468 29.5277 36.9904 29.4565 36.8233 29.219C36.3918 28.6971 36.1533 28.0072 35.8426 27.3891L33.8822 23.2547C33.452 22.3279 33.1883 21.4012 32.6631 20.5459C30.2 16.5063 27.5217 14.0591 23.4092 11.6588C22.525 11.1598 21.473 10.9452 20.3546 10.6842L18.5615 10.5884C18.1783 10.4222 17.7962 9.97057 17.4613 9.75647C16.0985 8.90116 12.5835 7.0478 11.5787 9.49018C10.9329 11.0347 12.5353 12.5552 13.0792 13.3397C13.4865 13.8861 14.0117 14.5039 14.2995 15.1216C14.4602 15.5253 14.5138 15.9535 14.6816 16.3812C15.0636 17.4266 15.4227 18.5914 15.9248 19.566C16.1928 20.065 16.4741 20.5885 16.8091 21.0397C17.0004 21.3059 17.3353 21.4199 17.4066 21.8475C17.0717 22.3231 17.0486 23.0352 16.8573 23.6301C15.9961 26.3152 16.331 29.6418 17.5502 31.6188C17.9334 32.2125 18.8364 33.5199 20.0614 33.0205C21.1375 32.5928 20.8974 31.2385 21.2083 30.0502C21.2806 29.7654 21.2324 29.5752 21.3755 29.3846V29.4379L22.3561 31.41C23.0973 32.5742 24.3889 33.7863 25.4643 34.5947C26.0377 35.0225 26.4922 35.7596 27.2092 36.0205V35.9486H27.1621C27.0184 35.7356 26.8029 35.6397 26.6117 35.4734C26.1815 35.0459 25.7033 34.5229 25.3684 34.0479C24.3647 32.7174 23.4805 31.2438 22.6911 29.7232C22.3079 28.9867 21.973 28.1787 21.6632 27.4422C21.5185 27.1568 21.5185 26.7285 21.2801 26.5869C20.921 27.1088 20.3958 27.5615 20.1316 28.2027C19.6772 29.2242 19.63 30.4838 19.4628 31.7908C19.3664 31.8147 19.4092 31.7908 19.3664 31.844C18.6022 31.6545 18.3385 30.8693 18.0518 30.2047C17.3348 28.5176 17.2147 25.8088 17.8364 23.8602C18.0036 23.3611 18.7217 21.7928 18.435 21.3176C18.2903 20.866 17.8133 20.6051 17.5497 20.2482C17.2389 19.7967 16.905 19.2267 16.6896 18.7277C16.1161 17.3963 15.8294 15.9237 15.2073 14.5928C14.9195 13.975 14.4179 13.3332 14.0111 12.7634C13.5567 12.1216 13.0556 11.67 12.6966 10.91C12.5771 10.6437 12.4099 10.2209 12.6012 9.93542C12.6484 9.7453 12.7448 9.66913 12.9351 9.62653C13.2459 9.36024 14.1312 9.6979 14.442 9.83956C15.3262 10.1964 16.0674 10.5287 16.8085 11.0272C17.1435 11.2647 17.5025 11.7164 17.9328 11.8357H18.4355C19.2008 12.0018 20.0609 11.8889 20.7774 12.1019C22.0448 12.5067 23.1921 13.1 24.2211 13.7423C27.3529 15.7144 29.936 18.5184 31.6807 21.8693C31.9674 22.4158 32.0869 22.9149 32.3506 23.4852C32.8533 24.65 33.475 25.8377 33.976 26.9789C34.4787 28.0957 34.9567 29.2371 35.6738 30.1637C36.0328 30.6627 37.4668 30.9236 38.1121 31.1852C38.5906 31.3982 39.3313 31.59 39.7627 31.851C40.575 32.35 41.3881 32.9203 42.1527 33.4668C42.5348 33.7512 43.7311 34.3455 43.8022 34.8195L43.8049 34.8066ZM19.4216 14.1577C19.0912 14.1548 18.7619 14.1947 18.4419 14.2765V14.3297H18.4891C18.6804 14.71 19.0154 14.9715 19.2544 15.3043L19.8047 16.4451L19.8519 16.3918C20.1868 16.1543 20.3546 15.774 20.3546 15.2042C20.2109 15.038 20.1874 14.8713 20.0679 14.7052C19.9243 14.4676 19.6134 14.3483 19.4216 14.1588V14.1577Z" fill="white"/>
</g>
</g>
</g>
</g>
<defs>
<filter id="filter0_d_984_467" x="0" y="0" width="58" height="58" filterUnits="userSpaceOnUse" color-interpolation-filters="sRGB">
<feFlood flood-opacity="0" result="BackgroundImageFix"/>
<feColorMatrix in="SourceAlpha" type="matrix" values="0 0 0 0 0 0 0 0 0 0 0 0 0 0 0 0 0 0 127 0" result="hardAlpha"/>
<feOffset dy="4"/>
<feGaussianBlur stdDeviation="2"/>
<feComposite in2="hardAlpha" operator="out"/>
<feColorMatrix type="matrix" values="0 0 0 0 0 0 0 0 0 0 0 0 0 0 0 0 0 0 0.25 0"/>
<feBlend mode="normal" in2="BackgroundImageFix" result="effect1_dropShadow_984_467"/>
<feBlend mode="normal" in="SourceGraphic" in2="effect1_dropShadow_984_467" result="shape"/>
</filter>
<clipPath id="clip0_984_467">
<rect x="4" width="50" height="50" rx="5" fill="white"/>
</clipPath>
<clipPath id="clip1_984_467">
<rect width="50" height="50" fill="white" transform="translate(4)"/>
</clipPath>
</defs>
</svg>
