<svg width="101" height="100" viewBox="0 0 101 100" fill="none" xmlns="http://www.w3.org/2000/svg">
<g clip-path="url(#clip0_1080_533)">
<rect x="0.333496" width="100" height="100" rx="25"/>
<mask id="mask0_1080_533" style="mask-type:luminance" maskUnits="userSpaceOnUse" x="0" y="-1" width="102" height="102">
<path d="M101.095 -1H0V100.095H101.095V-1Z" fill="white"/>
</mask>
<g mask="url(#mask0_1080_533)">
<path d="M77.4009 -1H23.6941C10.6082 -1 0 9.60823 0 22.6941V76.4009C0 89.4867 10.6082 100.095 23.6941 100.095H77.4009C90.4867 100.095 101.095 89.4867 101.095 76.4009V22.6941C101.095 9.60823 90.4867 -1 77.4009 -1Z" fill="#242938"/>
<mask id="mask1_1080_533" style="mask-type:luminance" maskUnits="userSpaceOnUse" x="15" y="14" width="72" height="72">
<path d="M86.0887 14.0063H15.0062V85.0888H86.0887V14.0063Z" fill="white"/>
</mask>
<g mask="url(#mask1_1080_533)">
<path fill-rule="evenodd" clip-rule="evenodd" d="M80.4816 69.3753C76.6155 69.2679 73.6162 69.664 71.1026 70.7215C70.3788 71.0123 69.2174 71.0123 69.1218 71.9232C69.5088 72.3056 69.5555 72.931 69.8946 73.461C70.474 74.4226 71.4905 75.7179 72.4082 76.39L75.5019 78.6007C77.3872 79.7526 79.514 80.4259 81.3508 81.579C82.4146 82.252 83.4777 83.1168 84.5415 83.8383C85.0833 84.2225 85.4115 84.8484 86.0888 85.0873V84.942C85.7508 84.5112 85.6533 83.8869 85.3164 83.4043L83.8643 82.0118C82.4636 80.1384 80.7221 78.5035 78.8368 77.1597C77.2895 76.1026 73.9068 74.6615 73.2781 72.8849L73.1829 72.777C74.2448 72.6696 75.5019 72.2957 76.5179 72.0074C78.1627 71.5766 79.6602 71.6713 81.3508 71.2393L83.6728 70.5664V70.1355C82.8024 69.2711 82.1742 68.1176 81.2563 67.3018C78.7914 65.1878 76.0823 63.1213 73.2781 61.392C71.7799 60.4316 69.8457 59.8057 68.2506 58.9906C67.669 58.702 66.7035 58.5578 66.3654 58.0776C65.4931 57.0225 65.0109 55.6277 64.3826 54.3778L60.4189 46.0184C59.549 44.1447 59.0158 42.2709 57.9539 40.5415C52.9738 32.374 47.5585 27.426 39.2435 22.5728C37.4557 21.5639 35.3287 21.1299 33.0673 20.6022L29.4419 20.4084C28.6671 20.0725 27.8945 19.1593 27.2174 18.7265C24.462 16.997 17.355 13.2498 15.3234 18.188C14.0178 21.3108 17.2576 24.3851 18.3573 25.9713C19.1809 27.0761 20.2427 28.3252 20.8245 29.5743C21.1496 30.3905 21.258 31.2562 21.5971 32.1209C22.3696 34.2347 23.0957 36.5897 24.1109 38.5604C24.6527 39.5693 25.2215 40.6276 25.8988 41.5399C26.2856 42.0782 26.9627 42.3088 27.1069 43.1732C26.4297 44.1348 26.3831 45.5746 25.9962 46.7775C24.255 52.2066 24.9322 58.9325 27.3972 62.9298C28.172 64.1302 29.9977 66.7737 32.4746 65.764C34.6504 64.8992 34.165 62.1608 34.7934 59.7583C34.9397 59.1825 34.8422 58.798 35.1315 58.4125V58.5203L37.1144 62.5076C38.6128 64.8616 41.2244 67.3124 43.3987 68.9469C44.5581 69.8117 45.4771 71.3021 46.9267 71.8297V71.6844H46.8316C46.5409 71.2536 46.1053 71.0596 45.7187 70.7236C44.8488 69.8591 43.882 68.8015 43.2048 67.8411C41.1753 65.1511 39.3876 62.1716 37.7915 59.0973C37.0169 57.6081 36.3396 55.9743 35.7134 54.4852C35.4208 53.9082 35.4208 53.0422 34.9386 52.7559C34.2127 53.8111 33.1508 54.7265 32.6166 56.0229C31.6978 58.0882 31.6025 60.635 31.2644 63.2777C31.0693 63.3259 31.156 63.2777 31.0693 63.3851C29.5242 63.0021 28.9912 61.4145 28.4114 60.0706C26.9617 56.6595 26.719 51.1826 27.9758 47.2427C28.3139 46.2337 29.7658 43.0627 29.1862 42.1019C28.8936 41.1888 27.9293 40.6612 27.3962 39.9398C26.7677 39.0267 26.0927 37.8744 25.6571 36.8653C24.4977 34.1734 23.918 31.196 22.6601 28.505C22.0782 27.2559 21.064 25.9583 20.2416 24.8061C19.3228 23.5086 18.3097 22.5954 17.5838 21.0588C17.3421 20.5204 17.0039 19.6654 17.3909 19.0883C17.4861 18.7038 17.6812 18.5498 18.0659 18.4637C18.6944 17.9253 20.4843 18.608 21.1128 18.8944C22.9006 19.6159 24.3991 20.2878 25.8977 21.2957C26.5749 21.776 27.3008 22.6891 28.1709 22.9303H29.1872C30.7345 23.2663 32.4736 23.038 33.9222 23.4687C36.4848 24.2871 38.8046 25.4866 40.8851 26.7854C47.2174 30.7728 52.44 36.4422 55.9676 43.2175C56.5473 44.3224 56.789 45.3314 57.3222 46.4845C58.3386 48.8397 59.5956 51.241 60.6086 53.5485C61.625 55.8066 62.5913 58.1143 64.0414 59.9877C64.7672 60.9967 67.6666 61.5243 68.9714 62.0531C69.9389 62.4839 71.4363 62.8717 72.3087 63.3993C73.9511 64.4083 75.595 65.5614 77.1411 66.6663C77.9136 67.2413 80.3323 68.443 80.4761 69.4014L80.4816 69.3753ZM31.1809 27.6253C30.513 27.6193 29.8472 27.7001 29.2003 27.8653V27.9731H29.2956C29.6824 28.7419 30.3596 29.2706 30.8428 29.9436L31.9557 32.2502L32.051 32.1425C32.7282 31.6622 33.0673 30.8934 33.0673 29.7411C32.777 29.4053 32.7293 29.0682 32.4877 28.7322C32.1973 28.252 31.5689 28.0108 31.1809 27.6274V27.6253Z" fill="white"/>
</g>
</g>
</g>
<defs>
<clipPath id="clip0_1080_533">
<rect x="0.333496" width="100" height="100" rx="25" fill="white"/>
</clipPath>
</defs>
</svg>
