<svg width="101" height="100" viewBox="0 0 101 100" fill="none" xmlns="http://www.w3.org/2000/svg">
<g clip-path="url(#clip0_1080_504)">
<rect width="100" height="100" rx="25"/>
<path d="M76.5625 0H23.4375C10.4933 0 0 10.4933 0 23.4375V76.5625C0 89.5067 10.4933 100 23.4375 100H76.5625C89.5067 100 100 89.5067 100 76.5625V23.4375C100 10.4933 89.5067 0 76.5625 0Z" fill="#F4F2ED"/>
<path d="M47.5043 11.021C47.3363 11.0363 46.8016 11.0898 46.3203 11.1279C35.2241 12.1284 24.8304 18.1157 18.2474 27.3181C14.5817 32.4348 12.2372 38.2388 11.3513 44.3864C11.0382 46.5325 11 47.1665 11 50.0758C11 52.9856 11.0382 53.6196 11.3513 55.7653C13.4743 70.4356 23.9139 82.7618 38.0727 87.3286C40.6082 88.1457 43.2809 88.7032 46.3203 89.0391C47.5043 89.1688 52.6207 89.1688 53.8047 89.0391C59.0512 88.4586 63.4957 87.1606 67.8793 84.9227C68.5512 84.5793 68.6813 84.4875 68.5895 84.4114C68.5285 84.3653 65.6645 80.5239 62.2281 75.8809L55.9812 67.4422L48.1531 55.8571C43.8461 49.4879 40.3027 44.2793 40.2719 44.2793C40.2414 44.2719 40.2109 49.4192 40.1957 55.7043C40.1727 66.709 40.1652 67.152 40.0277 67.4114C39.8293 67.7856 39.6766 67.9383 39.3555 68.1067C39.1112 68.2286 38.8974 68.2516 37.7443 68.2516H36.4231L36.0718 68.0301C35.8427 67.8852 35.6747 67.6942 35.5601 67.4727L35.3997 67.129L35.415 51.8172L35.4379 36.4976L35.6747 36.1997C35.7969 36.0394 36.0565 35.8332 36.2398 35.7339C36.5529 35.5811 36.6751 35.5659 37.9963 35.5659C39.5543 35.5659 39.8137 35.627 40.2188 36.0699C40.3332 36.1921 44.5715 42.5766 49.6426 50.2668C54.7133 57.9571 61.6477 68.4579 65.0535 73.6125L71.2395 82.9832L71.5527 82.777C74.3246 80.9746 77.2574 78.4086 79.5789 75.7356C84.5199 70.0614 87.7047 63.1426 88.7738 55.7653C89.0867 53.6196 89.125 52.9856 89.125 50.0758C89.125 47.1665 89.0867 46.5325 88.7738 44.3864C86.6508 29.7161 76.2109 17.3902 62.0523 12.8233C59.5551 12.0138 56.8977 11.4563 53.9191 11.1203C53.1859 11.044 48.1379 10.9599 47.5043 11.021ZM63.4957 34.6495C63.8621 34.8327 64.1602 35.184 64.2672 35.5506C64.3281 35.7491 64.3434 39.9954 64.3281 49.5641L64.3051 63.2954L61.8844 59.5836L59.4559 55.8723V45.8911C59.4559 39.4379 59.4863 35.8102 59.532 35.6346C59.6543 35.207 59.9215 34.8709 60.2883 34.6723C60.6012 34.512 60.716 34.4967 61.9148 34.4967C63.0453 34.4967 63.2438 34.512 63.4957 34.6495Z" fill="black"/>
</g>
<defs>
<clipPath id="clip0_1080_504">
<rect width="100" height="100" rx="25" fill="white"/>
</clipPath>
</defs>
</svg>
