<svg width="58" height="58" viewBox="0 0 117 117"  fill="none" xmlns="http://www.w3.org/2000/svg">
<g filter="url(#filter0_d_1080_504)">
<g clip-path="url(#clip0_1080_504)">
<g clip-path="url(#clip1_1080_504)">
<path d="M80.5625 0H27.4375C14.4933 0 4 10.4933 4 23.4375V76.5625C4 89.5067 14.4933 100 27.4375 100H80.5625C93.5067 100 104 89.5067 104 76.5625V23.4375C104 10.4933 93.5067 0 80.5625 0Z" fill="#F4F2ED"/>
<path d="M51.4418 10.9585C51.2738 10.9738 50.7391 11.0273 50.2578 11.0654C39.1616 12.0659 28.7679 18.0532 22.1849 27.2556C18.5192 32.3723 16.1747 38.1763 15.2888 44.3239C14.9757 46.47 14.9375 47.1039 14.9375 50.0133C14.9375 52.9231 14.9757 53.5571 15.2888 55.7028C17.4118 70.3731 27.8514 82.6993 42.0102 87.2661C44.5457 88.0832 47.2184 88.6407 50.2578 88.9766C51.4418 89.1063 56.5582 89.1063 57.7422 88.9766C62.9887 88.3961 67.4332 87.0981 71.8168 84.8602C72.4887 84.5168 72.6188 84.425 72.527 84.3489C72.466 84.3028 69.602 80.4614 66.1656 75.8184L59.9187 67.3797L52.0906 55.7946C47.7836 49.4254 44.2402 44.2168 44.2094 44.2168C44.1789 44.2094 44.1484 49.3567 44.1332 55.6418C44.1102 66.6465 44.1027 67.0895 43.9652 67.3489C43.7668 67.7231 43.6141 67.8758 43.293 68.0442C43.0487 68.1661 42.8349 68.1891 41.6818 68.1891H40.3606L40.0093 67.9676C39.7802 67.8227 39.6122 67.6317 39.4976 67.4102L39.3372 67.0665L39.3525 51.7547L39.3754 36.4351L39.6122 36.1372C39.7344 35.9769 39.994 35.7707 40.1773 35.6714C40.4904 35.5186 40.6126 35.5034 41.9338 35.5034C43.4918 35.5034 43.7512 35.5645 44.1563 36.0074C44.2707 36.1296 48.509 42.5141 53.5801 50.2043C58.6508 57.8946 65.5852 68.3954 68.991 73.55L75.177 82.9207L75.4902 82.7145C78.2621 80.9121 81.1949 78.3461 83.5164 75.6731C88.4574 69.9989 91.6422 63.0801 92.7113 55.7028C93.0242 53.5571 93.0625 52.9231 93.0625 50.0133C93.0625 47.1039 93.0242 46.47 92.7113 44.3239C90.5883 29.6536 80.1484 17.3277 65.9898 12.7608C63.4926 11.9513 60.8352 11.3938 57.8566 11.0578C57.1234 10.9815 52.0754 10.8974 51.4418 10.9585ZM67.4332 34.587C67.7996 34.7702 68.0977 35.1215 68.2047 35.4881C68.2656 35.6866 68.2809 39.9329 68.2656 49.5016L68.2426 63.2329L65.8219 59.5211L63.3934 55.8098V45.8286C63.3934 39.3754 63.4238 35.7477 63.4695 35.5721C63.5918 35.1445 63.859 34.8084 64.2258 34.6098C64.5387 34.4495 64.6535 34.4342 65.8523 34.4342C66.9828 34.4342 67.1813 34.4495 67.4332 34.587Z" fill="black"/>
</g>
</g>
</g>
<defs>
<filter id="filter0_d_1080_504" x="0" y="0" width="108" height="108" filterUnits="userSpaceOnUse" color-interpolation-filters="sRGB">
<feFlood flood-opacity="0" result="BackgroundImageFix"/>
<feColorMatrix in="SourceAlpha" type="matrix" values="0 0 0 0 0 0 0 0 0 0 0 0 0 0 0 0 0 0 127 0" result="hardAlpha"/>
<feOffset dy="4"/>
<feGaussianBlur stdDeviation="2"/>
<feComposite in2="hardAlpha" operator="out"/>
<feColorMatrix type="matrix" values="0 0 0 0 0 0 0 0 0 0 0 0 0 0 0 0 0 0 0.25 0"/>
<feBlend mode="normal" in2="BackgroundImageFix" result="effect1_dropShadow_1080_504"/>
<feBlend mode="normal" in="SourceGraphic" in2="effect1_dropShadow_1080_504" result="shape"/>
</filter>
<clipPath id="clip0_1080_504">
<rect x="4" width="100" height="100" rx="25" fill="white"/>
</clipPath>
<clipPath id="clip1_1080_504">
<rect width="100" height="100" fill="white" transform="translate(4)"/>
</clipPath>
</defs>
</svg>
