<svg width="101" height="100" viewBox="0 0 101 100" fill="none" xmlns="http://www.w3.org/2000/svg">
<g clip-path="url(#clip0_1080_529)">
<rect x="0.666748" width="100" height="100" rx="25"/>
<mask id="mask0_1080_529" style="mask-type:luminance" maskUnits="userSpaceOnUse" x="0" y="0" width="101" height="101">
<path d="M101 0H0V101H101V0Z" fill="white"/>
</mask>
<g mask="url(#mask0_1080_529)">
<path d="M77.3281 0H23.6719C10.5983 0 0 10.5983 0 23.6719V77.3281C0 90.4017 10.5983 101 23.6719 101H77.3281C90.4017 101 101 90.4017 101 77.3281V23.6719C101 10.5983 90.4017 0 77.3281 0Z" fill="#242938"/>
<path d="M47.2956 12.2764C49.2364 11.1656 51.7637 11.1606 53.7024 12.2764C63.456 17.7877 73.2128 23.2904 82.9648 28.805C84.7994 29.8383 86.0259 31.8796 86.0074 33.9931V67.1516C86.0212 69.3527 84.6732 71.4429 82.738 72.4525C73.0163 77.9338 63.2994 83.4213 53.5794 88.9025C51.5992 90.0348 49.0209 89.9476 47.1019 88.7222C44.1875 87.0328 41.268 85.3513 38.3532 83.6635C37.7575 83.3084 37.0861 83.0259 36.6656 82.4484C37.0372 81.9473 37.7022 81.8849 38.2423 81.666C39.4586 81.2789 40.5763 80.658 41.6936 80.0555C41.9765 79.8622 42.3214 79.9364 42.5924 80.1092C45.0847 81.5381 47.5552 83.009 50.0558 84.4242C50.5892 84.7323 51.1293 84.3232 51.5853 84.0691C61.1251 78.6771 70.6767 73.3059 80.2154 67.9122C80.5689 67.7422 80.7641 67.367 80.7353 66.98C80.742 56.0416 80.7369 45.1017 80.7389 34.1632C80.7791 33.7239 80.5251 33.3201 80.1277 33.1403C70.44 27.6843 60.7567 22.2202 51.0705 16.7629C50.7269 16.5266 50.2736 16.5261 49.9296 16.7612C40.2429 22.2202 30.5619 27.6895 20.8756 33.145C20.4798 33.3251 20.2142 33.7224 20.2613 34.1632C20.263 45.1017 20.2613 56.0416 20.2613 66.9816C20.2269 67.3686 20.4372 67.7359 20.7881 67.9024C23.373 69.368 25.9611 70.8235 28.5476 72.2845C30.0047 73.0684 31.7938 73.5347 33.3993 72.9339C34.8159 72.4257 35.8089 70.9797 35.7819 69.4757C35.7953 58.6013 35.7752 47.7253 35.792 36.8523C35.7567 36.3695 36.2145 35.9706 36.6839 36.0162C37.926 36.0076 39.1695 35.9994 40.4115 36.0195C40.9298 36.0076 41.2865 36.5276 41.2226 37.0139C41.2175 47.9573 41.236 58.9007 41.2143 69.8439C41.2175 72.7606 40.0193 75.9343 37.3216 77.3613C33.9983 79.0826 29.8904 78.7177 26.6071 77.0669C23.7648 75.6482 21.0523 73.9739 18.2604 72.4541C16.3203 71.45 14.9788 69.3515 14.9924 67.152V33.9931C14.9721 31.8358 16.2478 29.7575 18.1391 28.7395C27.8592 23.254 37.5776 17.7643 47.2956 12.2764Z" fill="#81CD39"/>
<path d="M55.7757 35.2453C60.0149 34.9724 64.5532 35.0837 68.3679 37.172C71.3217 38.7726 72.9591 42.1314 73.0111 45.4128C72.9287 45.855 72.4659 46.0993 72.0434 46.0689C70.8136 46.0673 69.5831 46.0858 68.3533 46.0605C67.8313 46.0807 67.5284 45.5998 67.4628 45.1386C67.1093 43.5683 66.2528 42.0135 64.7753 41.256C62.5067 40.1205 59.8768 40.1777 57.4031 40.2014C55.5973 40.2968 53.6554 40.4535 52.1254 41.5152C50.951 42.3196 50.5943 43.9436 51.0132 45.2514C51.4085 46.1904 52.4923 46.4934 53.3797 46.7727C58.4884 48.109 63.9021 47.9756 68.9135 49.7341C70.9883 50.451 73.0178 51.8449 73.728 54.0171C74.6571 56.9288 74.25 60.4085 72.1783 62.7457C70.4984 64.6691 68.0519 65.7162 65.6117 66.2847C62.3655 67.0087 58.9966 67.0272 55.6999 66.7057C52.6 66.3522 49.374 65.5378 46.9811 63.4258C44.9348 61.649 43.9354 58.8801 44.0344 56.2084C44.058 55.757 44.5075 55.4421 44.9398 55.4792C46.1783 55.4694 47.4171 55.4658 48.6556 55.4812C49.1507 55.4457 49.5172 55.8734 49.5428 56.3397C49.7709 57.8354 50.3331 59.4056 51.6378 60.2922C54.1549 61.9164 57.314 61.8051 60.1964 61.8506C62.5845 61.7448 65.2653 61.7129 67.2139 60.1343C68.242 59.234 68.5466 57.7277 68.2688 56.432C67.9678 55.338 66.8233 54.8283 65.8405 54.4949C60.7972 52.8998 55.3227 53.4786 50.3284 51.6744C48.3004 50.9579 46.3396 49.6031 45.5609 47.52C44.4739 44.5716 44.9718 40.9246 47.2604 38.6663C49.4919 36.4198 52.7129 35.5549 55.7757 35.2453Z" fill="#81CD39"/>
</g>
</g>
<defs>
<clipPath id="clip0_1080_529">
<rect x="0.666748" width="100" height="100" rx="25" fill="white"/>
</clipPath>
</defs>
</svg>
