<svg width="58" height="58" viewBox="0 0 113 113"   fill="none" xmlns="http://www.w3.org/2000/svg">
<g filter="url(#filter0_d_1080_529)">
<g clip-path="url(#clip0_1080_529)">
<g clip-path="url(#clip1_1080_529)">
<mask id="mask0_1080_529" style="mask-type:luminance" maskUnits="userSpaceOnUse" x="3" y="1" width="99" height="98">
<path d="M101.857 1H3.85718V99H101.857V1Z" fill="white"/>
</mask>
<g mask="url(#mask0_1080_529)">
<path d="M78.8884 1H26.826C14.1407 1 3.85718 11.2835 3.85718 23.9688V76.0312C3.85718 88.7165 14.1407 99 26.826 99H78.8884C91.5737 99 101.857 88.7165 101.857 76.0312V23.9688C101.857 11.2835 91.5737 1 78.8884 1Z" fill="#242938"/>
<path d="M49.748 12.9117C51.6311 11.8339 54.0834 11.8291 55.9645 12.9117C65.4284 18.2593 74.8953 23.5986 84.3577 28.9494C86.1378 29.952 87.3279 31.9327 87.3099 33.9834V66.157C87.3233 68.2927 86.0153 70.3208 84.1376 71.3004C74.7047 76.6189 65.2764 81.9434 55.8451 87.2618C53.9237 88.3605 51.422 88.2759 49.56 87.0869C46.7322 85.4477 43.8994 83.8161 41.0712 82.1784C40.4932 81.8339 39.8417 81.5598 39.4337 80.9994C39.7943 80.5132 40.4395 80.4527 40.9636 80.2403C42.1438 79.8647 43.2283 79.2622 44.3124 78.6776C44.5869 78.49 44.9215 78.562 45.1845 78.7297C47.6027 80.1162 49.9999 81.5434 52.4262 82.9165C52.9437 83.2155 53.4678 82.8185 53.9103 82.572C63.1667 77.3401 72.4346 72.1285 81.6899 66.895C82.0329 66.73 82.2224 66.366 82.1944 65.9905C82.2009 55.377 82.196 44.762 82.1979 34.1484C82.2369 33.7222 81.9904 33.3304 81.6049 33.1559C72.2049 27.862 62.8092 22.5602 53.4107 17.265C53.0773 17.0357 52.6375 17.0352 52.3037 17.2633C42.9048 22.5602 33.5113 27.867 24.1127 33.1605C23.7287 33.3352 23.471 33.7207 23.5167 34.1484C23.5183 44.762 23.5167 55.377 23.5167 65.992C23.4833 66.3675 23.6873 66.7239 24.0278 66.8855C26.5359 68.3076 29.0472 69.7198 31.5568 71.1374C32.9707 71.898 34.7066 72.3505 36.2644 71.7675C37.639 71.2744 38.6025 69.8714 38.5763 68.4121C38.5893 57.8607 38.5698 47.3077 38.5861 36.7577C38.5518 36.2892 38.996 35.9022 39.4515 35.9464C40.6567 35.9381 41.8632 35.9301 43.0683 35.9496C43.5713 35.9381 43.9174 36.4426 43.8554 36.9145C43.8504 47.5328 43.8684 58.1512 43.8473 68.7693C43.8504 71.5994 42.6878 74.6788 40.0702 76.0634C36.8456 77.7336 32.8598 77.3795 29.674 75.7778C26.9161 74.4012 24.2842 72.7766 21.5752 71.302C19.6927 70.3277 18.3911 68.2915 18.4043 66.1574V33.9834C18.3846 31.8902 19.6224 29.8736 21.4575 28.8858C30.8889 23.5633 40.3186 18.2366 49.748 12.9117Z" fill="#81CD39"/>
<path d="M57.9761 35.1986C62.0894 34.9338 66.4929 35.0418 70.1943 37.0681C73.0604 38.6211 74.6491 41.8802 74.6996 45.0641C74.6196 45.4932 74.1707 45.7302 73.7607 45.7007C72.5675 45.6992 71.3734 45.7171 70.1801 45.6926C69.6737 45.7122 69.3798 45.2455 69.3162 44.798C68.9732 43.2744 68.1421 41.7658 66.7085 41.0308C64.5073 39.929 61.9555 39.9845 59.5553 40.0075C57.8031 40.1001 55.9189 40.2521 54.4344 41.2823C53.2948 42.0628 52.9487 43.6385 53.3552 44.9075C53.7388 45.8186 54.7904 46.1126 55.6514 46.3836C60.6084 47.6802 65.8613 47.5508 70.7238 49.257C72.737 49.9526 74.7062 51.3051 75.3953 53.4128C76.2968 56.238 75.9018 59.6144 73.8916 61.8822C72.2616 63.7484 69.8878 64.7644 67.5201 65.316C64.3702 66.0185 61.1015 66.0365 57.9027 65.7245C54.8949 65.3815 51.7647 64.5913 49.4429 62.5421C47.4573 60.818 46.4876 58.1314 46.5837 55.539C46.6066 55.101 47.0426 54.7955 47.4621 54.8315C48.6638 54.822 49.8659 54.8185 51.0676 54.8334C51.548 54.799 51.9036 55.214 51.9285 55.6664C52.1498 57.1177 52.6953 58.6413 53.9612 59.5015C56.4036 61.0775 59.4688 60.9695 62.2656 61.0136C64.5828 60.911 67.1839 60.88 69.0746 59.3483C70.0722 58.4748 70.3677 57.0132 70.0982 55.756C69.8061 54.6945 68.6957 54.1999 67.7421 53.8764C62.8486 52.3287 57.5367 52.8903 52.6907 51.1397C50.723 50.4445 48.8203 49.1299 48.0647 47.1087C47.01 44.2479 47.4932 40.7092 49.7139 38.518C51.8791 36.3382 55.0043 35.499 57.9761 35.1986Z" fill="#81CD39"/>
</g>
</g>
</g>
</g>
<defs>
<filter id="filter0_d_1080_529" x="0" y="0" width="108" height="108" filterUnits="userSpaceOnUse" color-interpolation-filters="sRGB">
<feFlood flood-opacity="0" result="BackgroundImageFix"/>
<feColorMatrix in="SourceAlpha" type="matrix" values="0 0 0 0 0 0 0 0 0 0 0 0 0 0 0 0 0 0 127 0" result="hardAlpha"/>
<feOffset dy="4"/>
<feGaussianBlur stdDeviation="2"/>
<feComposite in2="hardAlpha" operator="out"/>
<feColorMatrix type="matrix" values="0 0 0 0 0 0 0 0 0 0 0 0 0 0 0 0 0 0 0.25 0"/>
<feBlend mode="normal" in2="BackgroundImageFix" result="effect1_dropShadow_1080_529"/>
<feBlend mode="normal" in="SourceGraphic" in2="effect1_dropShadow_1080_529" result="shape"/>
</filter>
<clipPath id="clip0_1080_529">
<rect x="4" width="100" height="100" rx="25" fill="white"/>
</clipPath>
<clipPath id="clip1_1080_529">
<rect width="100" height="100" fill="white" transform="translate(3.85718)"/>
</clipPath>
</defs>
</svg>
