<svg width="101" height="100" viewBox="0 0 101 100" fill="none" xmlns="http://www.w3.org/2000/svg">
<g clip-path="url(#clip0_1081_745)">
<rect x="0.857178" width="100" height="100" rx="25"/>
<g clip-path="url(#clip1_1081_745)">
<path d="M78.0938 -1H23.9062C10.7032 -1 0 9.70319 0 22.9062V77.0938C0 90.2968 10.7032 101 23.9062 101H78.0938C91.2968 101 102 90.2968 102 77.0938V22.9062C102 9.70319 91.2968 -1 78.0938 -1Z" fill="#242938"/>
<path d="M51.0004 57.5506C55.1059 57.5506 58.4336 54.2224 58.4336 50.1173C58.4336 46.0122 55.1059 42.6841 51.0004 42.6841C46.8953 42.6841 43.5671 46.0122 43.5671 50.1173C43.5671 54.2224 46.8953 57.5506 51.0004 57.5506Z" fill="#00D8FF"/>
<path fill-rule="evenodd" clip-rule="evenodd" d="M51.0008 35.0039C60.9809 35.0039 70.2521 36.436 77.2427 38.8426C85.6653 41.7422 90.8438 46.1373 90.8438 50.1173C90.8438 54.2647 85.3557 58.9339 76.3107 61.9306C69.4728 64.1961 60.4744 65.3787 51.0008 65.3787C41.2877 65.3787 32.0897 64.2686 25.1746 61.9055C16.4258 58.9152 11.1562 54.1858 11.1562 50.1173C11.1562 46.1696 16.1007 41.8083 24.4049 38.9133C31.4215 36.467 40.9215 35.0039 50.9992 35.0039H51.0008Z" stroke="#00D8FF" stroke-width="5"/>
<path fill-rule="evenodd" clip-rule="evenodd" d="M37.8439 42.6042C42.8299 33.959 48.7017 26.6429 54.279 21.7895C60.9983 15.9418 67.3932 13.6517 70.8405 15.6397C74.4332 17.7115 75.7365 24.7987 73.814 34.1307C72.3617 41.1862 68.8897 49.5717 64.1567 57.7787C59.3041 66.1929 53.7479 73.6062 48.2467 78.4146C41.2856 84.4995 34.5557 86.7017 31.0315 84.6692C27.6117 82.6986 26.304 76.2355 27.9446 67.5954C29.3307 60.2948 32.8093 51.3344 37.8423 42.6042H37.8439Z" stroke="#00D8FF" stroke-width="5"/>
<path fill-rule="evenodd" clip-rule="evenodd" d="M37.8565 57.8005C32.8565 49.1648 29.4523 40.4223 28.0314 33.1666C26.3209 24.4246 27.5303 17.7406 30.9746 15.7468C34.5639 13.6689 41.3547 16.0793 48.4796 22.4056C53.8664 27.1885 59.3979 34.3832 64.1445 42.5822C69.011 50.9884 72.6583 59.505 74.0772 66.6721C75.8725 75.7421 74.4194 82.6722 70.8984 84.7102C67.4822 86.688 61.2304 84.5942 54.5641 78.8575C48.9318 74.0109 42.9058 66.5223 37.8565 57.8005Z" stroke="#00D8FF" stroke-width="5"/>
</g>
</g>
<defs>
<clipPath id="clip0_1081_745">
<rect x="0.857178" width="100" height="100" rx="25" fill="white"/>
</clipPath>
<clipPath id="clip1_1081_745">
<rect width="102" height="102" fill="white" transform="translate(0 -1)"/>
</clipPath>
</defs>
</svg>
