<svg width="101" height="100" viewBox="0 0 101 100" fill="none" xmlns="http://www.w3.org/2000/svg">
<g clip-path="url(#clip0_1081_766)">
<rect width="100" height="100" rx="25"/>
<g clip-path="url(#clip1_1081_766)">
<path d="M76.5625 0H23.4375C10.4933 0 0 10.4933 0 23.4375V76.5625C0 89.5067 10.4933 100 23.4375 100H76.5625C89.5067 100 100 89.5067 100 76.5625V23.4375C100 10.4933 89.5067 0 76.5625 0Z" fill="#242938"/>
<path d="M81.8535 67.1176C72.2383 79.9289 51.698 75.6043 38.5294 76.2262C38.5294 76.2262 36.1982 76.3559 33.8501 76.7426C33.8501 76.7426 34.738 76.3637 35.8703 75.9735C45.1195 72.775 49.4902 72.1325 55.1102 69.2457C65.6695 63.8364 76.1789 52.0543 78.3172 39.8145C74.2977 51.5864 62.0738 61.718 50.9434 65.8321C43.3246 68.6434 29.5476 71.3793 29.5456 71.3805C29.5521 71.3903 28.9966 71.0922 28.9888 71.0856C19.6193 66.527 19.3489 46.234 36.3658 39.6926C43.827 36.8227 50.9633 38.3991 59.0289 36.4793C67.6312 34.434 77.5945 27.986 81.6441 19.5559C86.184 33.0216 91.6375 54.0887 81.8535 67.1176ZM82.0207 15.3832C80.8762 18.1028 79.4789 20.5534 77.8687 22.7454C70.7801 15.4703 60.8859 10.9375 49.9496 10.9375C28.4371 10.9375 10.9375 28.4391 10.9375 49.9477C10.9375 61.2231 15.7504 71.3922 23.4236 78.5203L24.2779 79.277C22.8513 78.1137 22.6319 76.0188 23.7882 74.5907C24.9515 73.1621 27.0486 72.9407 28.4759 74.0977C29.907 75.2571 30.1251 77.3575 28.9663 78.7879C27.8119 80.2192 25.711 80.4352 24.2818 79.2805L24.8632 79.7953C31.6505 85.5102 40.4 88.9622 49.9496 88.9622C70.5121 88.9622 87.3969 72.9602 88.8422 52.7629C89.9125 42.8739 86.9918 30.3167 82.0207 15.3832Z" fill="#5FB832"/>
</g>
</g>
<defs>
<clipPath id="clip0_1081_766">
<rect width="100" height="100" rx="25" fill="white"/>
</clipPath>
<clipPath id="clip1_1081_766">
<rect width="100" height="100" fill="white"/>
</clipPath>
</defs>
</svg>
