<svg width="58" height="58" viewBox="0 0 58 58" fill="none" xmlns="http://www.w3.org/2000/svg">
<g filter="url(#filter0_d_984_463)">
<g clip-path="url(#clip0_984_463)">
<g clip-path="url(#clip1_984_463)">
<path d="M42.2811 0H15.7186C9.24654 0 3.99988 5.24666 3.99988 11.7188V38.2812C3.99988 44.7533 9.24654 50 15.7186 50H42.2811C48.7532 50 53.9999 44.7533 53.9999 38.2812V11.7188C53.9999 5.24666 48.7532 0 42.2811 0Z" fill="#242938"/>
<path d="M44.9266 33.5588C40.119 39.9644 29.8489 37.8021 23.2646 38.1131C23.2646 38.1131 22.099 38.1779 20.9249 38.3713C20.9249 38.3713 21.3689 38.1818 21.935 37.9867C26.5596 36.3875 28.745 36.0662 31.555 34.6228C36.8346 31.9182 42.0893 26.0271 43.1585 19.9072C41.1487 25.7932 35.0368 30.859 29.4716 32.916C25.6622 34.3217 18.7737 35.6896 18.7727 35.6902C18.7759 35.6951 18.4982 35.5461 18.4943 35.5428C13.8095 33.2635 13.6743 23.117 22.1828 19.8463C25.9134 18.4113 29.4815 19.1995 33.5143 18.2396C37.8155 17.217 42.7971 13.993 44.8219 9.77792C47.0919 16.5108 49.8186 27.0443 44.9266 33.5588ZM45.0102 7.69157C44.438 9.05136 43.7393 10.2767 42.9343 11.3727C39.3899 7.73511 34.4428 5.46872 28.9747 5.46872C18.2184 5.46872 9.46863 14.2195 9.46863 24.9738C9.46863 30.6115 11.8751 35.6961 15.7117 39.2601L16.1388 39.6385C15.4255 39.0568 15.3158 38.0094 15.894 37.2953C16.4756 36.581 17.5242 36.4703 18.2378 37.0488C18.9534 37.6285 19.0624 38.6787 18.483 39.3939C17.9058 40.1096 16.8554 40.2176 16.1408 39.6402L16.4315 39.8976C19.8252 42.7551 24.1999 44.481 28.9747 44.481C39.2559 44.481 47.6983 36.4801 48.421 26.3814C48.9561 21.4369 47.4958 15.1583 45.0102 7.69157Z" fill="#5FB832"/>
</g>
</g>
</g>
<defs>
<filter id="filter0_d_984_463" x="0" y="0" width="58" height="58" filterUnits="userSpaceOnUse" color-interpolation-filters="sRGB">
<feFlood flood-opacity="0" result="BackgroundImageFix"/>
<feColorMatrix in="SourceAlpha" type="matrix" values="0 0 0 0 0 0 0 0 0 0 0 0 0 0 0 0 0 0 127 0" result="hardAlpha"/>
<feOffset dy="4"/>
<feGaussianBlur stdDeviation="2"/>
<feComposite in2="hardAlpha" operator="out"/>
<feColorMatrix type="matrix" values="0 0 0 0 0 0 0 0 0 0 0 0 0 0 0 0 0 0 0.25 0"/>
<feBlend mode="normal" in2="BackgroundImageFix" result="effect1_dropShadow_984_463"/>
<feBlend mode="normal" in="SourceGraphic" in2="effect1_dropShadow_984_463" result="shape"/>
</filter>
<clipPath id="clip0_984_463">
<rect x="4" width="50" height="50" rx="5" fill="white"/>
</clipPath>
<clipPath id="clip1_984_463">
<rect width="50" height="50" fill="white" transform="translate(3.99988)"/>
</clipPath>
</defs>
</svg>
