<svg width="101" height="100" viewBox="0 0 101 100" fill="none" xmlns="http://www.w3.org/2000/svg">
<g clip-path="url(#clip0_1081_752)">
<rect x="0.142822" width="100" height="100" rx="25" />
<g clip-path="url(#clip1_1081_752)">
<path d="M76.7053 0H23.5803C10.6361 0 0.142822 10.4933 0.142822 23.4375V76.5625C0.142822 89.5067 10.6361 100 23.5803 100H76.7053C89.6495 100 100.143 89.5067 100.143 76.5625V23.4375C100.143 10.4933 89.6495 0 76.7053 0Z" fill="#242938"/>
<path fill-rule="evenodd" clip-rule="evenodd" d="M32.5647 42.9688C34.9081 33.5941 40.7682 28.9062 50.1428 28.9062C64.2053 28.9062 65.9631 39.4531 72.9944 41.2109C77.6823 42.3832 81.7834 40.6254 85.2991 35.9375C82.9557 45.3121 77.0956 50 67.7209 50C53.6584 50 51.9006 39.4531 44.8694 37.6953C40.1815 36.5231 36.0803 38.2809 32.5647 42.9688ZM14.9866 64.0625C17.33 54.6879 23.19 50 32.5647 50C46.6272 50 48.385 60.5469 55.4163 62.3047C60.1041 63.477 64.2053 61.7191 67.7209 57.0312C65.3776 66.4059 59.5174 71.0938 50.1428 71.0938C36.0803 71.0938 34.3225 60.5469 27.2913 58.7891C22.6034 57.6168 18.5022 59.3746 14.9866 64.0625Z" fill="url(#paint0_linear_1081_752)"/>
</g>
</g>
<defs>
<linearGradient id="paint0_linear_1081_752" x1="33.9319" y1="28.9062" x2="64.01" y2="72.4609" gradientUnits="userSpaceOnUse">
<stop stop-color="#32B1C1"/>
<stop offset="1" stop-color="#14C6B7"/>
</linearGradient>
<clipPath id="clip0_1081_752">
<rect x="0.142822" width="100" height="100" rx="25" fill="white"/>
</clipPath>
<clipPath id="clip1_1081_752">
<rect width="100" height="100" fill="white" transform="translate(0.142822)"/>
</clipPath>
</defs>
</svg>
