<svg width="101" height="100" viewBox="0 0 101 100" fill="none" xmlns="http://www.w3.org/2000/svg">
<g clip-path="url(#clip0_1081_756)">
<rect x="0.428467" width="100" height="100" rx="25" />
<g clip-path="url(#clip1_1081_756)">
<path d="M76.991 0H23.866C10.9218 0 0.428467 10.4933 0.428467 23.4375V76.5625C0.428467 89.5067 10.9218 100 23.866 100H76.991C89.9351 100 100.428 89.5067 100.428 76.5625V23.4375C100.428 10.4933 89.9351 0 76.991 0Z" fill="#007ACC"/>
<path d="M22.5423 50.3317L22.5105 54.427H29.0184H35.5264V72.9192V91.411H40.1297H44.7328V72.9192V54.427H51.2406H57.7484V50.411C57.7484 48.1888 57.7012 46.3317 57.6375 46.2841C57.5898 46.2208 49.6691 46.1888 40.066 46.2048L22.5899 46.2524L22.5423 50.3317Z" fill="white"/>
<path d="M81.1187 46.1362C83.6581 46.7713 85.5948 47.8983 87.3726 49.7393C88.2933 50.7237 89.6581 52.5174 89.7695 52.9459C89.8011 53.0729 85.4519 55.9936 82.8171 57.6284C82.7218 57.692 82.3406 57.2791 81.912 56.6444C80.6265 54.7713 79.2773 53.9616 77.2136 53.819C74.182 53.6123 72.2296 55.1998 72.2456 57.8506C72.2456 58.6284 72.3566 59.0885 72.6741 59.7237C73.3405 61.1045 74.5788 61.9299 78.4679 63.6123C85.6265 66.692 88.6898 68.7237 90.5948 71.6123C92.7218 74.8346 93.198 79.9776 91.7534 83.803C90.1663 87.9616 86.2296 90.7869 80.6898 91.7237C78.9757 92.0252 74.912 91.9776 73.071 91.6444C69.055 90.9299 65.2456 88.9459 62.8964 86.3428C61.9757 85.3268 60.182 82.676 60.2933 82.4854C60.3405 82.4221 60.7534 82.1682 61.2136 81.8983C61.6581 81.6444 63.3409 80.676 64.928 79.7553L67.8011 78.0885L68.4042 78.9776C69.2456 80.2631 71.0866 82.0252 72.198 82.6123C75.3882 84.2951 79.7695 84.0569 81.9281 82.1205C82.8488 81.2791 83.2296 80.4061 83.2296 79.1205C83.2296 77.9616 83.0866 77.4537 82.4835 76.5807C81.7058 75.4698 80.1187 74.533 75.6105 72.5807C70.4519 70.3584 68.2296 68.9776 66.198 66.7869C65.0234 65.5174 63.912 63.4854 63.4519 61.7869C63.071 60.3744 62.9757 56.8346 63.2773 55.4061C64.3405 50.4221 68.1027 46.9459 73.5312 45.9139C75.2933 45.5807 79.3882 45.7077 81.1187 46.1362Z" fill="white"/>
</g>
</g>
<defs>
<clipPath id="clip0_1081_756">
<rect x="0.428467" width="100" height="100" rx="25" fill="white"/>
</clipPath>
<clipPath id="clip1_1081_756">
<rect width="100" height="100" fill="white" transform="translate(0.428467)"/>
</clipPath>
</defs>
</svg>
