<svg width="58" height="58" viewBox="0 0 58 58" fill="none" xmlns="http://www.w3.org/2000/svg">
<g filter="url(#filter0_d_984_453)">
<g clip-path="url(#clip0_984_453)">
<g clip-path="url(#clip1_984_453)">
<path d="M42.1383 0H15.5758C9.10372 0 3.85706 5.24666 3.85706 11.7188V38.2812C3.85706 44.7533 9.10372 50 15.5758 50H42.1383C48.6104 50 53.8571 44.7533 53.8571 38.2812V11.7188C53.8571 5.24666 48.6104 0 42.1383 0Z" fill="#007ACC"/>
<path d="M14.9139 25.1658L14.8981 27.2135H18.152H21.406V36.4596V45.7055H23.7077H26.0092V36.4596V27.2135H29.2631H32.517V25.2055C32.517 24.0943 32.4934 23.1658 32.4616 23.142C32.4377 23.1104 28.4774 23.0943 23.6758 23.1024L14.9378 23.1262L14.9139 25.1658Z" fill="white"/>
<path d="M44.2022 23.068C45.4719 23.3855 46.4402 23.949 47.3291 24.8695C47.7895 25.3617 48.4719 26.2586 48.5275 26.4728C48.5434 26.5363 46.3688 27.9967 45.0514 28.8141C45.0037 28.8459 44.8131 28.6394 44.5988 28.3221C43.9561 27.3855 43.2815 26.9807 42.2496 26.9094C40.7338 26.806 39.7576 27.5998 39.7656 28.9252C39.7656 29.3141 39.8211 29.5441 39.9799 29.8617C40.3131 30.5521 40.9322 30.9648 42.8768 31.806C46.4561 33.3459 47.9877 34.3617 48.9402 35.806C50.0037 37.4172 50.2418 39.9887 49.5195 41.9014C48.726 43.9807 46.7576 45.3933 43.9877 45.8617C43.1307 46.0125 41.0988 45.9887 40.1783 45.8221C38.1703 45.4648 36.2656 44.4728 35.091 43.1713C34.6307 42.6633 33.7338 41.3379 33.7895 41.2426C33.8131 41.2109 34.0195 41.084 34.2496 40.949C34.4719 40.8221 35.3133 40.3379 36.1068 39.8775L37.5434 39.0441L37.8449 39.4887C38.2656 40.1314 39.1861 41.0125 39.7418 41.306C41.3369 42.1475 43.5276 42.0283 44.6068 41.0601C45.0672 40.6394 45.2576 40.2029 45.2576 39.5601C45.2576 38.9807 45.1861 38.7267 44.8846 38.2902C44.4957 37.7348 43.7022 37.2664 41.4481 36.2902C38.8688 35.1791 37.7576 34.4887 36.7418 33.3934C36.1545 32.7586 35.5988 31.7426 35.3688 30.8934C35.1783 30.1871 35.1307 28.4172 35.2815 27.7029C35.8131 25.2109 37.6942 23.4728 40.4084 22.9568C41.2895 22.7902 43.3369 22.8537 44.2022 23.068Z" fill="white"/>
</g>
</g>
</g>
<defs>
<filter id="filter0_d_984_453" x="0" y="0" width="58" height="58" filterUnits="userSpaceOnUse" color-interpolation-filters="sRGB">
<feFlood flood-opacity="0" result="BackgroundImageFix"/>
<feColorMatrix in="SourceAlpha" type="matrix" values="0 0 0 0 0 0 0 0 0 0 0 0 0 0 0 0 0 0 127 0" result="hardAlpha"/>
<feOffset dy="4"/>
<feGaussianBlur stdDeviation="2"/>
<feComposite in2="hardAlpha" operator="out"/>
<feColorMatrix type="matrix" values="0 0 0 0 0 0 0 0 0 0 0 0 0 0 0 0 0 0 0.25 0"/>
<feBlend mode="normal" in2="BackgroundImageFix" result="effect1_dropShadow_984_453"/>
<feBlend mode="normal" in="SourceGraphic" in2="effect1_dropShadow_984_453" result="shape"/>
</filter>
<clipPath id="clip0_984_453">
<rect x="4" width="50" height="50" rx="5" fill="white"/>
</clipPath>
<clipPath id="clip1_984_453">
<rect width="50" height="50" fill="white" transform="translate(3.85706)"/>
</clipPath>
</defs>
</svg>
