<svg width="50" height="51" viewBox="0 0 50 51" fill="none" xmlns="http://www.w3.org/2000/svg">
<g clip-path="url(#clip0_977_432)">
<path d="M8.10936 1.0625C7.58592 1.17578 6.95702 1.55078 6.63281 1.9453C6.41015 2.21874 6.21875 2.55858 6.10547 2.89452L6 3.20701V25.9998V48.7926L6.10547 49.105C6.35937 49.8511 6.82812 50.3902 7.52342 50.7261C8.14061 51.023 6.51562 50.9996 25.2186 50.9996C43.9216 50.9996 42.2966 51.023 42.9137 50.7261C43.6091 50.3902 44.0778 49.8511 44.3317 49.105L44.4372 48.7926L44.4489 31.7927L44.4567 14.7889L39.1364 14.7811L33.8123 14.7694L33.5115 14.6835C31.9138 14.2304 30.8826 13.1327 30.7068 11.703C30.6834 11.4921 30.6678 9.51555 30.6678 6.18745V1L19.5272 1.00391C9.85153 1.00781 8.34764 1.01562 8.10936 1.0625Z" fill="white"/>
<path d="M32.5883 6.3511L32.6 11.6831L32.7133 11.9136C32.8617 12.2182 33.1781 12.5268 33.4945 12.6792C34.0023 12.9214 33.85 12.9135 39.3812 12.9135C42.1507 12.9135 44.4163 12.9018 44.4163 12.8823C44.4163 12.8667 41.7522 10.1909 38.4984 6.93703L32.5804 1.01912L32.5883 6.3511Z" fill="white"/>
<path d="M16 25.6301H33.8571" stroke="#323330" stroke-width="3" stroke-linecap="round"/>
<path d="M16 32.7729H33.8571" stroke="#323330" stroke-width="3" stroke-linecap="round"/>
<path d="M16 39.916H33.8571" stroke="#323330" stroke-width="3" stroke-linecap="round"/>
</g>
<defs>
<clipPath id="clip0_977_432">
<rect y="0.5" width="50" height="50" rx="10" fill="white"/>
</clipPath>
</defs>
</svg>
