<svg width="53" height="52" viewBox="0 0 53 52" fill="none" xmlns="http://www.w3.org/2000/svg">
<g filter="url(#filter0_d_363_1704)">
<path d="M50 34.5C46.5 30 43.2 26.6 42 25L40.5 27.5L38.5 29.5L35.5 31L32.5 32L40.5 41.5L41.5 33.5L50 34.5Z" />
<path d="M50 34.5C46.5 30 43.2 26.6 42 25L40.5 27.5L38.5 29.5L35.5 31L32.5 32L40.5 41.5L41.5 33.5L50 34.5Z" stroke="#8736B9" stroke-width="2"/>
</g>
<g filter="url(#filter1_d_363_1704)">
<circle cx="29.5" cy="18.5" r="14.5" />
<circle cx="29.5" cy="18.5" r="13.5" stroke="#8736B9" stroke-width="2"/>
</g>
<g filter="url(#filter2_d_363_1704)">
<path d="M11 35C14.5 30.5 16.3 27.1 17.5 25.5L19 28L21.5 30L24 31.5L27.5 32.5L20.5 41.5L19.5 33L11 35Z" />
<path d="M11 35C14.5 30.5 16.3 27.1 17.5 25.5L19 28L21.5 30L24 31.5L27.5 32.5L20.5 41.5L19.5 33L11 35Z" stroke="#8736B9" stroke-width="2"/>
</g>
<defs>
<filter id="filter0_d_363_1704" x="20.7861" y="21.2102" width="31.4702" height="28.6836" filterUnits="userSpaceOnUse" color-interpolation-filters="sRGB">
<feFlood flood-opacity="0" result="BackgroundImageFix"/>
<feColorMatrix in="SourceAlpha" type="matrix" values="0 0 0 0 0 0 0 0 0 0 0 0 0 0 0 0 0 0 127 0" result="hardAlpha"/>
<feOffset dx="-6" dy="2"/>
<feGaussianBlur stdDeviation="2"/>
<feComposite in2="hardAlpha" operator="out"/>
<feColorMatrix type="matrix" values="0 0 0 0 0.529412 0 0 0 0 0.211765 0 0 0 0 0.72549 0 0 0 0.5 0"/>
<feBlend mode="normal" in2="BackgroundImageFix" result="effect1_dropShadow_363_1704"/>
<feBlend mode="normal" in="SourceGraphic" in2="effect1_dropShadow_363_1704" result="shape"/>
</filter>
<filter id="filter1_d_363_1704" x="5" y="0" width="39" height="37" filterUnits="userSpaceOnUse" color-interpolation-filters="sRGB">
<feFlood flood-opacity="0" result="BackgroundImageFix"/>
<feColorMatrix in="SourceAlpha" type="matrix" values="0 0 0 0 0 0 0 0 0 0 0 0 0 0 0 0 0 0 127 0" result="hardAlpha"/>
<feOffset dx="-6"/>
<feGaussianBlur stdDeviation="2"/>
<feComposite in2="hardAlpha" operator="out"/>
<feColorMatrix type="matrix" values="0 0 0 0 0.529412 0 0 0 0 0.211765 0 0 0 0 0.72549 0 0 0 0.5 0"/>
<feBlend mode="normal" in2="BackgroundImageFix" result="effect1_dropShadow_363_1704"/>
<feBlend mode="normal" in="SourceGraphic" in2="effect1_dropShadow_363_1704" result="shape"/>
</filter>
<filter id="filter2_d_363_1704" x="0.471191" y="22.7102" width="28.7271" height="28.3291" filterUnits="userSpaceOnUse" color-interpolation-filters="sRGB">
<feFlood flood-opacity="0" result="BackgroundImageFix"/>
<feColorMatrix in="SourceAlpha" type="matrix" values="0 0 0 0 0 0 0 0 0 0 0 0 0 0 0 0 0 0 127 0" result="hardAlpha"/>
<feOffset dx="-4" dy="3"/>
<feGaussianBlur stdDeviation="2"/>
<feComposite in2="hardAlpha" operator="out"/>
<feColorMatrix type="matrix" values="0 0 0 0 0.529412 0 0 0 0 0.211765 0 0 0 0 0.72549 0 0 0 0.5 0"/>
<feBlend mode="normal" in2="BackgroundImageFix" result="effect1_dropShadow_363_1704"/>
<feBlend mode="normal" in="SourceGraphic" in2="effect1_dropShadow_363_1704" result="shape"/>
</filter>
</defs>
</svg>
