<svg width="43" height="43" viewBox="0 0 43 43" fill="none" xmlns="http://www.w3.org/2000/svg">
<g filter="url(#filter0_d_373_1729)">
<path fill-rule="evenodd" clip-rule="evenodd" d="M25.5 36.6667C33.8763 36.6667 40.6667 29.8763 40.6667 21.5C40.6667 13.1237 33.8763 6.33333 25.5 6.33333C17.1237 6.33333 10.3333 13.1237 10.3333 21.5C10.3333 29.8763 17.1237 36.6667 25.5 36.6667ZM25.5 39C35.165 39 43 31.165 43 21.5C43 11.835 35.165 4 25.5 4C15.835 4 8 11.835 8 21.5C8 31.165 15.835 39 25.5 39Z" fill="#2B8E2A"/>
</g>
<path d="M20.8335 18.5833C20.8335 19.5498 20.05 20.3333 19.0835 20.3333C18.117 20.3333 17.3335 19.5498 17.3335 18.5833C17.3335 17.6168 18.117 16.8333 19.0835 16.8333C20.05 16.8333 20.8335 17.6168 20.8335 18.5833Z" fill="#2B8E2A"/>
<path d="M33.6665 18.5833C33.6665 19.5498 32.883 20.3333 31.9165 20.3333C30.95 20.3333 30.1665 19.5498 30.1665 18.5833C30.1665 17.6168 30.95 16.8333 31.9165 16.8333C32.883 16.8333 33.6665 17.6168 33.6665 18.5833Z" fill="#2B8E2A"/>
<path fill-rule="evenodd" clip-rule="evenodd" d="M23.0494 31.7353C20.5631 31.1838 17.9497 29.7306 15.3218 26.9713L17.0114 25.3621C19.3835 27.8527 21.6034 29.0245 23.5547 29.4574C25.5069 29.8904 27.2922 29.6064 28.8316 29.0151C30.3805 28.4201 31.6643 27.5189 32.5689 26.7529C33.0185 26.3722 33.3673 26.031 33.6006 25.7884C33.7171 25.6673 33.8044 25.5714 33.8606 25.508C33.8887 25.4763 33.9089 25.4529 33.9212 25.4385L33.9335 25.424C33.9331 25.4244 33.9335 25.424 34.8333 26.1667C35.733 26.9093 35.7326 26.9098 35.7322 26.9104L35.7311 26.9117L35.7283 26.915L35.7204 26.9244L35.695 26.9544C35.6739 26.9792 35.6443 27.0134 35.6064 27.056C35.5308 27.1414 35.4221 27.2607 35.2821 27.4062C35.0024 27.6969 34.5959 28.094 34.0768 28.5336C33.0439 29.4082 31.5361 30.4757 29.6683 31.1932C27.7911 31.9144 25.5347 32.2866 23.0494 31.7353Z" fill="#2B8E2A"/>
<defs>
<filter id="filter0_d_373_1729" x="0" y="0" width="43" height="43" filterUnits="userSpaceOnUse" color-interpolation-filters="sRGB">
<feFlood flood-opacity="0" result="BackgroundImageFix"/>
<feColorMatrix in="SourceAlpha" type="matrix" values="0 0 0 0 0 0 0 0 0 0 0 0 0 0 0 0 0 0 127 0" result="softAlpha"/>
<feOffset dx="-4"/>
<feGaussianBlur stdDeviation="2"/>
<feComposite in2="hardAlpha" operator="out"/>
<feColorMatrix type="matrix" values="0 0 0 0 0.254902 0 0 0 0 0.678431 0 0 0 0 0.247059 0 0 0 1 0"/>
<feBlend mode="normal" in2="BackgroundImageFix" result="effect1_dropShadow_373_1729"/>
<feBlend mode="normal" in="SourceGraphic" in2="effect1_dropShadow_373_1729" result="shape"/>
</filter>
</defs>
</svg>
