<svg width="38" height="38" viewBox="0 0 38 38" fill="none" xmlns="http://www.w3.org/2000/svg">
<g filter="url(#filter0_d_364_1705)">
<path d="M23 4C14.7288 4 8 10.7288 8 19C8 27.2712 14.7288 34 23 34C31.2712 34 38 27.2712 38 19C38 10.7288 31.2712 4 23 4ZM23 6.5C29.9188 6.5 35.5 12.0813 35.5 19C35.5 25.9188 29.9188 31.5 23 31.5C16.0813 31.5 10.5 25.9188 10.5 19C10.5 12.0813 16.0813 6.5 23 6.5ZM17.375 14C16.8777 14 16.4008 14.1975 16.0492 14.5492C15.6975 14.9008 15.5 15.3777 15.5 15.875C15.5 16.3723 15.6975 16.8492 16.0492 17.2008C16.4008 17.5525 16.8777 17.75 17.375 17.75C17.8723 17.75 18.3492 17.5525 18.7008 17.2008C19.0525 16.8492 19.25 16.3723 19.25 15.875C19.25 15.3777 19.0525 14.9008 18.7008 14.5492C18.3492 14.1975 17.8723 14 17.375 14ZM28.625 14C28.1277 14 27.6508 14.1975 27.2992 14.5492C26.9475 14.9008 26.75 15.3777 26.75 15.875C26.75 16.3723 26.9475 16.8492 27.2992 17.2008C27.6508 17.5525 28.1277 17.75 28.625 17.75C29.1223 17.75 29.5992 17.5525 29.9508 17.2008C30.3025 16.8492 30.5 16.3723 30.5 15.875C30.5 15.3777 30.3025 14.9008 29.9508 14.5492C29.5992 14.1975 29.1223 14 28.625 14ZM16.515 22.75L14.3675 24C16.0962 26.9837 19.3088 29 23 29C26.6912 29 29.9037 26.9837 31.6325 24L29.485 22.75C28.8298 23.8906 27.8852 24.838 26.7465 25.4965C25.6077 26.155 24.3154 26.5011 23 26.5C21.6846 26.5011 20.3923 26.155 19.2535 25.4965C18.1148 24.838 17.1702 23.8906 16.515 22.75Z" fill="#41AD3F"/>
</g>
<defs>
<filter id="filter0_d_364_1705" x="0" y="0" width="38" height="38" filterUnits="userSpaceOnUse" color-interpolation-filters="sRGB">
<feFlood flood-opacity="0" result="BackgroundImageFix"/>
<feColorMatrix in="SourceAlpha" type="matrix" values="0 0 0 0 0 0 0 0 0 0 0 0 0 0 0 0 0 0 127 0" result="hardAlpha"/>
<feOffset dx="-4"/>
<feGaussianBlur stdDeviation="2"/>
<feComposite in2="hardAlpha" operator="out"/>
<feColorMatrix type="matrix" values="0 0 0 0 0.254902 0 0 0 0 0.678431 0 0 0 0 0.247059 0 0 0 1 0"/>
<feBlend mode="normal" in2="BackgroundImageFix" result="effect1_dropShadow_364_1705"/>
<feBlend mode="normal" in="SourceGraphic" in2="effect1_dropShadow_364_1705" result="shape"/>
</filter>
</defs>
</svg>
